<?xml version="1.0" encoding="utf-8"?>
<!-- Generator: Adobe Illustrator 23.0.5, SVG Export Plug-In . SVG Version: 6.00 Build 0)  -->
<svg version="1.1" id="Layer_1" xmlns="http://www.w3.org/2000/svg" xmlns:xlink="http://www.w3.org/1999/xlink" x="0px" y="0px"
	 viewBox="0 0 1269.8 1600.5" style="enable-background:new 0 0 1269.8 1600.5;" xml:space="preserve">
<style type="text/css">
	.st0{fill:#00923F;stroke:#00923F;stroke-width:0.5;}
	.st1{fill:#DA251C;stroke:#DA251C;stroke-width:0.5;}
	.st2{fill:#F9F0F1;stroke:#F9F0F1;stroke-width:0.5;}
	.st3{fill:#B7E1C9;stroke:#B7E1C9;stroke-width:0.5;}
	.st4{fill:#F5C2C0;stroke:#F5C2C0;stroke-width:0.5;}
	.st5{fill:#FEFCFD;stroke:#FEFCFD;stroke-width:0.5;}
	.st6{fill:#C5E6D3;stroke:#C5E6D3;stroke-width:0.5;}
	.st7{fill:#F7CDCB;stroke:#F7CDCB;stroke-width:0.5;}
	.st8{fill:#FDFCFA;stroke:#FDFCFA;stroke-width:0.5;}
	.st9{fill:#F5C1BF;stroke:#F5C1BF;stroke-width:0.5;}
	.st10{fill:#B3E0C6;stroke:#B3E0C6;stroke-width:0.5;}
	.st11{fill:#F4BCB9;stroke:#F4BCB9;stroke-width:0.5;}
	.st12{fill:#FCFAFB;stroke:#FCFAFB;stroke-width:0.5;}
	.st13{fill:#A8DBBD;stroke:#A8DBBD;stroke-width:0.5;}
	.st14{fill:#F3B5B2;stroke:#F3B5B2;stroke-width:0.5;}
	.st15{fill:#B8332C;stroke:#B8332C;stroke-width:0.5;}
	.st16{fill:#FCFBF9;stroke:#FCFBF9;stroke-width:0.5;}
	.st17{fill:#87704A;stroke:#87704A;stroke-width:0.5;}
	.st18{fill:#9CD5B4;stroke:#9CD5B4;stroke-width:0.5;}
	.st19{fill:#F1ABA9;stroke:#F1ABA9;stroke-width:0.5;}
	.st20{fill:#866D43;stroke:#866D43;stroke-width:0.5;}
	.st21{fill:#836A41;stroke:#836A41;stroke-width:0.5;}
	.st22{fill:#886942;stroke:#886942;stroke-width:0.5;}
	.st23{fill:#FDF9FA;stroke:#FDF9FA;stroke-width:0.5;}
	.st24{fill:#B92928;stroke:#B92928;stroke-width:0.5;}
	.st25{fill:#93D1AE;stroke:#93D1AE;stroke-width:0.5;}
	.st26{fill:#02923F;stroke:#02923F;stroke-width:0.5;}
	.st27{fill:#874E28;stroke:#874E28;stroke-width:0.5;}
	.st28{fill:#837044;stroke:#837044;stroke-width:0.5;}
	.st29{fill:#FCF8F7;stroke:#FCF8F7;stroke-width:0.5;}
	.st30{fill:#EB8984;stroke:#EB8984;stroke-width:0.5;}
	.st31{fill:#79C69A;stroke:#79C69A;stroke-width:0.5;}
	.st32{fill:#73C395;stroke:#73C395;stroke-width:0.5;}
	.st33{fill:#FBF7F7;stroke:#FBF7F7;stroke-width:0.5;}
	.st34{fill:#FBF7F6;stroke:#FBF7F6;stroke-width:0.5;}
</style>
<g>
	<path class="st0" d="M214.5,5c56.6-10.2,108.7-4.7,158.2,23.4c-4.2,8.9-8.6,17.8-12.9,26.7c-26.5-15.1-58.2-26.6-88.6-23.2
		c-4.6,0.3-9.2,8-6.9,9.7c2.4,0.7,4.9,0.4,7.3,0.7c45.3,3.1,79.8,22.2,82.3,25.2c-13.8,27.8-82.5,169.7-84,171.7
		c-3.4-2.8-22.5-24.6-48.6-23.4c0-0.9-5.3-165.2-5.4-170.4c15.9-2.8,20.5-0.6,20.5-3.4c-0.2-2.8-2.1-5.3-4.1-7.1
		c-1.5-1.5-3.8-1.3-5.7-1.6c-3.7-0.5-7.4-0.2-11.1-0.4C215.1,23.5,214.8,14.3,214.5,5z"/>
	<path class="st1" d="M1054.4,4.6c1.9,1.2,0.9-0.1,0.8,11.6c-0.2,5.6-0.2,11.3-0.7,16.9c-4.9-0.4-9.9-0.2-14.8,0.5
		c-5,2.3-8.1,10.1-4.2,9.7c6.3,0.4,12.6,0.8,18.8,1.9c-0.1,1.6-2,58.5-2.3,69.6c-0.3-1.3-0.4-2.6-0.4-3.9c0.3,8,0.2,7.7-1.6,64.7
		c-0.4-1.2-0.3-2.5-0.4-3.7c0.3,10.4-1,43.2-1,43.7c-30.2,1.5-43,19.1-48.7,23.5c-1.8-3.1-81-166.2-83.7-171.5
		c0.8-2.7,29.6-17.2,60.5-22.7c27.1-4.7,30-1.1,29.6-4.9c-0.3-3.2-4-8-7.3-8.1c-31.3-2.8-60.9,7.3-88.7,23.2
		c-1.1-2.1-11.9-23.8-12.8-26.6c1.3-0.9,2.7-1.6,4-2.4C973.2-13.3,1042,4.1,1054.4,4.6z"/>
	<path class="st2" d="M1054.4,4.6c2.4-0.3,54.7,11.3,79.2,23.2c5.3,2.6,37.3,21.7,66.2,50.9c0.9,1,2.5,1.3,3.3,2.6
		c-3.3,3.3-14.1,19.3-17.3,23.1c-46-51.2-109-73.7-130.7-71.1c-0.2,1.8-0.2,3.6-0.5,5.4c-0.3-5,1.1-27.5,1-32.7
		C1055.6,5.2,1054.8,4.9,1054.4,4.6z"/>
	<path class="st2" d="M214.5,5c0,0.3,0.9,27.8,0.9,28.1c-2-0.4-3.9,0-5.9,0.2c-57.1,3.8-118.8,62-125.2,71.4
		c-3.5-4-15.3-23.1-17.6-22.6c0.1-0.9-0.9,0.4,13.9-13.6c22-18.6,24-21.2,57.1-41.5c5.3-3.5,11.6-4.6,17.4-6.9
		C158.9,19,188.8,9,214.5,5z"/>
	<path class="st2" d="M897.5,27.3c0.9-1.3,2.6-1.6,4-1.3c-1.3,0.8-2.7,1.5-4,2.4c0.9,2.7,11.7,24.5,12.8,26.6l-0.2,0.2
		c-7.5,3.8-14.4,8.7-21.3,13.5c-70.1,49.4-75.8,99.6-117.9,190.5c-0.4,1.1,0.6,2,1.1,2.8c-5.5-3.4-13.3-8.5-26.2-16.3
		c-1.2,1.8-1.8,3.8-2.7,5.7c0-0.8,25.1-58.3,27.6-63.7c32.3-79.5,85.2-135.9,121-155.9C893.8,30.5,896,29.3,897.5,27.3z"/>
	<path class="st2" d="M372.7,28.4c29.4,14.8,77.9,60.3,112.4,127.5c23.5,52.6,30.8,69.5,39.4,89.9c-2.5,0.9-14.7,9-24.5,14.9l-0.3,0
		c-15.5-32.7-45.3-118.3-73-149.9c-23.3-29.1-61.9-54.3-67-55.5C359.7,55.4,369.5,35.2,372.7,28.4z"/>
	<path class="st3" d="M271.2,31.8c30.4-3.4,62.1,8.1,88.6,23.2c-0.9,2.3-5.3,10-5.6,12.4l-0.3-0.1c-2.1-2.4-35.9-21.9-82.3-25.2
		c-2.4-0.2-4.9,0-7.3-0.7C262,39.9,266.5,32.2,271.2,31.8z"/>
	<path class="st4" d="M999,31.8c3.3,0.1,7,4.9,7.3,8.1c0.4,3.8-2.5,0.3-29.6,4.9c-30.8,5.4-59.7,20-60.5,22.7
		c-2.2-4.2-3.8-8.7-6.2-12.3C910.8,54.5,953.3,27.8,999,31.8z"/>
	<path class="st5" d="M215.4,33.1c0.1,3.9,0.4,7.8,0.4,11.7c-3.5,1.1-29.7,4.8-52.6,16.8c-39.7,20.5-66.7,49.3-70,54.8
		c-1.7-1.4-8.5-11.3-8.9-11.7c3.3-4.8,47.4-50.2,95-64.8C200.6,33.1,212.8,32.6,215.4,33.1z"/>
	<path class="st6" d="M215.4,32.7c5,0.3,14.4-0.3,16.8,2c2,1.8,4,4.3,4.1,7.1c0,2.8-4.6,0.6-20.5,3.4
		C215.8,45,215.4,33.4,215.4,32.7z"/>
	<path class="st7" d="M1039.7,33.6c4.9-0.7,9.9-1,14.8-0.5c0,0-0.1,12.2-0.1,12.2c-16.2-2.9-23,0.1-20.2-5.6
		C1035.3,37.2,1037.1,34.8,1039.7,33.6z"/>
	<path class="st5" d="M1055,33.3c22.4-2.7,85.3,20.5,130.7,71.1c-2.5,4.1-5.5,7.8-8.4,11.7c-5.1-3.1-47.7-59.9-123-70.8
		C1054.4,39.3,1054.4,40.4,1055,33.3z"/>
	<path class="st2" d="M198.8,48.6c5.6-1.7,11.5-2.1,17.1-3.8c0,0,0.6,21.7,5.5,170.8c-16.7,1.5-30.4,11.5-35.4,30
		c-0.2,0.1-0.6,0.2-0.8,0.2c0.7-1.8,6.3,6.7-92-129.1C102.9,101.7,150.8,59.3,198.8,48.6z"/>
	<path class="st2" d="M1054.3,45.2c75.7,10.9,118,67.7,123,70.8c-2.9,4.5-91.7,126.4-92.6,128.5c1.5,5.3,3.1,10.7,3.5,16.3l-0.5,0.1
		c-0.5-3.2-0.8-6.5-1.7-9.6c-4.4-20.6-17.1-31.6-30.2-34.5c-8.5-1.9-6.5,0.1-16.1-0.7c3-0.6,6-0.5,9.1-0.6c0-0.5,1.4-33.3,1-43.7
		c0,1.2,0,2.5,0.4,3.7c1.6-54.1,1.9-56.4,1.6-64.7c0,1.3,0,2.7,0.4,3.9C1052.3,103.1,1054.2,46.8,1054.3,45.2z"/>
	<path class="st8" d="M359.7,55.4c4.9,1.1,36.9,23.1,48.4,35.7c36.3,34.5,40.7,54.3,57.4,90.2c0,0,34.2,79.4,34.2,79.4
		c-1.6,1.5-11.4,7.6-13.2,8.2c-0.2-0.6-25.2-61.6-32.8-78.6c-6.3-14.8-25.4-75.4-90.2-117.7c-3.1-1.7-5.8-4.1-9.2-5.2
		C354.5,64.9,356,63.2,359.7,55.4z"/>
	<path class="st8" d="M910.1,55.3c2.3,3.4,3.7,7.3,5.6,11c-0.6,1.1-1.5,1.9-2.6,2.5c-16.7,9.4-32,23.7-34.4,25.8
		c-49.3,48.3-50.3,71.5-69.8,113.4c-0.2,0.5-24.4,59-25.7,61.1c-3.8-2.2-7.5-4.6-11.2-6.9c-2.7-4.7-3.3,5.5,31.9-79.1
		c23.6-53.3,23-53,49.5-83.6C872.6,79.4,896.6,62.1,910.1,55.3z"/>
	<path class="st2" d="M915.6,66.2c0.2,0.5,83.4,171.1,84.4,172.9c1-0.8,1.8-1.6,2.7-2.5c-0.1,2.1-1.9,3.5-3.9,4
		c-15.4,16.5-20.3,27-61.8,119.9c-0.9,1.3-1.2,2.9-1,4.5c-0.2-0.1-0.6-0.2-0.7-0.3c-1.3-1.5-150.3-94.4-152-95.3l-0.2-0.3
		c0.1-0.1,37.1-88.7,45.1-106.2c3.8-8.1,1.1-6,12.3-23.2c19.5-27.5,42.9-54.2,72.4-70.9C914.1,68.1,915.1,67.3,915.6,66.2z"/>
	<path class="st2" d="M353.9,67.3c6.8,2.6,28.8,17.6,43.3,32.7c37.4,38.5,42.8,57.9,56.5,90.2c7.3,16.4,32.5,77.7,32.9,79
		c-0.5,0.3-150.3,93.5-152,95.6c-3.1-8.9-31.1-68.1-34.3-75.6c-8.1-21.9-23.8-44.6-30-49.1c-1.2-0.9-2.8-1.8-2.8-3.5
		c0.8,0.8,1.6,1.6,2.5,2.4C271.2,237.4,342.8,89.6,353.9,67.3z"/>
	<path class="st0" d="M66.7,82.1c1.3-0.3-0.1-2.3,17.4,22.3c-36.1,38-56.7,96.1-59.7,135.7c-0.1,0.7-0.1,1.7-0.9,2
		c-7.4-3-14.9-5.6-22.4-8.4C3.7,144.4,64.3,85.4,66.7,82.1z"/>
	<path class="st1" d="M1202.7,81.6c9,11.1,59.5,58.7,66.2,152.2c-7.4,2.7-14.9,5.3-22.3,8.3c-0.9,0-1-1-1.1-1.7
		c-2.4-34-18.3-74-29.7-95.3c-12.4-22.6-27.7-37.8-30-41C1191,97.8,1199.7,84.6,1202.7,81.6z"/>
	<path class="st9" d="M1186,104.1c5,7,24.5,23.5,40.5,63.9c-0.2,0.5-0.4,1.1-0.5,1.7c2,2.9,2.8,6.3,4.1,9.5c0.5,1.1,0.4,2.2,0,3.3
		c0.7,2.1,3.8,3.8,3,8.6c-1.1-0.1-2.3-0.7-3.4-0.1c-1.8,1-3.8,2-5.3,3.5c1.1,1.6,3,3.4,2.1,5.5c-0.6,1.6-0.4,3.5-1.7,4.9
		c-0.6-1.7-1-4,0.3-5.5c-10.5-17.3-5.6-31.5-43-76.7c-1.7-2-3.2-4.2-5.2-5.9C1176.9,116.7,1186,104.1,1186,104.1z"/>
	<path class="st10" d="M84.1,104.4c1.7,2,6.7,10,9.1,12l-0.2,0.3c-4.3,3.8-27.9,34.7-32.1,45.8c-18.3,43.1-21.4,76.6-20.5,85.8
		l-16.9-6.2c0.8-0.3,0.8-1.3,0.9-2C27.4,200.6,47.9,142.5,84.1,104.4z"/>
	<path class="st0" d="M93.1,116.7c98.4,135.8,92.8,127.3,92,129.1c-8.5,23.9-0.3,52.9,0,55.6c-2.6-0.5-132.6-48.9-144.7-53.1
		c-1.4-14.2,7.1-66,29.1-100.6C78.8,133.3,90.6,118.9,93.1,116.7z"/>
	<path class="st1" d="M1176.9,116.7c2,1.6,15.4,17.1,30.9,42.4c1.2,3.8,22.5,49.7,21.9,89.2c-147.7,54.3-141.8,52.6-144.6,53.1
		c0-0.3,0-1,0-1.3c5.7-23.1,4.1-39.6-0.4-55.5C1085.6,242.6,1081.2,249.3,1176.9,116.7 M1089.1,265.8c-0.3,3.5,0,7-0.1,10.6l0.3,0.2
		C1089.3,273,1090,269.3,1089.1,265.8z"/>
	<path class="st11" d="M1207.8,159.1c4.3,4.6,11.6,30.8,17.4,40.2c-1.3,1.5-0.9,3.8-0.3,5.5c1.2-1.3,1-3.3,1.7-4.9
		c0.9-2.1-0.9-4-2.1-5.5c1.5-1.5,3.4-2.5,5.3-3.5c1-0.7,2.2,0,3.4,0.1c0.9-4.7-2.3-6.5-3-8.6c0.4-1.1,0.5-2.2,0-3.3
		c-1.3-3.2-2.1-6.6-4.1-9.5c0.1-0.6,0.3-1.1,0.5-1.7c7.9,17.3,17.4,47,19.2,72.4c0.1,0.7,0.1,1.7,1.1,1.7c0,0-17,6.2-17,6.2
		C1230.2,208.7,1209.2,163.5,1207.8,159.1z"/>
	<path class="st2" d="M1.2,233.8c6.9,2.6,18.1,6.5,23.2,8.8c-4.1,29.4,9.1,77.5,16.5,104c2.4,8.4,4.4,17,7.2,25.4
		c2.1,6.4,16.4,9.2,12.8-8.9c-1-4.6-9.7-37.3-12.3-49.4c-10.3-45.7-7.4-54.8-8.4-65.4c4.9,1.5,142.1,52.6,145,53.2
		c-0.1-0.9-0.2-1.7-0.4-2.5c1.4,1.3,0.8,3.5,1.2,5.2c0.1,0.5,6.7,31.1,8,35.5c-1.5-0.8-167.8,47.8-168.3,48
		c-0.1,0.2-0.2,0.7-0.3,0.9l-0.3,0c-7-22.6-20-56.9-24.2-121.2C0,261.7,0,237.3,1.2,233.8z"/>
	<path class="st2" d="M1269,233.8c5,76.4-23.4,151.3-23.9,154.4c-3-1.5-166.8-48.7-168.7-49c0.5-3.2,8.3-34.8,7.9-38.1
		c0.1-0.5,0-1.6,0.8-1.4c0.1,1,0,1.1,0.1,1.7c2.4-0.5,125.5-46.2,145.6-53.5c-1.5,2.5-0.9,5.5-1,8.3c1.3,31.5-20.9,102.1-21.4,112.7
		c-0.7,7.7,8.1,10,12.1,5.7c2.3-2.5,2.5-6.1,3.4-9.2c8.5-28.8,26.9-92.1,21.9-122.8C1250.8,240.3,1262.6,236.1,1269,233.8z"/>
	<path class="st12" d="M24.4,242.6c5.3,1.6,10.5,3.7,15.7,5.7c1,11-2,19.6,8.4,65.4c2.2,10.1,11.6,46.2,12.3,49.4
		c3.7,18.2-10.7,15.2-12.8,8.9C38.6,343.5,20.1,273.1,24.4,242.6z"/>
	<path class="st12" d="M1230.7,247.9c5-1.8,9.9-3.9,15-5.4c5.9,35.6-23.3,130-25.3,132.1c-3.5,3.8-15.6,4.3-10.9-12.9
		c6.3-22,21.3-81.9,20.3-105.6C1229.8,253.4,1229.2,250.4,1230.7,247.9z"/>
	<path class="st0" d="M524.6,245.8c0,0,56.1,136,56.1,136c0.1,1.2,1.6,0.7-24.9,16.7c0,0-55.7-137.8-55.7-137.8
		C510,254.8,522.1,246.7,524.6,245.8z"/>
	<path class="st1" d="M745.8,245.8c8.2,5,16.3,10.1,24.4,15.3c-32,76.8-55.9,137.5-55.9,137.5c-1.8-1.1-24.1-14.9-25-15.7
		C689.4,380.8,743.3,249.5,745.8,245.8z"/>
	<path class="st13" d="M499.7,260.7l0.3,0c0,0,45.4,111.8,55.8,138.1c-2.7,1-11.6,7.1-14.1,8.5c-35.5-90.8-55.3-138.4-55.3-138.4
		C488.3,268.3,498.1,262.2,499.7,260.7z"/>
	<path class="st14" d="M770.2,261c6.9,4.1,8.9,5.6,13,7.9l0.2,0.3c-18.8,45.8-37.1,91.9-55.1,138c-6.4-3.8-9.5-6.2-13.9-8.4l0-0.3
		C714.3,398.5,738.3,337.8,770.2,261z"/>
	<path class="st15" d="M1089.1,265.8c0.9,3.5,0.2,7.2,0.2,10.7l-0.3-0.2C1089,272.8,1088.8,269.3,1089.1,265.8z"/>
	<path class="st0" d="M486.6,269.3c5,11.6,29,71.2,55.2,138.1c-158.2,98.9-148.4,93.3-149.9,92.9c-2-6.9-51.1-123.2-57.1-135.6
		C335.8,363.1,486.1,269.6,486.6,269.3z"/>
	<path class="st1" d="M783.4,269.3c1.2,0.7,150.7,93.7,152,95.3c-5.1,8.9-57.3,135.3-57.6,135.8c-1.3-0.2-149-92.8-149.5-93.1
		C746.3,361.1,764.6,315.1,783.4,269.3z"/>
	<path class="st0" d="M193.9,339.6c0.1,1.7-0.6-1.4,11.1,50.7c1.8,8.9,10.4,33.5,6.8,58.6c-0.5,0.1-129.1,37.4-131.4,37.9
		c-22.7-24.4-42.9-67-54.9-98.4c0.1-0.2,0.2-0.7,0.3-0.9C26.2,387.4,192.4,338.8,193.9,339.6z"/>
	<path class="st1" d="M1076.4,339.1c2.1,0.4,166.4,47.7,168.5,48.9c-12,31.9-32.6,74.4-55,98.8c-4.5-0.8-1-0.2-131.6-37.8
		C1054.7,423.7,1060.8,412.1,1076.4,339.1z"/>
	<path class="st2" d="M689.5,381.2c-0.1,0.7-0.2,1-0.2,1.6c0.9,0.8,23.1,14.6,25,15.7l0,0.3c-1.1,1.9-38.9,99.2-49.4,127.2
		c-0.7,1.4,0.4,2.7,1.1,3.8c0,0-24.7-15.4-27.6-17.1c-0.4,0.3-0.7,0.6-1,0.9C637.5,513.6,689.5,381.2,689.5,381.2z"/>
	<path class="st2" d="M580.6,381.8l0.2-0.3c0.6,2.8,45.9,116.4,51.1,131c-3.5,1.7-22.5,14.1-25.9,15.9c-1-3.2-43.9-113.8-50.3-129.9
		C582.5,382.4,580.7,383,580.6,381.8z"/>
	<path class="st16" d="M555.8,398.9c6.8,17.2,49.2,126.3,50.2,129.6c-4.4,3.1-9.2,5.8-13.8,8.7c-1.5-1.4-49.9-128.1-50.2-130
		C542.6,406.8,553.7,399.6,555.8,398.9z"/>
	<path class="st16" d="M714.4,398.9c4.5,2.2,8.5,5.2,12.8,7.7c0.4,0.9,0.7,2,0.2,3c-0.6,1.5-48.5,126.3-49.5,127.6
		c-4-2.4-7.9-4.8-11.8-7.4c-2.3-3.6-1.7-1.3,3.8-16.4c3.9-10.7,41.2-106.5,41.3-106.8C712.1,404,713,401.3,714.4,398.9z"/>
	<path class="st2" d="M727.1,406.6c10.8,6.6,149,93.5,150.7,93.8c0.4-0.8,0.8-1.6,1.1-2.4L826,629.9
		c-41.2-25.8-141.5-88.4-148.2-92.7c1-1.3,48.9-126,49.5-127.6C727.9,408.6,727.6,407.6,727.1,406.6z"/>
	<path class="st2" d="M542.1,407.2c0.2,1.7,48.8,128.7,50.2,130c-0.5,0.3-146.7,91.6-148.3,93c-0.3-0.5-49.5-125.5-52.1-129.9
		C393.5,500.6,537,410,542.1,407.2z"/>
	<path class="st2" d="M211.8,449c-3.3,45-67.3,89.8-118.8,49.6c-4.4-3.7-9-7.1-12.6-11.7C82.7,486.4,211.3,449.1,211.8,449z"/>
	<path class="st2" d="M1058.2,449c130.4,37.6,127.1,37,131.6,37.8l0.3,0.2c-1.5,1.5-3.4,2.6-4.8,4.1c-44,47-116,15.5-126.2-36.8
		C1058.8,452.6,1058.2,450.9,1058.2,449z"/>
	<path class="st0" d="M632,512.6c1.4,3.7,48.4,127.6,52.8,139.5c-8.7,5.3-17.3,10.8-26,16.2c-0.8-1.1-52.1-138.2-52.4-140
		C614.1,523.8,628.3,514.4,632,512.6z"/>
	<path class="st1" d="M637.5,513.6c0.3-0.3,0.6-0.6,1-0.9c8.5,5.1,16.8,10.5,25.3,15.7c-0.6,2.9-11.4,30.8-12.7,33.9
		c-6.9-21-13.2-34.3-13.5-35c-0.2-2.7-1.8-5.1-2.1-7.8C636,517.5,637,515.7,637.5,513.6z"/>
	<path class="st17" d="M634.7,520c0.2-0.1,0.6-0.3,0.8-0.4c0.3,2.7,1.9,5.1,2.1,7.8C636.3,525,635.4,522.5,634.7,520z"/>
	<path class="st18" d="M606.4,528.3c0.2,1.2,51.4,138.5,52.4,140c-10.1,6.3-12.4,7.8-14.8,9.2c-5.1-14.2-50.4-136.2-52.5-139.7
		C591.5,537.7,606.4,528.3,606.4,528.3z"/>
	<path class="st19" d="M663.8,528.4c0,0,15,9.3,15,9.3c-0.9,1,0.3-2.6-18.4,47.7l-0.4,0.2c-2.8-7.8-5.9-15.5-8.8-23.2
		C652.3,559.3,663.1,531.4,663.8,528.4z"/>
	<path class="st20" d="M638.4,529.2c1.6,2.4,9.1,22.3,9.4,24.4C646.3,551.1,639,532,638.4,529.2z"/>
	<path class="st0" d="M591.5,537.7c2,3.3,46.3,122.4,52.5,139.7c-0.5,0.3-140.7,88.1-146.1,91.3c-11.9-31.5-50.3-130-53.8-138.6
		C445.6,628.7,591,538,591.5,537.7z"/>
	<path class="st1" d="M678.7,537.7c49,30.8,98.2,61.4,147.3,92.1c0,0,0.5-1.6-53.9,138.9c-64.9-40.5-55.8-33.7-58.4-39.8
		c-33.2-89.9-21.9-59.6-46-122.8c0.1-1.5-7.2-20.2-7.4-20.7C679.1,535.1,677.8,538.7,678.7,537.7z"/>
	<path class="st21" d="M659.9,585.6l0.4-0.2c0.2,0.5,7.5,19.2,7.4,20.7C665.7,602.6,661.1,589.6,659.9,585.6z"/>
	<path class="st22" d="M668,606.9c1.7,2.3,16.5,42.1,17.1,45.1l-0.5,0C678.5,635,668.9,610.7,668,606.9z"/>
	<path class="st2" d="M684.7,652.1l0.5,0c3.2,9.4,3.1,8.1,28.5,76.9c2.6,6.1-6.5-0.7,58.4,39.8c-0.1,0.7-15.8,41-16.4,43.7
		c2.4-0.8,4.1-3.2,6.8-3.3c-5.1,3.3-10.2,6.5-15.3,9.8c-1.9-3.1-5.2-14-24.7-66.2c-4.1,2.4-24.9,15.4-26.7,16.7
		c-0.3-1-36.1-98.4-36.7-99.5c-0.3-0.6-1-0.7-1.5-0.9C658,668.7,675.3,657.9,684.7,652.1z"/>
	<path class="st23" d="M644.8,677c4.3-2.6,8.5-5.4,12.8-8c2.7,0.9,32.8,86,33,86.5c1.5,4.6,3.6,9,5.1,13.6c-1.8,1.7-13.5,8.7-14,9
		C680.8,776.9,644.1,680.1,644.8,677z"/>
	<path class="st2" d="M644.8,677c-0.7,3.3,35.9,99.8,36.9,101.2c0,0-28.5,17.8-33.6,21.1c-18.6,0.3-50.7,0.5-72.3,20.4
		c-3.9,3.5-10,10.7-11,13.7c-2.6,0.8,0.3,0-43.6-27.1c-5.8-3.7-11.7-7.1-17.5-10.7c0.3-0.1,0.8-0.3,1-0.4c1.1,0.7,2,1.6,3.1,2.2
		c0.9-0.5,1.4,0.6-10-28.7C502,766.3,644.7,677,644.8,677z"/>
	<path class="st24" d="M1103.1,692.2c8.4,4.7,11.3,12.5,11.5,13.6c-0.3,0.1-0.9,0.4-1.2,0.5c-0.9,1.8-1.2,3.9-2.1,5.7
		c-21.2,43.2-191.3,110-334.7,122.1c-1.3,0.2-31,3.5-39,3.1c-2.6-0.2-3.1-3.1-4.5-4.8c-0.9-1.2-2.6-2-2.6-3.6
		c4,0.2,9.9-5.9,12.1-6.9c4-1.9,136-93.3,265.7-126.8C1033.9,688.8,1079.7,679.5,1103.1,692.2z"/>
	<path class="st24" d="M521.2,806.3c43.8,27.1,41,27.8,43.6,27.1c-0.2,1.6-1.8,2.5-2.4,4c-0.6,0.8-0.8,2.1-1.8,2.6
		c-6.7,1-112.6-3.9-220.5-39.1c-28-7.3-154.5-55.7-160.8-91.8c-0.1-0.7-0.8-1-1.3-1.4C198.7,655,379,715.7,521.2,806.3z"/>
	<path class="st1" d="M1113.4,706.4c0.3-0.1,0.9-0.4,1.2-0.5c0.8,1.3,22.6,39.2,29.4,67.6c8.2,34.4-1,63.3-23.3,91.3
		c-2.1,1.8-70.9,27.5-180.6,47.2c-2.2,0.4-4.6,0.4-6.7,1.6c1,0.7,1.1,0.9,16.4,0.6c3.6-0.1,7.1,0.8,10.7,0.4
		c5.5-0.7,11-0.3,16.5-0.4c63.3,0.6,132.4-14.2,139-15c2.6-0.4,57.2,65.2-0.9,150c-1.5,2.8-111.3,37-184.5,26.3
		c-46-4.9-91.5-24.3-98.8-28.4c-32.8-14.9-97.9-52.9-103.1-56.2c-0.7-0.3-1.5-1-2.2-0.4c-1.9,1.4-12.5,16.7-41.9,21.3
		c-17.1,2.9-57.7,3.7-81.2-2c-21.6-5-32.5-19.2-33.3-19.8c-4-0.9-7.9,5.9-82.6,45.9c-55.3,28.5-83.7,34.6-122.4,41.4
		c-15.3,3.6-48,2.4-48.5,2.4c-42.2,0.8-134.4-23.8-139.3-27.2c-35.4-51.1-36.7-100.4-3.4-150.8l0.4-0.1c4.7,1.4,56.4,10.3,71,11.5
		c6.5,0.4,38.2,5.7,118.5,3.9c-0.6-0.8-1.4-1.3-2.4-1.4c-103.1-16.9-188.5-47.2-189.7-48c-42.8-50-27.9-102.7,6-159.7
		c4.6,4.2-4.4,22.5,91.9,66.7c85.7,41.3,254.8,71,290.7,65.5c1-0.5,1.2-1.7,1.8-2.6c0.6-1.4,2.2-2.3,2.4-4c1-3.1,7.2-10.3,11-13.7
		c20-18.4,47.7-20.1,72.3-20.4c0.2,0,0.7,0,0.9,0.1c1.6,1.3,3.7,0.8,5.5,0.8c5.1,0,10.2,0.6,15.3,0.2c1.7,0.1,3.4,0.1,5,0.6
		c2.5,0.7,5.2,0.3,7.7,1c2.5,0.6,5,1.4,7.5,1.5c2.7,1.3,5.6,1.9,8.4,3c8.7,2.7,20.9,10.2,23.3,13.3c1.2,1.6,3.4,2,4.4,3.8
		c1.4,1.9,3.1,3.5,4.5,5.4c0.1,1.6,1.8,2.4,2.6,3.6c1.4,1.7,1.9,4.6,4.5,4.8c6.3,0.4,58.3-2.9,135.1-18.3
		c70.4-12.1,218.3-65.5,238.6-106.9C1112.3,710.2,1112.5,708.2,1113.4,706.4 M623.4,823.5c-39.7,3.1-44.9,29.8-47.6,69.1
		c0.1,6-0.9,11.9-0.4,17.9c0.2,0,0.5,0,0.7-0.1c0.1-0.5,9.1-46.3,18.7-58.6c18.4-25,41.5-22.8,49.6-25.2c1.6,0,18.9-1.3,21.3-1.7
		c-0.1-0.1-0.3-0.3-0.4-0.5C661.5,823.3,631.5,822.3,623.4,823.5 M547.2,860.1c-9,5.4-22.6,8-23.3,8.2c-5.4,1.4-7.4,0.2-9.5,2
		c0,0,23.8,4.6,32.9,10.2c0.8,0.5,1.8,1,2.8,0.5c2.9-25.1,4.6-21.8,3-23.7C550.9,857.9,549.1,859.2,547.2,860.1 M745.6,860.8
		c2.2,5.4,1.4,14,3.7,15c0,0,15.5-5.8,23.8-6.9c1.5-0.3,3.1-0.3,4.4-1.1c-1.2-1.1-3.2-0.9-4.7-1.3c-11.7-0.9-25.8-8-26.9-8.1
		C744.8,858.8,745.4,860,745.6,860.8 M544.1,888c-0.7,0.4-7.8,6.1-10,7.4c-29,17.3-60.2,25.2-61.5,25.4c-0.2,0.7,1,0.6,1.4,0.8
		c17.8,4.7,69.3,9.7,76.1,8.8c-1.8-4.2-1.3-41.1-0.8-43.2c0.1-1,0.5-2.3-0.5-3.1C546.9,885.2,545.8,887,544.1,888 M749.3,888.3
		c1.1,10.2-0.4,39.2-0.4,39.2c0.8,1.2,64.2-4.7,70.1-8.6c-1.4-2.3-12.4-3.3-29.3-10.4c-6.5-0.8-29.8-14.6-33-16.5
		c-2.1-1.7-4.3-3.3-6.5-4.7C749.7,887.4,749.4,887.7,749.3,888.3 M729.4,910.7c-1.3,4.9-8.7,45.3-16.1,53.9c-1,1.1-6,9.9-10,12.8
		c-24.3,19.7-53.7,15.7-62.9,17.9c3.2,1.6,39,3.4,51.9-0.2c18.7-3.4,30.3-17.8,33.6-36.4c4-19.3,4.4-40.4,4.2-46.2
		C730.1,911.9,730.2,910.9,729.4,910.7 M546.6,941.6c-0.8,1.4-2.8,6.8-7,12.4c-13,16.8-31.8,30.4-32.4,30.7c-1.3,0.9-3,1.6-3.7,3.1
		c1.4,0.3,2.9-0.1,4.2-0.6c10.6-4.7,35.7-6.2,39-6c5.5-0.3,16.2,2.2,17.1,0.4c-0.4-1.8-9.8-14.4-12.9-42c-0.2-1.4-0.2-2.9-1.3-3.9
		C548.1,937.4,547.7,939.6,546.6,941.6 M743.2,955.1c-0.2,0.5-3,12.1-6.9,19.3c-0.7,1.6-2.1,3.1-1.9,5c0.6,0.4,1.4,0.6,2.1,0.4
		c21.7-4.3,52.3,6.8,54.5,6.9c-0.1-1.4-1.7-2.1-2.7-3c-12.7-8.7-31.5-23.9-38.6-38.2c-0.9-1.4-1.4-3.1-2.9-4
		C745.4,942.7,746.2,944.9,743.2,955.1z"/>
	<path class="st0" d="M722.5,752.8c19,50.9,22.8,63.1,24.7,66.2c-1.4,1.2-2.9,2.1-4.5,2.9c-2.2,1-8.2,7.1-12.1,6.9
		c-1.3-2-3.1-3.5-4.5-5.4c-1.1-1.7-3.2-2.2-4.4-3.8c-1.4-1.8-3.4-2.7-5.1-4.1c-1.7-1.5-3.8-2.3-5.7-3.5
		c-1.2-4.7-14.3-39.1-15.1-42.5C697.6,768.2,718.4,755.1,722.5,752.8z"/>
	<path class="st25" d="M695.7,769.1c1.8,6.2,14.1,38.4,15.3,42.9c-4.1-2.1-8.1-4.2-12.5-5.6c-2.8-1.1-5.7-1.6-8.4-3
		c-0.3-2.1-7.7-22.9-9.2-24.7C682.4,777.6,693.5,771.1,695.7,769.1z"/>
	<path class="st26" d="M648.1,799.2c10.9-6.9,21.9-13.7,32.8-20.5c1.4,1.7,8.9,22.6,9.2,24.7c-2.6,0-5-0.9-7.5-1.5
		c-2.5-0.8-5.2-0.3-7.7-1c-1.6-0.5-3.3-0.5-5-0.6C668.6,798.8,650.7,799.4,648.1,799.2z"/>
	<path class="st27" d="M649,799.3c1.1,0,19.7-0.4,20.8,1c-5.1,0.4-10.2-0.1-15.3-0.2C652.6,800,650.5,800.6,649,799.3z"/>
	<path class="st24" d="M633.6,822.8c4.5,0.5,26.5,0.1,31.7,1.6c0.1,0.1,0.3,0.3,0.4,0.5c-2.4,0.4-19.7,1.7-21.3,1.7
		c-11.6,3.5-45.3-0.8-59.8,49c-2.3,7.3-8.4,34.3-8.4,34.8c-0.2,0-0.5,0-0.7,0.1c-0.8-10.6,0.6-63.4,18.6-76.4
		C607.5,822.5,627,823.6,633.6,822.8z"/>
	<path class="st24" d="M547.2,860.1c1.9-0.9,3.7-2.2,5.8-2.9c1.6,1.8-0.1-1.2-3,23.7c-0.9,0.5-1.9,0-2.8-0.5
		c-9-5.6-32.9-10.2-32.9-10.2c2.1-1.7,12.1-1.7,19.3-4.4C538.2,864.1,542.9,862.6,547.2,860.1z"/>
	<path class="st24" d="M745.6,860.8c-0.2-0.8-0.8-1.9,0.3-2.3c1.3,0.2,15.1,7.2,26.9,8.1c1.5,0.4,3.5,0.2,4.7,1.3
		c-1.3,0.8-2.9,0.8-4.4,1.1c-8.3,1-23.8,6.9-23.8,6.9C747,874.8,747.7,866.1,745.6,860.8z"/>
	<path class="st24" d="M1120,865.3c-2.1,3.3-5,6.1-7.6,9.1c-7.1,8.6-7.3,6.1-5.8,8.6c2.3,2.9,11.4,14.9,12.8,18.4
		c-1.1-0.8-1.8-2.6-3.3-2.3c-5.4,0.7-18.7,3.4-24.1,4.1c-66.7,13.8-156.9,11.4-158.5,10.2c1.4-0.8,39-7.6,39.5-7.7
		c54.8-10.3,97-24.6,120.9-31.5C1094.4,874.2,1115.7,867.5,1120,865.3z"/>
	<path class="st24" d="M172,867.4c0.5,0.3,80.1,30,189.7,48c1,0.1,1.8,0.6,2.4,1.4c-62.3,1.4-92.9-1.6-98.7-1.9
		c-16.1-0.5-82.3-11-90.8-13.5l-0.2-0.4c3.2-4.6,12.1-17,12.1-17C183.5,880.7,173.4,870,172,867.4z"/>
	<path class="st24" d="M548.7,884.2c1.3,1-0.1-1.2,0.1,29.3c0,0.5,0,14.1,1.2,17c-7.3,1-59.2-4.2-76.1-8.8c-0.4-0.3-1.6-0.1-1.4-0.8
		c0.5-0.1,31.6-7.6,61.5-25.4C538.6,892.9,547.9,884.6,548.7,884.2z"/>
	<path class="st24" d="M749.3,888.3c0.1-0.5,0.4-0.9,0.9-1.1c1.6,1,11.5,8.6,22.9,14c1.5,0.5,13.8,6.9,16.6,7.2
		c16.3,6.9,27.9,8.2,29.3,10.4c-5.3,3.5-69.1,10.3-70.1,8.6C748.8,927.5,750.4,898.7,749.3,888.3z"/>
	<path class="st24" d="M729.4,910.7c2.1,0.6,0.3,30.3-3.4,48c-3.4,18.8-15.1,33-33.6,36.4c-12.6,3.5-48.6,1.9-51.9,0.2
		c9.4-2.3,38.4,2,62.9-17.9c4-2.9,9-11.7,10-12.8c3.9-4.5,11.5-29.9,11.9-34.7C726.7,923.5,727.7,917,729.4,910.7z"/>
	<path class="st24" d="M549.6,935.6c1.1,1,1.1,2.5,1.3,3.9c3.1,27.3,12.7,40.9,12.9,42c-1.1,2.2-8.6-1.4-24.4,0.1
		c-9.8-0.3-22.1,2.9-23.6,3.2c-10.4,2.9-10.1,3.6-12.3,3.1c0.3-0.6,14.7-11.7,15.1-12.1c1.6-1.1,2.7-2.9,4.4-3.9
		c1.2-0.7,2-1.9,2.9-2.9C544.1,952.9,546.9,938.9,549.6,935.6z"/>
	<path class="st24" d="M746.8,941.6c1.4,0.9,2,2.6,2.9,4c1.6,3.1,10.9,16.3,14.9,19.1c3.1,3.1,6.8,5.5,9.8,8.6
		c17.2,12.8,16.5,12.3,16.5,13.4c-2.9-0.1-5.5-1.6-8.2-2.4c-15.5-3.8-16-4.2-33-5.3c-12.7-0.2-13.6,1.6-15.4,0.3
		c-0.2-1.9,1.3-3.4,1.9-5c4.1-7.5,6.8-18.8,6.9-19.3C746.2,945,745.4,942.7,746.8,941.6z"/>
	<path class="st24" d="M570.3,989.8c3.1,2.3,13.8,21.2,58.7,23.4c-22,28.4-43.1,53.7-49.7,61.1c0.3-0.9,0.5-1.8,0.7-2.6
		c-4.4,1-189,64.9-243.7,62.6c-0.5,0-37.7,2.9-68-7.2c-1.2-0.4-22.2-6-36.4-12.6c-4.8-1.8-26.6-11.3-34-15.6c-2,0.9-3.4,2.8-5.5,3.5
		c0,0,34.1-30.1,39.2-35c3.7,0.1,53,12.7,85.3,12.1c25.2-0.4,88.6,5.7,201-60.2C565.2,992.9,566.9,989.1,570.3,989.8z"/>
	<path class="st24" d="M726.6,990.4c0.7-0.6,1.5,0.1,2.2,0.4c9.9,6.2,62.9,35.8,62.9,35.8c4.9,4,52.3,27.5,81.1,36.4
		c5.1,1.3,27.2,9.2,58,12.5c56.7,8.3,128.5-10.3,130.3-10.6c1.4,2.6,32.7,29.2,34.8,31.8c-23.4,5.8-57.3,35-130.3,35.1
		c-53.6-0.9-130.5-24.4-133.4-25.5c-17.7-5-106.7-32.3-117.8-36.3c-1-0.5-1.9,0-2.8,0.5c-7.6-8.3-45.8-56.5-46.3-57.1
		c3.8-0.2,4,1.1,19.7-1.6C714,1007.1,724.4,992,726.6,990.4z"/>
	<path class="st2" d="M629,1013.3c12,0.7,24.1,0.7,36.1,0c0,0,20.1,25.7,43.2,53.2c-5.9,4-48.2,30.2-79.2,49.7
		c-0.2,0-0.6-0.1-0.8-0.1c-4.9-16.2,0.6-5.5-50.4-39.5C577.8,1076.6,607.2,1041.4,629,1013.3z"/>
	<path class="st0" d="M708.3,1066.5c32.8,39.3,91.1,100.7,100.8,109.7c-136,85-126.9,79.5-129.1,80.4
		c-37.2-102.2-50.1-135-50.9-140.4C658.2,1097.9,702.6,1070.3,708.3,1066.5z"/>
	<path class="st1" d="M711.4,1070.4c2.3-1.2,1.1-0.9,11.9,2.6c2.2,0.9,17.7,5.2,18.3,5.5c163.3,54.1,205.3,54.2,240.8,53.1
		c54.8-4,101.5-32.1,113.3-35c1.9,0.9,3.3,2.6,4.9,3.8c73.6,60.5,164.9,106.4,164.9,106.4c-148.9,27.5-199.4,6-237,1.3
		c0.5,5.2,40.2,189.9,41.3,197.7c-23-15.4-164.6-136.5-168.4-141.6c-1.6-1.4-3.3-3.3-5.5-3.3c0.2-0.1,0.6-0.4,0.8-0.5
		C893.7,1256.4,802.6,1177.1,711.4,1070.4z"/>
	<path class="st1" d="M580,1071.8c-0.2,0.9-0.5,1.8-0.7,2.6c-0.5,0.7-1.1,1.4-1.4,2.2c14.4,9.6,46.4,28,47.2,30.5
		c4.7,11.9,3.8,13.5,6.2,16.7c1.1,3.6,2.9,6.8,3.7,10.5c-35.5,96.1-43.6,119-45.1,122.2c-2.2-0.7-109.3-68.3-113.6-70.6
		c0,0-28.9,28.3-88.3,83.3c1.5,1.2,3.2,2.1,4.8,3.2c-0.5,1.3-49.9,137.2-52,140.1c-21.6-13.5-19.9-12.3-21.1-13.3
		c0.3-3.1,32.5-95.6,33.1-98.6c-0.5,0.2-124.5,105.3-130.4,107.2c0.7-5,37.4-177.4,41.4-197.5c-0.5,0.1-53,11.9-80.9,11.6
		c-27.9-1.9-59.2,6-155.9-12.9c0.1-0.4,0.3-0.7,0.7-0.9c103.7-54,170.2-109.3,170.2-109.3c133.3,76.5,258.2,5.8,346-15.4
		C581.3,1071.7,580,1071.8,580,1071.8z"/>
	<path class="st28" d="M628.3,1116.1c0.2,0,0.6,0,0.8,0.1c0.4,2.6,1.7,5,2.2,7.7C629.6,1121.6,629,1118.8,628.3,1116.1z"/>
	<path class="st2" d="M809.1,1176.2l31.5,31.2c-1.5-0.7-2.7-2.2-4.4-2.3c0.2,2.2,20,54.6,25.9,72.1c0.4,1.3,1,2.5,2.1,3.3
		c0,0-59.7,37.4-142.8,89.3c-1.6-3.2-38.7-105.8-41.6-112.8l0.1-0.3C682.1,1255.8,672.8,1261.5,809.1,1176.2z"/>
	<path class="st2" d="M476.2,1185.9c4.4,2.3,111.3,69.8,113.6,70.6c1.7-3.7,2.8-7.6,4.3-11.3c0.7,2.6-1.5,4.5-1.9,6.9
		c-0.7,2.6-1.7,5.1-3.3,7.4c0,0.1-40.9,112.6-41,112.6c0.2-0.7,0.4-1.4,0.5-2.2c-3.3-2.2-142.2-89.1-142.7-89.4
		c3.1-2.5,11.4-30.6,14.3-35.9c0.6-1.3,1.6-2.7,0.8-4.1c-2.1,0.8-3.2,3.2-5.4,3.8C415.4,1244.3,476.2,1185.9,476.2,1185.9z"/>
	<path class="st29" d="M836.3,1205.1c1.7,0.2,2.8,1.7,4.4,2.3c1.8,1.5,15.9,15.1,17.1,16.3c0.8,2.5,3.6,3.7,4.5,6.2
		c0.9,2.4,1.2,5,2.3,7.4c0.2,0.5,12.4,32.3,12.5,35c-4.1,2.9-8.6,5.4-12.8,8.2C862.6,1279.1,836.4,1206.1,836.3,1205.1z"/>
	<path class="st24" d="M128.3,1222c4-0.2,50.7-0.3,54.5,0C175.5,1223.2,135.5,1222.9,128.3,1222z"/>
	<path class="st30" d="M138,1222.6c5.6-0.2,11.2-0.1,16.8,0.3C150.6,1223.3,138.8,1222.8,138,1222.6z"/>
	<path class="st2" d="M857.8,1223.8c0.5,0.4,38.6,35.8,39.1,36.4c-2,1.4-17.8,10.9-19.5,12.4l-0.1-0.3c-0.2-2.6-5-14.1-8.1-23.4
		c-5.3-13.4-6.7-19-6.7-19C861.4,1227.4,858.6,1226.3,857.8,1223.8z"/>
	<path class="st29" d="M415.4,1244.3c2.2-0.7,3.3-3,5.4-3.8c0.8,1.4-0.2,2.8-0.8,4.1c-3,5.4-11.2,33.4-14.3,35.9
		c-1.9-1.1-16.3-10-17.8-11.2C388.4,1268.8,413.5,1245.7,415.4,1244.3z"/>
	<path class="st0" d="M896.1,1260.7c2.3,0,4,1.9,5.5,3.3c1.3,1.8,3.2,2.9,4.6,4.5c0.2,0.5,43.3,127.7,44.2,130
		c-0.4,1.3,0.1,0.9-21.4,14.1c-2.5-5.3-47.4-127.6-51.7-140C878.8,1271.3,895.6,1261,896.1,1260.7z"/>
	<path class="st30" d="M392.8,1272.5c0,0,13.9,8.6,13.9,8.6c-1.6,1.5-29.3,79.2-52.5,139.8c-1.1-0.6-2.2-1.2-3.3-1.7
		c-1.4-1.2-9.6-6.3-10.1-6.6C342.8,1409.8,391.9,1275,392.8,1272.5z"/>
	<path class="st31" d="M877.2,1272.3c0,0,18.5,50.9,18.9,52.1c0,1.5,0.3,3,0.1,4.5c-1.7,0.3-9.5,4.5-12.9,4.6
		c-18.2-47.8-17.7-49.6-19.8-52.4C863.5,1281,873.9,1274.6,877.2,1272.3z"/>
	<path class="st1" d="M406.7,1281.1c48.3,30.3,135.8,84.8,141.8,88.8c-0.2,1.4-50.2,139.2-50.9,140.6
		c-15.9-9.9-133.2-83.1-143.4-89.7C378.1,1358.4,405,1282.7,406.7,1281.1z"/>
	<path class="st0" d="M721.5,1369.7c47.3-29.5,94.6-59.1,141.9-88.7c1.1,1.4,51.8,138.6,52,140c-16.1,10.1-132.7,83-143.2,89.5
		C730.8,1395.1,721.7,1371.7,721.5,1369.7z"/>
	<path class="st32" d="M896.1,1324.4c2.1,4.8,30.5,83,33,88.2c-0.5,0.3-10.8,6.6-13.2,8.6l-0.3-0.2c-0.6-3.5-12.4-32.9-32.2-87.6
		c3.3,0,11.2-4.3,12.9-4.6C896.4,1327.4,896.1,1325.9,896.1,1324.4z"/>
	<path class="st2" d="M320.9,1395c-0.4,1.4-1,2.8-1.2,4.3c1.8,1.5,22.1,13.7,25.4,16.1c-1.3-0.5-2.6-1.1-3.9-1.5
		c-2.4,1.8-7.3,19.3-10.5,26.4c-4.3,9.7,4.5,14,9.2,11.6c4.7-1.8,4.5-6.2,8.8-15.9c1.6-4.5,3.4-8.9,5-13.4c-0.3-1.6-2.1-2.2-2.8-3.5
		c3,1.3,96.7,60.3,146.7,91.3c1.2-2.5,1.9-5.2,3-7.8c1,1.2-2.5,8-3.3,9.4c-1.1,2.6-13.5,37.6-14.9,40.6
		c-51.3,85.5-184.5,45.7-193.6-42.6c-0.5-26.2,2.1-25.2,28.9-105.6C320.1,1397.2,319,1396.3,320.9,1395z"/>
	<path class="st2" d="M950.5,1398.5c0,0-1.1-2.9,20.5,61.9c3.9,12.6,9.3,19.8,10.5,42.9c0.1,77-95.9,115.2-150.1,88.5
		c-41-16.9-48-50.9-59.1-81.2c11-6.7,127.8-79.8,143.2-89.5l0.3,0.2c3.1,9.1,6.9,17.8,10.2,26.8c3.3,8.6,15.3,4.2,14.5-3.8
		c-1.1-4.6-10.6-29.2-10.6-29.2c-0.1-0.9-1.1-1.3-1.8-1.7C932,1410.4,949.7,1400.7,950.5,1398.5z"/>
	<path class="st33" d="M915.8,1421.2c3.8-3,8.2-5.2,12.3-8c0.7,0.4,1.6,0.8,1.8,1.7c0,0.1,9.6,24.7,10.6,29.2
		c0.8,7.9-11.2,12.4-14.5,3.8C922.7,1439,918.9,1430.3,915.8,1421.2z"/>
	<path class="st34" d="M341.2,1413.9c3.5,1.2,7,2.9,9.7,5.2c0.7,1.3,2.5,2,2.8,3.5c-1.6,4.5-3.4,8.9-5,13.4
		c-4.2,9.6-4.1,14.1-8.8,15.9c-4.7,2.3-13.4-1.9-9.2-11.6C333.9,1433.3,338.9,1415.7,341.2,1413.9z"/>
</g>
</svg>
