<?xml version="1.0" encoding="utf-8"?>
<!-- Generator: Adobe Illustrator 22.0.1, SVG Export Plug-In . SVG Version: 6.00 Build 0)  -->
<svg version="1.1" id="Layer_1" xmlns="http://www.w3.org/2000/svg" xmlns:xlink="http://www.w3.org/1999/xlink" x="0px" y="0px"
	 viewBox="0 0 632.4 1092.7" style="enable-background:new 0 0 632.4 1092.7;" xml:space="preserve">
<style type="text/css">
	.st0{fill:url(#SVGID_1_);}
	.st1{fill:url(#SVGID_2_);}
	.st2{fill:url(#SVGID_3_);}
	.st3{fill:url(#SVGID_4_);}
	.st4{fill:url(#SVGID_5_);}
	.st5{fill:#E5E7E8;}
	.st6{fill:url(#SVGID_6_);}
	.st7{opacity:0.24;fill:#FFE4CC;}
	.st8{fill:#FFFFFF;}
	.st9{fill:url(#SVGID_7_);}
	.st10{fill:url(#SVGID_8_);}
	.st11{fill:url(#SVGID_9_);}
	.st12{fill:url(#SVGID_10_);}
	.st13{fill:#95E8A0;}
	.st14{opacity:0.11;fill:#DFFFE2;}
	.st15{fill:url(#SVGID_11_);}
	.st16{fill:url(#SVGID_12_);}
	.st17{fill:url(#SVGID_13_);}
	.st18{fill:#F79D98;}
	.st19{fill:url(#SVGID_14_);}
	.st20{fill:url(#SVGID_15_);}
	.st21{opacity:0.11;fill:#FFE4CC;}
</style>
<g>
	<g>
		
			<linearGradient id="SVGID_1_" gradientUnits="userSpaceOnUse" x1="798.8047" y1="710.8362" x2="1039.6101" y2="951.6415" gradientTransform="matrix(0.9547 -0.2974 0.2974 0.9547 -751.7367 -306.6134)">
			<stop  offset="0" style="stop-color:#FF3324"/>
			<stop  offset="1" style="stop-color:#861829"/>
		</linearGradient>
		<path class="st0" d="M484.9,78.5c0,1.1,0,2.1-0.1,3.1c-1.2,12.2-11.7,24.2-24.3,27.8c-6.7,2-14.1,1.6-21-2.4
			c-14-8.1-15.4-25.8-24.1-38.5c-3-4.4-7.1-8.2-11.8-11.3c-8.3-5.3-18.6-8.2-29.1-7.8c-1.2,0-2.3,0.1-3.5,0.2
			c-15.4,1.5-30.3,9.8-38.7,21.7c-1.7,2.4-3.2,5-4.4,7.6c-6.1,13-6.1,27.7-4.7,41.7c0.1,0.9,0.2,1.8,0.3,2.6
			c2.6,24.4,7.6,48.2,14.2,71.5c4.6,16.3,10.1,32.3,16.2,48.2c11.6,30.4,25.4,60.2,39.9,89.7c8.5,17.3,17.2,34.5,25.8,51.6
			c5.5,11,11,22,16.4,33c5.9,12.1,11.3,27.1,1.9,38.2c-9.1,10.7-28.1,10.9-39.9,3.7c-6.9-4.2-12-10.1-16.2-16.6
			c-2.9-4.6-5.4-9.4-7.8-14.2c-11.5-23.1-22.5-46.3-33.3-69.7c-10.1-21.8-20-43.7-29.8-65.6c-3-6.6-5.9-13.2-8.9-19.8
			c-9.4-21-18.8-42.1-26.9-63.7c-8.1-21.6-14.8-43.5-18.6-66c-1.5-8.5-2.5-17.1-3.1-25.8c-1.2-18.5,0.2-38.2,7.5-55.9
			c3.6-8.9,8.7-17.3,15.7-24.8c3.9-4.2,8.3-7.9,13-11.3c13.4-9.5,29.6-16,45.9-20.2c5.8-1.5,11.8-2.7,17.8-3.7
			c18.8-2.9,38-2.8,55.5,1.4c8.5,2,16.6,5,24.1,9C454.3,23.9,484,54.5,484.9,78.5z"/>
		
			<linearGradient id="SVGID_2_" gradientUnits="userSpaceOnUse" x1="826.0355" y1="791.6062" x2="892.0898" y2="791.6062" gradientTransform="matrix(0.9547 -0.2974 0.2974 0.9547 -751.7367 -306.6134)">
			<stop  offset="0" style="stop-color:#E5E7E8"/>
			<stop  offset="1" style="stop-color:#FFFFFF"/>
		</linearGradient>
		<path class="st1" d="M353.8,242.9c-27.6-2.2-51.4-24.1-78.7-33.3c-8.1-21.6-14.8-43.5-18.6-66c24.7,18.9,54.7,33.4,81.2,51.1
			C342.3,211,347.8,227,353.8,242.9z"/>
		
			<linearGradient id="SVGID_3_" gradientUnits="userSpaceOnUse" x1="857.1487" y1="677.3337" x2="916.1442" y2="677.3337" gradientTransform="matrix(0.9547 -0.2974 0.2974 0.9547 -751.7367 -306.6134)">
			<stop  offset="0" style="stop-color:#E5E7E8"/>
			<stop  offset="1" style="stop-color:#FFFFFF"/>
		</linearGradient>
		<path class="st2" d="M327.9,78.9c-6.1,13-6.1,27.7-4.7,41.7c-7.6-4.8-14.5-11.2-20.7-17.3c-13.9-13.8-27.8-27.5-41.6-41.3
			c3.6-8.9,8.7-17.3,15.7-24.8c3.9-4.2,8.3-7.9,13-11.3c1.9,5.2,4.6,10.3,7.6,15C305.8,54.3,317.3,66.4,327.9,78.9z"/>
		
			<linearGradient id="SVGID_4_" gradientUnits="userSpaceOnUse" x1="836.136" y1="948.2944" x2="912.8057" y2="948.2944" gradientTransform="matrix(0.9547 -0.2974 0.2974 0.9547 -751.7367 -306.6134)">
			<stop  offset="0" style="stop-color:#E5E7E8"/>
			<stop  offset="1" style="stop-color:#FFFFFF"/>
		</linearGradient>
		<path class="st3" d="M419.6,384.2c-27.5-5.6-54-14.3-78.9-25.6c-10.1-21.8-20-43.7-29.8-65.6c19.3,14,41.1,25.4,64.6,33.5
			c6,2.1,12.2,4,18.3,6C402.2,349.9,410.9,367.1,419.6,384.2z"/>
		
			<linearGradient id="SVGID_5_" gradientUnits="userSpaceOnUse" x1="963.2428" y1="657.1878" x2="1015.8578" y2="657.1878" gradientTransform="matrix(0.9547 -0.2974 0.2974 0.9547 -751.7367 -306.6134)">
			<stop  offset="0" style="stop-color:#E5E7E8"/>
			<stop  offset="1" style="stop-color:#FFFFFF"/>
		</linearGradient>
		<path class="st4" d="M408.8,3.4c0.3,17.9-1.4,36-5.2,53.9c-8.3-5.3-18.6-8.2-29.1-7.8c-1.2,0-2.3,0.1-3.5,0.2
			c-4.1-15.1-9.5-29.8-16-44.1c-0.6-1.2-1.1-2.4-1.7-3.6C372.1-0.9,391.3-0.8,408.8,3.4z"/>
		<path class="st5" d="M460.5,109.5c-6.7,2-14.1,1.6-21-2.4c-14-8.1-15.4-25.8-24.1-38.5c-8.3-12.2-24.4-19.7-40.9-19.1
			c-16.6,0.6-33.1,9.1-42.2,21.9c-11,15.4-10.7,34.4-8.9,51.9c11.2,104.9,66,199.1,112.5,294.1c5.9,12.1,11.3,27.1,1.9,38.2
			c-9.1,10.7-28.1,10.9-39.9,3.7c-6.9-4.2-12-10.1-16.2-16.6c4.3-4.3,7.5-9.1,8.7-14.6c4.8-21.1-4.6-41.6-13.7-60.8
			c-33.8-71-65.1-144.2-74.4-222c-3.3-27.6-3.1-57.8,14.8-81.8c14.9-20.1,41.7-33.1,68-33.1c26.3,0,51.2,13,63.3,33
			C456.8,77.1,459.1,93.3,460.5,109.5z"/>
	</g>
	<g>
		
			<linearGradient id="SVGID_6_" gradientUnits="userSpaceOnUse" x1="4.5942" y1="711.8425" x2="635.0079" y2="711.8425" gradientTransform="matrix(0.9704 -0.2414 0.2414 0.9704 -171.5887 105.6027)">
			<stop  offset="0" style="stop-color:#FF3324"/>
			<stop  offset="1" style="stop-color:#861829"/>
		</linearGradient>
		<path class="st6" d="M621.9,768.5c-9.4,18.7-24.9,34.5-39.1,51c-1.4,1.6-2.8,3.2-4.1,4.8c-2.3,2.7-4.5,5.5-6.7,8.3
			c-9.9,12.6-18.8,25.7-27.3,39.1c-25.2,39.7-46.7,81.4-78.6,117.2c-0.8,0.9-1.7,1.9-2.6,2.8c-3,3.3-6.1,6.5-9.3,9.7
			c-28.7,28.2-64.2,50.9-103,66.5c-53.3,21.6-112.5,30-168,21.7c-10.7-1.6-21.3-3.8-31.7-6.7c-31.8-8.8-62.1-23.8-80.5-48
			c-0.5-0.6-1-1.3-1.4-1.9c0,0,0,0,0,0c-14.7-20.5-19.4-47.8-9.2-71.3c1.5-3.5,3.3-6.9,5.5-10.1c0.3-0.5,0.7-1,1-1.5
			c21.3-30.2,63.2-40.7,98.5-58.8c2.4-1.2,4.8-2.5,7.2-3.9c3-1.7,5.9-3.5,8.8-5.3c2.5-1.6,4.9-3.3,7.3-5.1
			c32.9-24.9,47.8-64.5,47.8-101.5c0-17.7-3-34.9-7.6-51.8c-0.9-3.2-1.8-6.3-2.8-9.5c-4.8-15.3-10.8-30.3-17.1-45
			c-3.7-8.7-7.5-17.4-11.4-26c-1.7-3.7-3.4-7.4-5.1-11c-9.1-19.5-18.6-38.7-28.6-57.8c-1.6-3.1-3.3-6.2-4.9-9.3
			c-7.7-14.4-15.7-28.8-23.9-43c-33.7-58.6,11.1-54.7,67.5-62.4c24.9-3.4,49.6-9.1,73.5-16.9l0,0c25.3-8.2,49.8-18.8,73-31.5
			c3.2-1.8,9.2-5.2,16.8-9.9c34-20.7,100-64.4,94.6-81.6c9.7,30.8,19.5,61.7,30.2,92.3c1.1,3.2,2.2,6.4,3.4,9.5
			c11,30.6,23,60.9,36.9,90.3l0,0c1.3,2.8,2.6,5.5,4,8.2c9.5,19.5,19.9,38.5,31.5,57c0.4,0.6,0.7,1.1,1.1,1.7
			c5.6,8.9,11.5,17.8,17.4,26.6c1.9,2.8,3.7,5.7,5.6,8.5c11.4,17.4,22.2,35,30.1,53.9C633.9,699.5,638.1,736.3,621.9,768.5z"/>
		<path class="st7" d="M276.1,442.6c-0.8,6.9-2.6,13.8-6.8,19.8c-21.9,31.7-80,13.2-113.6,35.5c27.2,37.8,54.4,75.6,81.7,113.4
			c16.1,22.4,32.4,44.9,44,69.6c23.3,49.6,26.5,108.4,3.3,160.7c-23.3,52.3-74.3,96.9-135.2,111.8c-24.9,6.1-54.3,9.2-69.2,28.4
			c-6.3,8.2-8.8,18.1-10.4,27.8c-1.1,6.4-0.7,14.7-0.3,23.2c-17.2-24-20.7-57.4-2.6-82.9c22.8-32.3,69.1-42,105.7-62.7
			c5.6-3.2,11-6.6,16.1-10.4c32.9-24.9,47.8-64.5,47.8-101.5c0-37.1-13.1-72.4-27.5-106.3c-21.4-50.5-46.4-99.4-73.9-147.2
			c-33.7-58.6,11.1-54.7,67.5-62.4C227.5,456.1,252.1,450.4,276.1,442.6z"/>
		<path class="st8" d="M494.1,421.5c-0.1,0-0.1,0.1-0.2,0.1c-13.7,8.9-20.4,23.8-27.5,39.5c-8.1,17.9-16.4,36.4-36.1,46.1
			c-15.3,7.6-32.1,6.9-48.3,6.3c-14.1-0.5-27.3-1-39.3,3.5c-15.5,5.9-27,19.8-38.1,33.2c-14.3,17.4-29.1,35.3-53.4,37.6
			c-12.5,1.2-23.7-2.5-34.6-6.1c-2.3-0.8-4.7-1.5-7-2.3c-15.6-4.8-31.3-6.5-45.7-5.2c-1.6-3.1-3.3-6.2-4.9-9.3
			c17.3-2.2,36.2-0.6,54.9,5.1c2.4,0.7,4.9,1.5,7.3,2.3c10.2,3.3,19.8,6.5,29.7,5.6c19.1-1.8,31.6-17,45-33.2
			c12.1-14.6,24.5-29.8,43.1-36.8c14.3-5.4,29.6-4.9,44.3-4.3c15.3,0.6,29.8,1.1,42.2-5c15.9-7.9,23.1-23.8,30.8-40.7
			c7.4-16.4,15.1-33.4,31.6-44.2c1-0.7,2-1.3,3-1.9C491.8,415.1,492.9,418.3,494.1,421.5z"/>
		<g>
			<g>
				<path class="st8" d="M200.2,636.1c0.5,1.7,0.1,3.4-0.7,4.8c-0.5,0.8-1.2,1.6-2,2.2c-1.7-3.7-3.4-7.4-5.1-11
					c1.6-0.3,3.1-0.2,4.4,0.4C198.5,633.2,199.7,634.5,200.2,636.1z"/>
			</g>
			<g>
				<path class="st8" d="M222.6,632.8c-0.1,3.5-3.2,6.4-6.7,6.7c-1.8,0.2-3.5-0.3-4.8-1.3c-1.3-0.9-2.3-2.3-2.5-4
					c-0.3-1.7,0.3-3.4,1.5-4.7c1.2-1.3,3.1-2.3,5.1-2.5C219.4,626.7,222.7,629.4,222.6,632.8z"/>
			</g>
			<g>
				<path class="st8" d="M245,633.4c-0.6,3.5-4.1,6-7.8,5.9c-1.9-0.1-3.5-0.8-4.6-2c-1.1-1.2-1.7-2.8-1.6-4.5
					c0.2-1.7,1.1-3.3,2.5-4.4c1.4-1.1,3.3-1.8,5.3-1.6C242.8,626.9,245.6,629.9,245,633.4z"/>
			</g>
			<g>
				<path class="st8" d="M267.3,635c-0.5,3.5-4.1,6.1-8,5.8c-3.9-0.3-6.5-3.4-5.9-6.8c0.6-3.5,4.2-6,8-5.7
					C265.2,628.6,267.8,631.6,267.3,635z"/>
			</g>
			<g>
				<path class="st8" d="M289.8,635.1c0,1.7-0.7,3.3-2.1,4.6c-1.3,1.2-3.2,2-5.3,2c-2.1,0-3.9-0.7-5.1-1.8c-1.2-1.2-1.8-2.8-1.6-4.5
					c0.2-1.7,1.1-3.3,2.5-4.4c1.3-1.1,3-1.8,4.9-1.8c1.8-0.1,3.5,0.6,4.7,1.7C288.9,631.9,289.7,633.4,289.8,635.1z"/>
			</g>
			<g>
				<path class="st8" d="M312,631.2c0.5,1.6,0.2,3.3-0.8,4.8c-0.5,0.7-1.2,1.4-2,1.9c-0.8,0.5-1.8,0.9-2.8,1.1
					c-0.5,0.1-1,0.2-1.5,0.2c-0.5,0-1,0-1.5-0.1c-1-0.1-1.8-0.5-2.6-0.9c-1.5-0.9-2.5-2.3-2.7-4c-0.2-1.7,0.4-3.3,1.4-4.7
					c0.5-0.7,1.1-1.2,1.9-1.7c0.4-0.2,0.7-0.4,1.1-0.6c0.4-0.2,0.8-0.3,1.3-0.4c0.9-0.2,1.7-0.2,2.6-0.1c0.8,0.1,1.6,0.3,2.4,0.7
					C310.3,628.2,311.5,629.5,312,631.2z"/>
			</g>
			<g>
				<path class="st8" d="M332,621.2c1.2,1.3,1.7,3,1.4,4.6c-0.2,0.8-0.6,1.6-1.2,2.4c-0.3,0.4-0.6,0.8-1,1.1
					c-0.4,0.3-0.8,0.6-1.3,0.9c-1,0.5-2,0.9-3,1.1c-1,0.2-2,0.1-2.9-0.1c-1.8-0.4-3.2-1.4-4-3c-0.8-1.5-0.8-3.3-0.3-4.8
					c0.3-0.8,0.6-1.4,1.1-2c0.5-0.6,1.1-1.2,1.8-1.6c0.4-0.2,0.8-0.4,1.1-0.5c0.4-0.1,0.8-0.3,1.2-0.3c0.8-0.1,1.6-0.1,2.5,0
					C329.1,619.2,330.8,619.9,332,621.2z"/>
			</g>
			<g>
				<path class="st8" d="M345.5,604.7c1.8,0.6,3,1.9,3.6,3.4c0.3,0.8,0.3,1.6,0.2,2.5c-0.2,0.9-0.5,1.8-1.1,2.6
					c-1.2,1.7-3,2.9-4.9,3.3c-1.9,0.4-3.8,0-5.3-1c-1.5-1-2.4-2.5-2.7-3.9c-0.3-1.5-0.1-2.9,0.7-4.2c0.4-0.7,1-1.2,1.7-1.7
					c0.7-0.5,1.5-0.9,2.3-1.1C341.8,604.1,343.8,604,345.5,604.7z"/>
			</g>
			<g>
				<path class="st8" d="M354.8,586c1.7,0.7,2.9,2,3.5,3.4c0.3,0.7,0.5,1.5,0.4,2.2c0,0.8-0.2,1.5-0.6,2.3c-1.5,3.1-5.6,4.8-9.3,3.7
					c-3.6-1.2-5.4-4.7-3.7-8.1c0.4-0.8,1-1.6,1.7-2.2c0.7-0.6,1.6-1.1,2.4-1.4C351.2,585.2,353.1,585.3,354.8,586z"/>
			</g>
			<g>
				<path class="st8" d="M369.5,570.3c1.1,1.3,1.5,3,1.4,4.5c-0.1,1.6-0.7,3-1.9,4c-1.1,1.1-2.8,1.7-4.5,1.8
					c-1.7,0.2-3.5-0.1-5.1-1.1c-1.6-1-2.5-2.4-2.6-4.2c-0.1-1.7,0.8-3.5,2.3-5c1.6-1.4,3.7-2.2,5.6-2.2
					C366.7,568.2,368.4,569,369.5,570.3z"/>
			</g>
			<g>
				<path class="st8" d="M389.9,560.8c0.5,1.6,0.2,3.4-0.5,4.8c-0.4,0.7-0.9,1.4-1.5,1.9c-0.6,0.5-1.3,1-2.1,1.3
					c-0.8,0.3-1.7,0.5-2.5,0.5c-0.8,0-1.6-0.1-2.4-0.3c-1.6-0.5-3.1-1.5-4-3c-0.9-1.5-1-3.2-0.2-4.8c0.4-0.8,0.9-1.6,1.6-2.2
					c0.7-0.6,1.6-1.2,2.6-1.6c1-0.4,2-0.6,3-0.6c1,0,1.9,0.2,2.8,0.5C388.2,558,389.4,559.2,389.9,560.8z"/>
			</g>
			<g>
				<path class="st8" d="M412.1,556.4c0.3,3.4-2.5,6.6-6.1,7.2c-1.8,0.3-3.6-0.1-5-0.9c-1.4-0.8-2.5-2.2-2.8-3.9
					c-0.4-1.7,0.1-3.4,1.2-4.8c1.1-1.4,2.8-2.4,4.9-2.7C408.3,550.6,411.8,552.9,412.1,556.4z"/>
			</g>
			<g>
				<path class="st8" d="M434.6,554.2c0.1,3.5-3,6.5-6.8,6.8c-3.8,0.3-7.1-2.2-7.3-5.6c-0.2-3.5,2.8-6.6,6.8-6.9
					C431.3,548.2,434.5,550.7,434.6,554.2z"/>
			</g>
			<g>
				<path class="st8" d="M457.2,552.2c0.2,3.5-2.8,6.6-6.8,6.9c-3.9,0.3-7.2-2.2-7.3-5.7c-0.1-3.5,3-6.5,6.8-6.8
					C453.7,546.3,456.9,548.8,457.2,552.2z"/>
			</g>
			<g>
				<path class="st8" d="M479.6,548.8c0.4,1.7-0.1,3.4-1.2,4.8c-1.1,1.4-2.8,2.4-4.8,2.8c-2,0.3-3.9-0.1-5.4-1
					c-1.4-0.9-2.4-2.4-2.6-4.1c-0.2-1.7,0.5-3.4,1.6-4.7c1.1-1.3,2.7-2.3,4.5-2.6c1.8-0.3,3.6,0,5,0.9
					C478.1,545.8,479.2,547.1,479.6,548.8z"/>
			</g>
			<g>
				<path class="st8" d="M501,541.8c0.8,1.5,0.9,3.2,0.1,4.8c-0.7,1.6-2.3,2.9-4.3,3.7c-2,0.8-4.1,0.6-5.7,0
					c-1.6-0.6-2.9-1.9-3.4-3.6c-0.5-1.7-0.2-3.3,0.6-4.8c0.8-1.5,2.1-2.6,3.8-3.2c1.6-0.7,3.4-0.6,5-0.1
					C498.7,539.2,500.2,540.3,501,541.8z"/>
			</g>
			<g>
				<path class="st8" d="M519.2,529.2c1.4,1.1,2.2,2.6,2.1,4.3c0,0.8-0.3,1.7-0.7,2.6c-0.5,0.8-1.1,1.6-2,2.2
					c-0.8,0.7-1.8,1.2-2.7,1.5c-1,0.3-2,0.4-2.9,0.3c-1.9-0.1-3.5-0.9-4.6-2.3c-1.1-1.4-1.4-3.1-1.2-4.6c0.1-0.8,0.4-1.5,0.8-2.1
					c0.4-0.7,0.8-1.3,1.5-1.8c0.7-0.5,1.4-0.9,2.2-1.1c0.8-0.3,1.6-0.4,2.5-0.4C516,527.6,517.8,528.1,519.2,529.2z"/>
			</g>
			<g>
				<path class="st8" d="M532.1,512.2c1.7,0.8,2.8,2.1,3.3,3.6c0.2,0.8,0.3,1.6,0.1,2.4c-0.2,0.8-0.5,1.7-1,2.5
					c-1.1,1.6-2.8,2.7-4.6,3.1c-1.8,0.4-3.7,0.2-5.3-0.7c-1.6-0.9-2.5-2.3-2.9-3.9c-0.4-1.5-0.1-3.1,0.9-4.5
					c0.5-0.7,1.1-1.3,1.8-1.8c0.7-0.5,1.5-0.9,2.4-1.1C528.5,511.3,530.4,511.4,532.1,512.2z"/>
			</g>
		</g>
		<path class="st8" d="M590.5,613.8c-20.1,17.1-41.7,31.1-68.7,30.5c-9.7-0.2-18.7-2.5-27.4-4.6c-5.1-1.3-10-2.5-15-3.3
			c-27.5-4.5-57.7,3.6-79.1,21.3c-7.9,6.6-15,14.7-21.7,22.5c-11.2,12.9-22.8,26.3-39.6,34.4c-21.5,10.4-45.1,9.3-67.9,8.2
			c-13.5-0.6-27.5-1.3-40.7,0.6c-0.6,0.1-1.1,0.2-1.7,0.3c-0.9-3.2-1.8-6.3-2.8-9.5c1.1-0.2,2.3-0.4,3.5-0.5c14.3-2,28.9-1.3,43-0.7
			c22.2,1,43.3,2,61.8-7c14.5-7,24.8-18.9,35.8-31.5c7.1-8.2,14.4-16.6,23.1-23.8c24-19.9,58.2-29.1,89.1-24
			c5.5,0.9,10.8,2.2,15.9,3.5c8.5,2.1,16.5,4.1,24.8,4.3c23.6,0.5,42.9-12.5,62.1-29.1C586.8,608.2,588.7,611,590.5,613.8z"/>
		<g>
			<g>
				<path class="st8" d="M246.7,803.7c1.2,1.3,1.6,3,1.2,4.6c-0.3,1.6-1.4,3.2-3.1,4.3c-1.7,1.1-3.7,1.5-5.6,1.3
					c-1.8-0.2-3.4-1.1-4.5-2.5c-1-1.4-1.2-3.1-0.9-4.7c0.4-1.6,1.4-3,2.9-4.1c1.6-1,3.4-1.4,5.2-1.3
					C243.8,801.6,245.5,802.4,246.7,803.7z"/>
			</g>
			<g>
				<path class="st8" d="M264.8,790.2c2.4,2.6,1.9,6.6-1.2,8.9c-3.1,2.4-7.7,2.2-10-0.4c-2.4-2.6-1.8-6.6,1.3-8.9
					C257.9,787.5,262.4,787.6,264.8,790.2z"/>
			</g>
			<g>
				<path class="st8" d="M283.4,777.2c1.1,1.4,1.4,3.1,1,4.6c-0.3,1.6-1.3,3.1-2.9,4.1c-3.1,2.1-7.5,1.8-9.9-0.8
					c-2.4-2.6-1.7-6.7,1.7-9c1.7-1.1,3.7-1.6,5.5-1.4C280.7,775,282.3,775.8,283.4,777.2z"/>
			</g>
			<g>
				<path class="st8" d="M303.9,767c0.6,1.6,0.4,3.3-0.3,4.8c-0.7,1.5-1.9,2.7-3.5,3.5c-1.7,0.7-3.5,0.9-5.1,0.4
					c-1.7-0.4-3.2-1.4-4.2-2.8c-0.9-1.5-1.1-3.2-0.4-4.8c0.6-1.6,2-3.1,4-4c2-0.9,4.1-1,5.9-0.5C301.9,764.2,303.3,765.4,303.9,767z
					"/>
			</g>
			<g>
				<path class="st8" d="M326.5,763.3c-0.2,1.7-1.1,3.3-2.3,4.4c-1.2,1.1-2.8,2-4.5,2.1c-0.9,0.1-1.7,0-2.5-0.2
					c-0.8-0.2-1.5-0.6-2.2-1c-1.3-0.9-2.4-2.2-2.8-3.9c-0.3-1.7,0.2-3.4,1.4-4.8c0.6-0.7,1.4-1.3,2.3-1.7c0.9-0.4,2-0.8,3.1-0.9
					c2.2-0.1,4.3,0.4,5.6,1.5C326,760,326.7,761.6,326.5,763.3z"/>
			</g>
			<g>
				<path class="st8" d="M348.9,766.5c-1.1,3.4-5.1,5.5-8.8,4.8c-1.8-0.3-3.3-1.3-4.2-2.6c-0.9-1.3-1.3-2.9-0.9-4.7
					c0.4-1.7,1.6-3.2,3.2-4.1c1.6-0.9,3.7-1.3,5.6-0.9C347.8,759.7,350,763.1,348.9,766.5z"/>
			</g>
			<g>
				<path class="st8" d="M371.2,769.7c-0.2,1.7-1.2,3.3-2.8,4.3c-1.5,1.1-3.6,1.6-5.7,1.4c-4.3-0.5-6.6-3.9-5.6-7.3
					c1-3.4,4.8-5.6,8.4-5.2c1.8,0.2,3.2,1,4.3,2.2C370.9,766.4,371.4,768,371.2,769.7z"/>
			</g>
			<g>
				<path class="st8" d="M394.1,767.6c0.3,1.7-0.2,3.4-1.3,4.8c-0.6,0.7-1.3,1.3-2.2,1.7c-0.9,0.5-1.9,0.8-2.9,1
					c-2.1,0.3-4.1-0.2-5.6-1.2c-1.4-1-2.3-2.6-2.3-4.3c0-1.7,0.8-3.3,1.9-4.6c1.2-1.3,2.8-2.1,4.6-2.4c0.9-0.1,1.8-0.1,2.6,0.1
					c0.8,0.2,1.6,0.5,2.3,0.9C392.7,764.5,393.8,765.9,394.1,767.6z"/>
			</g>
			<g>
				<path class="st8" d="M416.1,760.7c0.7,1.6,0.6,3.3-0.2,4.8c-0.8,1.5-2.3,2.8-4.3,3.5c-4,1.4-8.2-0.3-9.1-3.6
					c-1-3.3,1.1-6.8,4.6-8c1.8-0.6,3.6-0.6,5.3,0C414,758,415.4,759.2,416.1,760.7z"/>
			</g>
			<g>
				<path class="st8" d="M436.9,751c1.9,2.9,0.5,6.9-3.2,8.7c-3.7,1.8-8,0.7-9.6-2.3c-1.6-3.1-0.1-6.8,3.3-8.5
					C430.8,747.1,435.1,748,436.9,751z"/>
			</g>
			<g>
				<path class="st8" d="M456.8,739.7c2,2.8,0.9,6.8-2.6,8.8c-3.5,2-7.9,1.2-9.8-1.7c-1.9-2.9-0.7-6.8,2.6-8.7
					C450.4,736.2,454.8,736.9,456.8,739.7z"/>
			</g>
			<g>
				<path class="st8" d="M476.5,728.1c2,2.9,0.9,6.8-2.5,8.8c-3.4,2-7.8,1.3-9.8-1.5c-2-2.8-1-6.8,2.4-8.8
					C470,724.5,474.5,725.2,476.5,728.1z"/>
			</g>
			<g>
				<path class="st8" d="M496.8,717.5c1.6,3.1,0.1,6.8-3.3,8.6c-3.4,1.7-7.7,0.8-9.5-2.1c-1.9-2.9-0.5-6.9,3.2-8.7
					C490.8,713.3,495.2,714.4,496.8,717.5z"/>
			</g>
			<g>
				<path class="st8" d="M518.2,709c0.6,1.6,0.3,3.3-0.5,4.8c-0.8,1.5-2.2,2.7-3.9,3.3c-1.8,0.7-3.7,0.7-5.3,0.1
					c-1.6-0.5-3-1.7-3.8-3.2c-0.7-1.6-0.7-3.3,0.1-4.8c0.8-1.5,2.2-2.9,4.2-3.6c2-0.7,4-0.7,5.7-0.1
					C516.3,706.1,517.6,707.3,518.2,709z"/>
			</g>
			<g>
				<path class="st8" d="M540.7,703.7c0.2,1.7-0.5,3.4-1.6,4.7c-1.1,1.3-2.6,2.3-4.4,2.6c-3.6,0.7-7.3-1.2-8.2-4.5
					c-0.9-3.3,1.7-6.9,5.9-7.7c2.1-0.4,4.1,0,5.6,0.8C539.6,700.6,540.5,702,540.7,703.7z"/>
			</g>
			<g>
				<path class="st8" d="M563.5,703.6c-0.4,1.7-1.6,3.1-3,4.2c-0.7,0.5-1.5,0.9-2.3,1.1c-0.8,0.3-1.7,0.4-2.6,0.3
					c-1.8,0-3.3-0.8-4.5-1.9c-1.2-1.1-1.9-2.7-1.9-4.4c0-1.7,0.9-3.3,2.3-4.5c1.4-1.2,3.5-1.8,5.6-1.8c1.1,0.1,2.1,0.3,3,0.7
					c0.9,0.4,1.6,1,2.2,1.6C563.5,700.2,564,701.9,563.5,703.6z"/>
			</g>
			<g>
				<path class="st8" d="M584.5,710.5c-1.1,1.5-2.7,2.5-4.4,3c-0.8,0.2-1.7,0.4-2.6,0.4c-0.8,0-1.6-0.2-2.4-0.5
					c-0.8-0.3-1.4-0.8-2-1.3c-0.6-0.5-1-1.2-1.3-1.9c-0.6-1.5-0.7-3.1,0-4.8c0.7-1.6,2.1-3,3.9-3.6c0.9-0.3,1.9-0.5,2.9-0.5
					c1,0,2,0.2,3,0.6c1,0.4,1.8,1,2.4,1.6c0.6,0.7,1.1,1.4,1.4,2.2C585.9,707.3,585.5,709,584.5,710.5z"/>
			</g>
			<g>
				<path class="st8" d="M604.3,719.2c-0.5,1.7-1.7,3.2-3.6,3.9c-1.8,0.8-4.3,0.8-6.4,0c-2.1-0.8-3.4-2.3-3.9-3.9
					c-0.5-1.6-0.1-3.3,1-4.8c1.1-1.5,2.8-2.5,4.5-2.9c1.7-0.5,3.5-0.4,4.9,0.1c1.4,0.6,2.3,1.6,3,2.9
					C604.5,715.9,604.8,717.5,604.3,719.2z"/>
			</g>
			<g>
				<path class="st8" d="M627,716.7c0.5,1.6,0.2,3.4-0.8,4.8c-1,1.5-2.8,2.6-5,3.1c-1.1,0.2-2.2,0.2-3.2,0.1c-1-0.2-1.9-0.5-2.7-1
					c-1.5-1-2.4-2.5-2.4-4.2c0-1.7,0.7-3.4,1.8-4.6c0.5-0.6,1.2-1.2,1.9-1.6c0.7-0.4,1.5-0.8,2.3-0.9c1.7-0.4,3.4-0.1,4.9,0.7
					C625.3,713.8,626.5,715.1,627,716.7z"/>
			</g>
		</g>
		<path class="st8" d="M582.7,819.5c-1.4,1.6-2.8,3.2-4.1,4.8c-2.3,2.7-4.5,5.5-6.7,8.3c-12.4,4.5-24.1,11.8-35.5,19
			c-18.3,11.5-37.3,23.4-59.9,24.3c-21.6,0.9-39.7-8.6-57.2-17.7c-16.3-8.5-31.6-16.5-49.2-16.7c-23.7-0.2-44.3,13.6-66.1,28.2
			c-22.1,14.8-44.9,30.1-72.1,30.6c-10.7,0.2-20.8-2.1-30.6-4.3c-4.6-1-9.3-2.1-13.9-2.9c-7.2-1.2-14.5-1.8-22-1.7
			c2.4-1.2,4.8-2.5,7.2-3.9c3-1.7,5.9-3.5,8.8-5.3c2.9,0.3,5.8,0.7,8.8,1.1c5,0.8,9.9,1.9,14.6,3c9.5,2.2,18.4,4.2,27.7,4
			c23.4-0.4,43.7-14,65.2-28.4c22.5-15.1,45.7-30.6,73.3-30.4c20.4,0.2,37.7,9.2,54.5,18c16.9,8.8,32.9,17.2,51.3,16.5
			c19.2-0.8,36-11.2,53.7-22.3c13-8.1,26.4-16.5,41.4-21.3C575.4,821.1,579.1,820.2,582.7,819.5z"/>
		<g>
			<g>
				<path class="st8" d="M87.9,943.8c0.6,1.6,0.4,3.3-0.4,4.8c-0.8,1.5-2.1,2.8-4,3.4c-3.6,1.4-7.7,0.1-9.2-3
					c-1.5-3.1,0.4-6.9,4.2-8.4c1.9-0.7,4-0.7,5.6-0.2C85.9,941,87.3,942.2,87.9,943.8z"/>
			</g>
			<g>
				<path class="st8" d="M110.1,937.3c0.7,3.3-1.7,6.8-5.4,7.7c-1.8,0.5-3.7,0.3-5.3-0.4c-1.6-0.7-2.8-1.9-3.3-3.6
					c-0.5-1.6-0.2-3.4,0.7-4.8c1-1.4,2.6-2.6,4.6-3.2c2-0.5,4-0.3,5.6,0.5C108.6,934.3,109.8,935.6,110.1,937.3z"/>
			</g>
			<g>
				<path class="st8" d="M133,933.8c0,1.7-0.7,3.4-1.9,4.6c-1.2,1.3-2.8,2.1-4.7,2.4c-1.9,0.3-3.6-0.2-5-1.1c-1.4-0.9-2.4-2.3-2.7-4
					c-0.3-1.7,0.3-3.4,1.5-4.7c1.2-1.3,3-2.3,5.1-2.6c2.1-0.3,4,0.3,5.4,1.2C132.1,930.6,133,932,133,933.8z"/>
			</g>
			<g>
				<path class="st8" d="M156,933.9c-0.3,1.7-1.4,3.2-2.8,4.3c-1.4,1-3.2,1.6-5.1,1.6c-3.7-0.2-6.6-2.9-6.4-6.3
					c0.1-3.5,3.7-6.4,7.9-6.2c2.1,0,3.9,0.9,5,2.1C155.8,930.5,156.3,932.2,156,933.9z"/>
			</g>
			<g>
				<path class="st8" d="M178.2,937.9c-0.7,1.7-2,3-3.6,3.8c-0.8,0.4-1.7,0.7-2.6,0.8c-0.9,0.1-1.8,0.1-2.7-0.1
					c-0.9-0.2-1.7-0.6-2.4-1c-0.7-0.4-1.3-1-1.7-1.7c-0.9-1.3-1.2-3-0.8-4.7c0.5-1.7,1.7-3.1,3.3-4c0.8-0.4,1.8-0.8,2.7-0.9
					c1-0.1,2-0.1,3,0.1c1,0.2,1.9,0.6,2.6,1.1c0.7,0.5,1.3,1.2,1.7,1.9C178.7,934.5,178.8,936.2,178.2,937.9z"/>
			</g>
			<g>
				<path class="st8" d="M199.5,944.3c-1.5,3.3-5.7,5-9.4,3.8c-3.6-1.2-5.4-4.7-3.9-8c1.4-3.3,5.7-5.1,9.4-3.9
					C199.3,937.5,201,941.1,199.5,944.3z"/>
			</g>
			<g>
				<path class="st8" d="M221.1,950.2c-0.5,1.7-1.8,3.1-3.5,3.9c-1.7,0.8-3.8,1.1-5.7,0.6c-3.9-1-5.8-4.6-4.4-7.9
					c1.5-3.3,5.5-5.1,9.1-4.2c1.8,0.5,3.2,1.5,4,2.9C221.4,946.8,221.6,948.5,221.1,950.2z"/>
			</g>
			<g>
				<path class="st8" d="M243.8,952c0,0.9-0.2,1.7-0.5,2.5c-0.4,0.8-0.9,1.5-1.7,2.1c-1.4,1.1-3.5,1.9-5.7,1.9
					c-2.2-0.1-4-0.9-5.2-2.2c-1.1-1.3-1.6-3-1.2-4.7c0.4-1.7,1.5-3.2,2.9-4.2c1.4-1,3.1-1.7,4.9-1.5c1.8,0,3.3,0.7,4.5,1.8
					c0.6,0.6,1.1,1.2,1.4,1.9C243.5,950.3,243.8,951.1,243.8,952z"/>
			</g>
			<g>
				<path class="st8" d="M266.1,946.3c0.8,1.5,0.7,3.3-0.1,4.8c-0.4,0.8-1,1.5-1.8,2.1c-0.8,0.6-1.7,1.1-2.8,1.5
					c-1.1,0.3-2.1,0.5-3.2,0.5c-1,0-2-0.3-2.8-0.6c-1.7-0.7-2.8-2.1-3.1-3.8c-0.3-1.7,0.1-3.3,1-4.7c0.4-0.7,1-1.3,1.6-1.8
					c0.6-0.5,1.4-0.9,2.2-1.2c0.8-0.3,1.7-0.4,2.6-0.4c0.9,0,1.7,0.2,2.5,0.5C263.9,943.7,265.3,944.8,266.1,946.3z"/>
			</g>
			<g>
				<path class="st8" d="M286.2,935.3c2.1,2.8,1.1,6.8-2.5,8.9c-3.6,2.1-8.1,1.3-9.9-1.7c-1.8-3-0.7-6.8,2.6-8.7
					C279.7,931.9,284.1,932.5,286.2,935.3z"/>
			</g>
			<g>
				<path class="st8" d="M305.7,923.3c1.9,2.9,0.9,6.7-2.4,8.7c-3.3,2-7.7,1.5-9.8-1.3c-2.1-2.8-1.2-6.7,2.3-8.9
					C299.2,919.7,303.8,920.4,305.7,923.3z"/>
			</g>
			<g>
				<path class="st8" d="M326.8,914.2c0.4,1.7,0,3.4-0.8,4.8c-0.4,0.7-0.9,1.4-1.5,1.9c-0.6,0.5-1.3,1-2.2,1.3
					c-0.4,0.2-0.8,0.3-1.3,0.3c-0.4,0.1-0.9,0.1-1.3,0.1c-0.9,0-1.7-0.1-2.5-0.4c-1.6-0.5-3.1-1.5-4-3c-0.9-1.5-0.9-3.2-0.2-4.8
					c0.4-0.8,0.9-1.5,1.7-2.2c0.4-0.3,0.8-0.6,1.2-0.9c0.5-0.3,0.9-0.5,1.5-0.7c1-0.4,2.1-0.6,3.1-0.6c1,0,2,0.1,2.9,0.5
					C325.2,911.2,326.4,912.5,326.8,914.2z"/>
			</g>
			<g>
				<path class="st8" d="M349.5,914.3c-0.7,1.7-2.1,2.9-3.5,3.8c-0.7,0.4-1.5,0.8-2.3,0.9c-0.8,0.2-1.6,0.3-2.4,0.2
					c-0.8-0.1-1.5-0.3-2.2-0.7c-0.7-0.4-1.3-0.8-1.8-1.4c-1.1-1.1-1.8-2.7-1.9-4.4c0-1.7,0.8-3.4,2.4-4.5c0.8-0.6,1.7-1.1,2.7-1.3
					c1-0.2,2.2-0.4,3.4-0.3c1.1,0.2,2.2,0.4,3.1,0.9c0.9,0.5,1.6,1.1,2.1,1.8C350.1,911,350.2,912.7,349.5,914.3z"/>
			</g>
			<g>
				<path class="st8" d="M367.6,925.5c-1.5,1.2-3.4,1.8-5.1,1.8c-0.9,0-1.7-0.1-2.5-0.3c-0.8-0.2-1.5-0.5-2.1-1
					c-1.3-0.9-1.9-2.3-2.1-3.8c-0.1-1.5,0.2-3.2,1.3-4.7c1.1-1.5,2.8-2.5,4.7-2.7c1.9-0.3,4.1,0.3,5.7,1.5c0.8,0.7,1.5,1.4,1.9,2.2
					c0.4,0.8,0.6,1.7,0.6,2.5C370,922.7,369.1,924.3,367.6,925.5z"/>
			</g>
			<g>
				<path class="st8" d="M380.2,941.8c-3.4,1.9-7.7,1-9.7-1.8c-1.9-2.8-1-6.6,2.2-8.7c1.6-1.1,3.6-1.5,5.4-1.2
					c1.8,0.3,3.5,1.2,4.6,2.8C384.8,936,383.6,939.9,380.2,941.8z"/>
			</g>
			<g>
				<path class="st8" d="M391.5,958.9c-3.3,2-7.8,1.2-9.8-1.8c-2-3-0.7-7,2.7-8.8c3.4-1.9,7.8-0.9,9.7,1.9
					C395.9,953,394.8,956.9,391.5,958.9z"/>
			</g>
			<g>
				<path class="st8" d="M405.5,974.2c-1.3,1.3-3.2,2.1-5.1,2.1c-1.9,0-3.9-0.7-5.2-2.1c-1.4-1.4-2-3.2-1.8-4.8
					c0.2-1.7,1.2-3.2,2.8-4.3c1.6-1.1,3.5-1.5,5.3-1.4c1.8,0.1,3.4,0.7,4.6,1.9c1.1,1.2,1.7,2.6,1.6,4.2
					C407.5,971.2,406.9,972.8,405.5,974.2z"/>
			</g>
			<g>
				<path class="st8" d="M424.5,984.5c-1.7,3.2-6.2,4.7-9.9,2.9c-1.8-0.9-3.1-2.3-3.5-3.9c-0.4-1.6-0.1-3.3,1.1-4.8
					c1.2-1.5,2.8-2.4,4.5-2.9c1.7-0.4,3.5-0.4,5.1,0.4C424.9,977.6,426.3,981.3,424.5,984.5z"/>
			</g>
			<g>
				<path class="st8" d="M445.5,991.7c-1.6,3.2-5.8,4.9-9.4,3.7c-3.7-1.2-5.4-4.9-3.7-8.1c1.6-3.2,5.8-4.9,9.4-3.7
					C445.4,984.8,447.1,988.5,445.5,991.7z"/>
			</g>
			<g>
				<path class="st8" d="M463.4,991.7c-3,3.3-6.1,6.5-9.3,9.7c-1.6-1.8-2.1-4.4-0.8-6.8c1.7-3.2,6.2-4.7,9.9-3
					C463.3,991.6,463.4,991.6,463.4,991.7z"/>
			</g>
		</g>
		
			<linearGradient id="SVGID_7_" gradientUnits="userSpaceOnUse" x1="480.358" y1="775.9796" x2="635.0079" y2="775.9796" gradientTransform="matrix(0.9704 -0.2414 0.2414 0.9704 -171.5887 105.6027)">
			<stop  offset="0" style="stop-color:#E5E7E8"/>
			<stop  offset="1" style="stop-color:#FFFFFF"/>
		</linearGradient>
		<path class="st9" d="M621.9,768.5c-10.3,20.5-28,37.6-43.3,55.8c-12.6,15.1-23.6,31.1-34,47.4c-52.9-44.7-70.5-122.8-46.4-186.4
			c10-26.3,26.1-50.7,42.2-74.8c7.7-11.6,15.9-23.6,26.1-33.5c0.4,0.6,0.7,1.1,1.1,1.7c18.5,29.3,39.9,57.3,53.1,89
			C633.9,699.5,638.1,736.3,621.9,768.5z"/>
		
			<linearGradient id="SVGID_8_" gradientUnits="userSpaceOnUse" x1="4.5881" y1="952.5955" x2="278.0139" y2="952.5955" gradientTransform="matrix(0.9704 -0.2414 0.2414 0.9704 -171.5887 105.6027)">
			<stop  offset="0" style="stop-color:#E5E7E8"/>
			<stop  offset="1" style="stop-color:#FFFFFF"/>
		</linearGradient>
		<path class="st10" d="M350.9,1057c0.3,3.8,0.4,7.4,0.3,10.9c-63.6,25.7-135.7,32.7-199.6,15c-31.8-8.8-62.1-23.8-80.5-48
			c-18.4-24.2-22.6-58.6-4.1-84.8c22.8-32.3,69.1-42,105.7-62.7c15.2,7.9,29.5,17.2,43,26.9c32.6,23.5,61.8,50.2,91,76.9
			C327,1009.9,348.5,1030.5,350.9,1057z"/>
		<path class="st5" d="M621.9,768.5c-10.3,20.5-28,37.6-43.3,55.8c-12.6,15.1-23.6,31.1-34,47.4c-25.2,39.7-46.7,81.4-78.6,117.2
			c-30.4,34.1-70.6,61.1-114.9,79c-53.3,21.6-112.5,30-168,21.7c7-4,14.5-7.5,22-10.7c43.8-18.7,92.5-29.1,130.9-56
			c22.7-15.9,40.5-36.7,57.9-57.2c45.3-53.1,90.5-106.2,135.8-159.4c14.9-17.5,30.1-35.4,38-55.9c14.5-37.4,2.3-78-19.9-110.1
			c-22.2-32.2-53.5-58.2-81.4-86.5c-43.7-44.4-79.5-96.2-100.6-152.5c34-20.7,100-64.4,94.6-81.6c27.9,88.5,56.2,177.8,106,257.4
			c0.4,0.6,0.7,1.1,1.1,1.7c18.5,29.3,39.9,57.3,53.1,89C633.9,699.5,638.1,736.3,621.9,768.5z"/>
		
			<linearGradient id="SVGID_9_" gradientUnits="userSpaceOnUse" x1="115.6641" y1="375.9762" x2="581.4145" y2="375.9762" gradientTransform="matrix(0.9704 -0.2414 0.2414 0.9704 -171.5887 105.6027)">
			<stop  offset="0" style="stop-color:#F0F1F1"/>
			<stop  offset="1" style="stop-color:#D0D3D4"/>
		</linearGradient>
		<path class="st11" d="M488.1,354.4c-2,20.5-30.4,30.1-53.2,34.5c-22,30.5-56.3,54.3-94.7,65.6c-34.6,20.1-74.8,32.3-115,34.9
			c-4.3,11.4-25.1,14.3-31.6,4.4c-13.8,15.9-46.1,12.5-53-5.5c7.5,19.7-30.2,37.5-45,23.3c0.4-3.3,2.8-4.9,6.3-6.4
			c-12.5,5.4-28.4,2.6-36.6-6.6c-0.2-0.2-0.4-0.5-0.6-0.7c-9.2-11.3,2.2-23.5-3.4-33.3C47,440.1,5.8,437.8,43.8,405.1
			c17.1-14.7,46.5-21.4,65.1-8.3c-5.7-4-4-12.8,1.4-17.8c5.4-4.9,13.2-6.9,20.6-8.8c9.6-2.4,19.3-4.7,28.9-7.1
			c15.4-3.8,35.1-6.3,43.3,5.1c4.1-20.7,33.1-35.3,54.2-27.4c1.4-20.9,37.5-33.1,52.2-17.6c-4.1-24.1,30.9-47.5,55.2-37.1
			c-3.5-16.6,14-34.4,33.3-36.3c16.2-1.6,29.4,5.4,40.2,15.8c9.3,9,16.8,20.4,22.9,31.2c6.5,11.4,12.9,22.9,19.4,34.4
			C484.7,338.5,488.9,346.2,488.1,354.4z"/>
		<path class="st5" d="M488.1,354.4c-2,20.5-30.4,30.1-53.2,34.5c-22,30.5-56.3,54.3-94.7,65.6c-34.6,20.1-74.8,32.3-115,34.9
			c-4.3,11.4-25.1,14.3-31.6,4.4c-13.8,15.9-46.1,12.5-53-5.5c7.5,19.7-30.2,37.5-45,23.3c0.4-3.3,2.8-4.9,6.3-6.4
			c-12.5,5.4-28.4,2.6-36.6-6.6c-0.2-0.2-0.4-0.5-0.6-0.7c4.1-0.2,8.2-1.1,12.2-2.8c11.6-4.9,20.1-14.1,28.1-23.1
			c1.9,3.8,7.8,4.7,12.3,2.9c4.5-1.8,7.6-5.4,10.2-9.1c6.3-9.1,10.3-19.5,11.3-29.9c10.1,9.4,21.3,18.6,35.5,22.5
			c14.2,3.9,32.1,1.3,42-9.5c3.3-3.6,5.6-7.9,9.8-10.7c9.1-6,21.1-1.6,31.7,0.6c22.5,4.7,47.3-2.7,67.2-14.9
			c19.8-12.3,35.6-29,50.9-45.6c4.6-5,9.3-10,15.5-13.3c11.1-5.8,25.1-4.7,35.9-11c11.9-7,16-20.9,15.2-33
			c-0.8-12.1-5.4-23.7-6.5-35.8c-0.6-6.5,0.1-13.4,2.6-19.7c9.3,9,16.8,20.4,22.9,31.2c6.5,11.4,12.9,22.9,19.4,34.4
			C484.7,338.5,488.9,346.2,488.1,354.4z"/>
		<path class="st5" d="M99.5,420.5c3.1-3.3,5.4-7.2,8.7-10.2c1.2-1.1,2.9-2.2,4.4-1.7c1,0.3,1.6,1.2,2.1,2c1.3,1.8,3,3.5,5.3,4.2
			c2.3,0.7,5.3,0.3,6.9-1.5c0.9-1,1.3-2.2,1.9-3.3c1.7-3.1,5.4-5.4,9.2-5.7c1.5-0.1,3.2,0.1,4.2,1c2.9,2.4-0.2,6.9-3.2,9.5
			c-3.4,3-6.9,6.1-11,8.1c-7.1,3.4-15.3,3.5-23.2,3.5c-4.3,0-8.7,0.2-12.8-0.6C94.6,424.4,97.5,422.6,99.5,420.5z"/>
		<path class="st5" d="M237.9,407.8c0.6-0.5,1.4-0.9,2.2-1c0.9-0.1,1.7,0.4,2.5,0.8c3.8,2.1,7.9,3.8,12.3,4.8
			c1.8,0.4,3.6,0.8,5.5,0.3c4.2-1,6-5.4,7.9-9c1.8-3.6,6.1-7.4,9.9-5.8c2.6,1.1,3.7,4.6,6.7,4.7c2.9,0,4.5-3.1,5.4-5.6
			c0.9-2.5,3.2-5.6,5.9-4.9c2.1,3,4.2,6.7,2.4,10c-0.9,1.6-2.6,2.8-4.2,3.9c-4.1,2.8-8.2,5.6-12.4,8.4c-6.5,4.5-13.9,9.2-21.8,8.7
			C250.7,422.7,224.4,418,237.9,407.8z"/>
		<path class="st5" d="M343.3,316.6c0.4-0.8,0.8-1.6,1.7-2c1.5-0.7,3.1,0.4,4.2,1.4c2.5,2.3,5,4.7,7.5,7c2.6-1.8,3.8-4.8,4.7-7.5
			c0.9-2.8,1.6-5.7,3.7-8c2-2.3,5.9-3.7,8.6-2.2c1,0.6,1.8,1.5,2.9,1.9c2.5,0.9,5.3-1.4,6.3-3.7c1.1-2.3,1.3-4.9,3.1-6.9
			c1.8-1.9,6.1-2.2,6.6,0.1c0.3,1.4-1,2.8-2,3.9c-3.9,4.2-6.7,9-8.2,14.2c-1.5,5-2.3,11-7.4,13.5c-2.6,1.3-5.6,1.3-8.5,1.4
			C349.2,330.5,332.6,338.9,343.3,316.6z"/>
		<path class="st5" d="M354.4,418.5c1.6-2.4,3.7-5.1,6.8-5.1c1.5,0,2.8,0.7,4.3,0.9c4.4,0.6,8-3.3,10.7-6.6
			c2.7-3.3,7.2-6.8,11.2-5.2c-0.2,4.8-3,9.6-7.3,12.7c-2.4,1.7-5.2,2.9-8,4.1c-3.6,1.6-7.2,3.1-10.8,4.7c-2.1,0.9-4.3,1.8-6,3.2
			c-3.5,2.8-5.2,7.4-9.2,9.6c-1.4,0.7-3.4,1-4.2-0.1c-0.7-1.1,0.4-2.6,1.4-3.6C347.8,428.5,350.8,423.8,354.4,418.5z"/>
	</g>
	<g>
		<g>
			
				<linearGradient id="SVGID_10_" gradientUnits="userSpaceOnUse" x1="1762.1401" y1="-757.516" x2="1838.7625" y2="-680.8938" gradientTransform="matrix(-0.1296 0.9916 0.9916 0.1296 1044.7122 -1302.7179)">
				<stop  offset="0" style="stop-color:#00B53E"/>
				<stop  offset="0.3327" style="stop-color:#008627"/>
				<stop  offset="0.7824" style="stop-color:#004D0B"/>
				<stop  offset="0.9987" style="stop-color:#003600"/>
			</linearGradient>
			<path class="st12" d="M55.7,429c6.1-7.2,16.3-11.7,26.2-11.5c9.9,0.2,19.1,5.1,23.8,12.5c-0.6-8.1,6.9-16.5,16.1-18
				c9.2-1.5,18.6,4.2,20.1,12.2c-1.6-8.4,13.7-29.9,17.9-37.9c3.4-6.5,22.3-33.6,22-37.8c-0.1-0.9-0.4-1.9-1.1-2.9
				c-3-4.9-12-11-23.4-16.2c-1.2-0.6-2.4-1.1-3.7-1.6c-6.5-2.7-13.7-5.1-20.9-6.6c4.2,4.2,1.1,11.7-4.4,15.2
				c-5.6,3.4-12.5,3.9-19.1,4.3c-10.4,0.6-20.7,1.2-31.1,1.9c2.8,5.1,4.1,11,3.6,16.9c-15.3,5.7-31.4,9.4-47.6,11
				c3.7,6.9,1.6,15.4-3.4,22.3c-1,1.4-2.2,2.8-3.5,4.1c-5.5,5.4-12.5,9.4-19.8,12.9c0,0,0,0,0,0c-2.4,1.2-4.9,2.3-7.3,3.4
				c4.2-1.1,8.5-1.9,12.8-2.2c6.3-0.5,12.6,0.1,18.2,2.2c9.5,3.5,16.8,12,15.8,21.4C50.4,435.3,53.4,431.7,55.7,429z"/>
			<path class="st13" d="M55.7,429c6.1-7.2,16.3-11.7,26.2-11.5c9.9,0.2,19.1,5.1,23.8,12.5c-0.6-8.1,6.9-16.5,16.1-18
				c9.2-1.5,18.6,4.2,20.1,12.2c-1.6-8.4,13.7-29.9,17.9-37.9c3.4-6.5,22.3-33.6,22-37.8c-0.1-0.9-0.4-1.9-1.1-2.9
				c-17-2.7-37.3,5.3-51.8,12.8c-9.2,4.8-18,10.3-27.5,14.8c-5,2.3-10.1,4.4-15.3,6.4c-18.9,7.6-37.9,15.1-56.8,22.6
				c-5,2-10.1,4-15.3,5.6c-2.2,0.7-4.5,1.3-6.8,1.9c0,0,0,0,0,0c-2.4,1.2-4.9,2.3-7.3,3.4c4.2-1.1,8.5-1.9,12.8-2.2
				c6.3-0.5,12.6,0.1,18.2,2.2c9.5,3.5,16.8,12,15.8,21.4C50.4,435.3,53.4,431.7,55.7,429z"/>
			<path class="st13" d="M55.7,429c6.1-7.2,16.3-11.7,26.2-11.5c9.9,0.2,19.1,5.1,23.8,12.5c-0.6-8.1,6.9-16.5,16.1-18
				c9.2-1.5,18.6,4.2,20.1,12.2c-1.6-8.4,13.7-29.9,17.9-37.9c3.4-6.5,22.3-33.6,22-37.8c-0.3-5.1-10.6-12.8-24.5-19.1
				c4.1,4.4,7.4,9.5,9.6,15c0.3,0.8,0.6,1.6,0.3,2.4c-0.3,1.1-1.5,1.9-2.6,2.5c-15,9.3-25.7,24.2-28.5,39.9
				c-3.1-1.1-5.9-2.7-8.2-4.7c-8.8,5.5-16.1,12.7-21.2,21.1c-3.9-4.3-7.7-8.5-11.5-12.8c-11.6,2-17.7,15.6-29.3,17.7
				c-2.8,0.5-5.7,0.3-8.5,0c-5.6-0.5-11.2-1-16.8-1.5c-8.7-0.8-17.7-1.5-26.1,1.2c-0.6,0.2-1.1,0.4-1.6,0.6
				c6.3-0.5,12.6,0.1,18.2,2.2c9.5,3.5,16.8,12,15.8,21.4C50.4,435.3,53.4,431.7,55.7,429z"/>
			<path class="st14" d="M30.7,392.7c3.6-1.9,6.6-4.7,7.9-8.1c1.2-3.4,0.8-7.4,3.7-10c2-1.8,5-2.3,7.7-2.7
				c8.4-1.2,16.7-2.5,25.1-3.7c5.4-0.8,11.1-1.7,15.5-4.8c4.4-3.1,6.8-9.1,3.5-12.8c13.4-0.5,26.9-1.6,40.2-3.4
				c1.6-0.2,3.4-0.5,4.5-1.7c1.1-1.1,1.1-2.7,1.3-4.1c0.6-4.6,3.2-9.3,7.6-12.1c1.3-0.9,3.6-1.2,5.9-1.5c-6.5-2.7-13.7-5.1-20.9-6.6
				c4.2,4.2,1.1,11.7-4.4,15.2c-5.6,3.4-12.5,3.9-19.1,4.3c-10.4,0.6-20.7,1.2-31.1,1.9c2.8,5.1,4.1,11,3.6,16.9
				c-15.3,5.7-31.4,9.4-47.6,11C37.8,377.3,35.7,385.8,30.7,392.7z"/>
		</g>
		<g>
			
				<linearGradient id="SVGID_11_" gradientUnits="userSpaceOnUse" x1="477.737" y1="284.756" x2="556.387" y2="363.406" gradientTransform="matrix(0.9981 -6.224835e-02 6.224835e-02 0.9981 -294.4561 -40.5638)">
				<stop  offset="0" style="stop-color:#00B53E"/>
				<stop  offset="0.3327" style="stop-color:#008627"/>
				<stop  offset="0.7824" style="stop-color:#004D0B"/>
				<stop  offset="0.9987" style="stop-color:#003600"/>
			</linearGradient>
			<path class="st15" d="M291.3,212c-8.8,5.2-14.7,14.4-15.2,23.5c-0.4,9.1,4.6,18,13.1,22.9c-9.5-1.1-19.8,5.3-22.2,13.7
				c-2.3,8.4,3.7,17.5,12.9,19.4c-9.7-2-35.9,10.7-45.6,14.1c-7.9,2.8-40.8,18.4-45.8,17.9c-1-0.1-2.2-0.5-3.4-1.2
				c-5.5-3.1-12.1-11.9-17.4-22.8c-0.6-1.1-1.1-2.3-1.6-3.5c-2.8-6.2-5-13-6.4-19.8c4.7,4.2,13.7,1.8,18.1-3.1
				c4.4-4.9,5.5-11.3,6.4-17.4c1.4-9.6,2.8-19.1,4.2-28.7c5.8,3,12.6,4.5,19.6,4.4c7.7-13.8,13.1-28.5,16-43.4
				c7.8,3.9,17.9,2.5,26.3-1.7c1.8-0.9,3.4-1.9,5-3c6.7-4.7,11.8-11,16.4-17.5c0,0,0,0,0,0c1.5-2.2,3-4.4,4.4-6.6
				c-1.6,3.8-2.8,7.7-3.5,11.7c-1,5.8-0.7,11.6,1.4,17c3.5,9.1,12.9,16.4,24,16.1C299,207.4,294.7,210,291.3,212z"/>
			<path class="st13" d="M291.3,212c-8.8,5.2-14.7,14.4-15.2,23.5c-0.4,9.1,4.6,18,13.1,22.9c-9.5-1.1-19.8,5.3-22.2,13.7
				c-2.3,8.4,3.7,17.5,12.9,19.4c-9.7-2-35.9,10.7-45.6,14.1c-7.9,2.8-40.8,18.4-45.8,17.9c-1-0.1-2.2-0.5-3.4-1.2
				c-2-16,8.6-34.2,18.5-47.1c6.3-8.2,13.3-16,19.1-24.5c3.1-4.5,5.8-9.1,8.6-13.7c10.1-17.1,20.2-34.1,30.3-51.2
				c2.7-4.5,5.4-9.1,7.5-13.8c0.9-2,1.8-4.1,2.7-6.1c0,0,0,0,0,0c1.5-2.2,3-4.4,4.4-6.6c-1.6,3.8-2.8,7.7-3.5,11.7
				c-1,5.8-0.7,11.6,1.4,17c3.5,9.1,12.9,16.4,24,16.1C299,207.4,294.7,210,291.3,212z"/>
			<path class="st13" d="M291.3,212c-8.8,5.2-14.7,14.4-15.2,23.5c-0.4,9.1,4.6,18,13.1,22.9c-9.5-1.1-19.8,5.3-22.2,13.7
				c-2.3,8.4,3.7,17.5,12.9,19.4c-9.7-2-35.9,10.7-45.6,14.1c-7.9,2.8-40.8,18.4-45.8,17.9c-6-0.6-14.3-10.7-20.7-24
				c4.9,4.1,10.7,7.5,17,9.9c0.9,0.3,1.9,0.7,2.8,0.5c1.3-0.2,2.3-1.3,3.1-2.2c11.9-13.3,30-22.2,48.6-23.8c-1-2.9-2.8-5.6-5-7.9
				c7-7.8,16-14.1,26.1-18.3c-4.7-3.9-9.5-7.7-14.2-11.5c3.1-10.6,19.4-15.4,22.7-26c0.8-2.6,0.7-5.3,0.6-7.9
				c-0.2-5.2-0.4-10.5-0.6-15.7c-0.3-8.1-0.6-16.5,3.2-24.1c0.2-0.5,0.5-1,0.8-1.5c-1,5.8-0.7,11.6,1.4,17
				c3.5,9.1,12.9,16.4,24,16.1C299,207.4,294.7,210,291.3,212z"/>
			<path class="st14" d="M250.5,186.3c-2.4,3.3-5.9,5.8-10,6.7c-4.1,0.9-8.8,0.3-12,2.8c-2.3,1.7-3.1,4.5-3.7,7c-2,7.7-4,15.3-6,23
				c-1.3,5-2.7,10.2-6.7,14.1c-3.9,3.9-11.1,5.7-15.3,2.4c-1.5,12.4-3.7,24.8-6.7,37.1c-0.4,1.5-0.8,3.1-2.2,4.1
				c-1.4,0.9-3.2,0.9-4.9,0.9c-5.4,0.2-11.1,2.3-14.6,6.2c-1.1,1.2-1.7,3.2-2.1,5.4c-2.8-6.2-5-13-6.4-19.8
				c4.7,4.2,13.7,1.8,18.1-3.1c4.4-4.9,5.5-11.3,6.4-17.4c1.4-9.6,2.8-19.1,4.2-28.7c5.8,3,12.6,4.5,19.6,4.4
				c7.7-13.8,13.1-28.5,16-43.4C232,191.9,242.1,190.5,250.5,186.3z"/>
		</g>
		<g>
			
				<linearGradient id="SVGID_12_" gradientUnits="userSpaceOnUse" x1="1417.4779" y1="279.0626" x2="1521.9559" y2="383.5406" gradientTransform="matrix(0.6244 0.7811 -0.7811 0.6244 -380.8942 -1005.7438)">
				<stop  offset="0" style="stop-color:#00B53E"/>
				<stop  offset="0.3327" style="stop-color:#008627"/>
				<stop  offset="0.7824" style="stop-color:#004D0B"/>
				<stop  offset="0.9987" style="stop-color:#003600"/>
			</linearGradient>
			<path class="st16" d="M356.7,365.7c-12.4-4.2-27.6-2.2-39.1,4.9c-11.4,7.2-18.8,19.4-18.9,31.4c-5.2-10-20-14.6-31.9-9.9
				c-11.8,4.7-18.8,18-14.8,28.4c-4.2-11-37.7-25.5-48.5-32c-8.8-5.3-50.4-23.8-53.3-29c-0.6-1.1-0.9-2.5-0.9-4.2
				c0-7.8,6.1-21.4,15.9-35.4c1-1.5,2.1-3,3.2-4.5c5.7-7.8,12.5-15.6,19.7-22.4c-1.9,7.9,7.2,14.6,16.2,14.7
				c9,0.1,17.6-4.1,25.6-8.3c12.6-6.6,25.3-13.1,37.9-19.7c0.4,8,3.2,15.8,8,22.4c22.1-4,43.7-10.9,63.9-20.5
				c0.6,10.7,9.2,19.3,20.1,23.8c2.3,1,4.6,1.8,7.1,2.3c10.4,2.5,21.5,2.2,32.6,1.2c0,0,0,0,0,0c3.7-0.4,7.4-0.8,11.1-1.2
				c-5.7,1.6-11.4,3.7-16.7,6.4c-7.7,3.9-14.7,8.9-19.8,15.3c-8.7,10.8-11.1,25.9-3.2,36.2C367.5,369.3,361.4,367.3,356.7,365.7z"/>
			<path class="st13" d="M356.7,365.7c-12.4-4.2-27.6-2.2-39.1,4.9c-11.4,7.2-18.8,19.4-18.9,31.4c-5.2-10-20-14.6-31.9-9.9
				c-11.8,4.7-18.8,18-14.8,28.4c-4.2-11-37.7-25.5-48.5-32c-8.8-5.3-50.4-23.8-53.3-29c-0.6-1.1-0.9-2.5-0.9-4.2
				c18.1-15.1,47.7-20,70.1-21.2c14.3-0.8,28.7-0.5,43-1.9c7.6-0.7,15.1-2,22.6-3.2c27.7-4.4,55.4-8.9,83.2-13.3
				c7.4-1.2,14.7-2.4,22-4.2c3.1-0.8,6.2-1.7,9.3-2.5c0,0,0,0,0,0c3.7-0.4,7.4-0.8,11.1-1.2c-5.7,1.6-11.4,3.7-16.7,6.4
				c-7.7,3.9-14.7,8.9-19.8,15.3c-8.7,10.8-11.1,25.9-3.2,36.2C367.5,369.3,361.4,367.3,356.7,365.7z"/>
			<path class="st13" d="M356.7,365.7c-12.4-4.2-27.6-2.2-39.1,4.9c-11.4,7.2-18.8,19.4-18.9,31.4c-5.2-10-20-14.6-31.9-9.9
				c-11.8,4.7-18.8,18-14.8,28.4c-4.2-11-37.7-25.5-48.5-32c-8.8-5.3-50.4-23.8-53.3-29c-3.4-6.2,3.2-22.5,15-39.6
				c-1.7,8.1-1.8,16.4-0.4,24.4c0.2,1.1,0.5,2.3,1.4,3.1c1.2,1.1,3.1,1.1,4.9,1.1c24.4,0.4,47.7,10.4,62.4,26.8
				c2.8-3.4,5-7.3,6.2-11.3c14.3,0.3,28.2,3.7,40.2,9.9c1.4-7.7,2.8-15.4,4.3-23.1c15.1-5.8,32.1,5.9,47.3,0.3c3.7-1.4,6.9-3.7,10-6
				c6.3-4.5,12.5-9,18.7-13.5c9.6-7,19.7-14.1,31.5-16.9c0.8-0.2,1.5-0.3,2.3-0.5c-7.7,3.9-14.7,8.9-19.8,15.3
				c-8.7,10.8-11.1,25.9-3.2,36.2C367.5,369.3,361.4,367.3,356.7,365.7z"/>
			<path class="st14" d="M359.9,305.5c-5.6,0.4-11.1-0.8-15.1-4c-3.9-3.1-6.4-8.2-11.6-9.2c-3.7-0.8-7.5,0.8-11.1,2.2
				c-10.7,4.4-21.4,8.8-32.1,13.2c-6.9,2.8-14.3,5.8-21.7,5.3c-7.4-0.5-14.6-6-13.4-12.6c-16.2,8.8-32.8,16.9-49.8,24.2
				c-2.1,0.9-4.4,1.8-6.5,1.2c-2.1-0.6-3.3-2.4-4.5-3.9c-4-5-10.5-8.7-17.6-8.9c-2.2-0.1-5.1,1.1-8,2.4c5.7-7.8,12.5-15.6,19.7-22.4
				c-1.9,7.9,7.2,14.6,16.2,14.7c9,0.1,17.6-4.1,25.6-8.3c12.6-6.6,25.3-13.1,37.9-19.7c0.4,8,3.2,15.8,8,22.4
				c22.1-4,43.7-10.9,63.9-20.5C340.4,292.3,349.1,300.9,359.9,305.5z"/>
		</g>
		<g>
			
				<linearGradient id="SVGID_13_" gradientUnits="userSpaceOnUse" x1="883.626" y1="577.8846" x2="962.1509" y2="577.8846" gradientTransform="matrix(0.7709 0.3658 -0.3875 0.8166 -317.4541 -504.2215)">
				<stop  offset="0" style="stop-color:#FF3923"/>
				<stop  offset="1" style="stop-color:#891829"/>
			</linearGradient>
			<path class="st17" d="M136,304c10-62.9,102.3-15.9,55.9,24.9C170.4,347.7,132.1,328.6,136,304z"/>
			<path class="st18" d="M191.8,328.8c-17.3,15.2-45.4,5.8-53.7-11.3c7.1-3.4,15.3-5.9,23.2-6.8c8.5-0.9,11.1-2,15.3-8.6
				c4.4-6.9,12.3-12.8,20.2-16.3C207.1,296.9,209.5,313.3,191.8,328.8z"/>
			
				<linearGradient id="SVGID_14_" gradientUnits="userSpaceOnUse" x1="589.5542" y1="490.4207" x2="671.7089" y2="490.4207" gradientTransform="matrix(0.9867 0.1628 -0.1628 0.9867 -393.8149 -240.2388)">
				<stop  offset="0" style="stop-color:#FF3324"/>
				<stop  offset="1" style="stop-color:#861829"/>
			</linearGradient>
			<path class="st19" d="M108.7,354c-12.6-69.3,112.2-44.3,74.1,11.4C165.2,391.2,113.6,381.2,108.7,354z"/>
			<path class="st18" d="M182.8,365.5c-13,19-44.5,18.5-62.2,6.1c6.1-1.7,12.5-1.9,18.5-3.8c6.2-1.9,11.9-5.7,17.2-9.1
				c3.6-2.3,7-5.4,8.1-9.2c1.2-4.2-0.7-8-0.5-12.1c0.2-4.5,2.7-9.4,4.4-13.7c0.7-1.9,1.5-3.8,2.5-5.6
				C187.7,326.6,197.7,343.7,182.8,365.5z"/>
			
				<linearGradient id="SVGID_15_" gradientUnits="userSpaceOnUse" x1="936.9499" y1="580.7327" x2="1030.3394" y2="580.7327" gradientTransform="matrix(0.7709 0.3658 -0.3875 0.8166 -317.4541 -504.2215)">
				<stop  offset="0" style="stop-color:#FF3324"/>
				<stop  offset="1" style="stop-color:#861829"/>
			</linearGradient>
			<path class="st20" d="M175.2,328.3c11.9-74.8,121.7-19,66.4,29.6C216.2,380.2,170.6,357.6,175.2,328.3z"/>
			<path class="st18" d="M241.7,357.8c-18,15.8-45.9,9.2-59.2-6.3c1.9-0.6,4.2-0.8,6.2-0.9c8.7-0.4,17.6-1.3,25.9-4.2
				c8.3-2.9,16-8,20.2-15.1c5.4-9.2,4.1-19.9,6.7-29.9C258.4,314,265.9,336.6,241.7,357.8z"/>
			<path class="st21" d="M189,303.9c-3.5,3.2-6.3,7.2-7.5,11.4c-1.3,4.6-0.8,9.3-0.4,13.9c0.4,4.1,1.5,9,5.9,10.1
				c10,2.7,36.3-17.3,37.6-25.8c1.2-7.9-10.3-18-19.2-17.7C199.9,296,193,300.3,189,303.9z"/>
			<path class="st8" d="M197.5,301.8c0,0-0.1,0-0.1,0c-3.1,1.3-10.4,8.3-7.3,11.6c1.3,1.5,6.7-0.3,8.3-1c2.7-1.2,4.9-3.6,5.1-6.1
				C203.9,303,201.4,300.3,197.5,301.8z"/>
			<path class="st8" d="M153.4,281.7C153.4,281.7,153.3,281.7,153.4,281.7c-2.3,1-7.7,6.1-5.5,8.6c1,1.1,4.9-0.2,6.1-0.8
				c1.9-0.9,3.6-2.6,3.8-4.5C158.1,282.6,156.2,280.6,153.4,281.7z"/>
			<path class="st21" d="M148.5,285.6c3.2-4.3,7.3-7.4,13.8-7.5c3.8-0.1,22.2-2.3,15.7,4.8c-6.9,7.5-16.4,14.1-26.5,17.5
				c-9.1,3-9.6-2.5-6.5-8.7C146,289.5,147.2,287.5,148.5,285.6z"/>
			<path class="st21" d="M116.2,358.9c3.8,7.9,12.3,7.3,16.1-1.1c1.6-3.6,1.9-7.5,2.4-11.3c0.9-6.9,4.3-14.3,8.2-20.4
				c1-1.6,3.1-4,3.2-5.9c0.2-2.9,1-1.9-1.7-2.9c-3.9-1.5-12.8,0.5-16.8,1.7C109.1,324.4,110.2,346.5,116.2,358.9z"/>
			<path class="st8" d="M129.8,319.6c-2.1-0.1-4.7,0.7-6.4,2.1c-1.8,1.4-2.9,3.6-2.6,5.6c0.3,2.1,2.1,3.8,4.4,4.3
				c2.3,0.4,4.9-0.5,6.4-2.2c1.3-1.5,1.7-3.4,2-5.2C134.2,321.1,132.3,319.8,129.8,319.6z"/>
		</g>
	</g>
</g>
</svg>
