<?xml version="1.0" encoding="utf-8"?>
<!-- Generator: Adobe Illustrator 17.0.1, SVG Export Plug-In . SVG Version: 6.00 Build 0)  -->
<!DOCTYPE svg PUBLIC "-//W3C//DTD SVG 1.1//EN" "http://www.w3.org/Graphics/SVG/1.1/DTD/svg11.dtd">
<svg version="1.1" xmlns="http://www.w3.org/2000/svg" xmlns:xlink="http://www.w3.org/1999/xlink" x="0px" y="0px"
	 width="2266.5px" height="2432.2px" viewBox="0 0 2266.5 2432.2" enable-background="new 0 0 2266.5 2432.2" xml:space="preserve">
<g id="Layer_1">
</g>
<g id="Layer_3">
	<g>
		<g>
			<g>
				<path fill="#ED1C24" d="M867.3,877.6c-162.4,44.7-275.9,147.8-402,341.1c-121.8,186.8-316.7,308.6-450.7,316.7
					C181.1,1649,461.3,1645,461.3,1645s235.5-138,292.3-548.1"/>
				<path fill="#ED1C24" d="M867.3,877.6c-11,3.6-22.1,6.8-32.9,10.6l-16.2,6.1l-8.1,3c-2.7,1-5.3,2.3-7.9,3.4
					c-10.5,4.7-21.2,9-31.3,14.5l-15.4,7.8c-5,2.8-10,5.8-14.9,8.7c-4.9,3-10,5.7-14.8,8.9l-14.4,9.5l-7.2,4.8
					c-2.4,1.6-4.6,3.4-7,5.1l-13.8,10.3c-4.7,3.3-9,7.1-13.5,10.8l-13.2,11c-8.7,7.6-17,15.5-25.5,23.3l-24.3,24.5l-23.2,25.5
					l-22.3,26.4l-21.3,27.1c-7,9.1-13.7,18.5-20.6,27.7c-6.9,9.2-13.2,18.8-19.9,28.2c-6.7,9.4-12.9,19-19.3,28.7l-19.1,28.9
					c-12.9,19.2-26.7,38-41.2,56.1c-14.6,18-30,35.4-46.1,52.2c-32.1,33.5-67.1,64.3-104.5,91.8c-37.4,27.5-77.3,51.8-119.8,71.1
					c-21.2,9.6-43.1,18-65.5,24.5c-22.5,6.5-45.6,11-69.2,12.7l2.8-10.2c8,5.2,15.9,10.6,24.3,15.3c8.2,5,16.8,9.3,25.2,13.8
					c8.7,4.2,17.3,8.4,26.1,12.2c8.7,4,17.8,7.4,26.7,10.9c9.1,3.3,18.1,6.7,27.2,9.6c9.1,3.1,18.4,5.8,27.6,8.6
					c9.3,2.5,18.6,5.2,28,7.5c9.3,2.4,18.8,4.5,28.2,6.6c9.4,2,18.9,4,28.4,5.7c9.5,1.8,19,3.4,28.6,4.9c9.5,1.5,19.1,2.9,28.7,4.2
					c9.6,1.2,19.2,2.4,28.8,3.5c19.2,2.1,38.5,3.7,57.8,4.9c9.6,0.5,19.3,1.1,29,1.4c9.6,0.3,19.4,0.6,28.9,0.5l-2.3,0.7
					c10.8-6.7,21.6-14.7,31.8-22.9c10.2-8.3,20.2-17,29.7-26.1c9.6-9,18.8-18.5,27.8-28.2c8.9-9.8,17.6-19.7,25.9-30
					c8.4-10.3,16.4-20.8,24.1-31.5c3.8-5.4,7.7-10.8,11.4-16.3l11-16.6c7-11.2,14-22.5,20.5-34.1l4.9-8.6l4.7-8.8
					c3.1-5.9,6.4-11.6,9.2-17.6l8.8-17.8c2.9-6,5.5-12.1,8.3-18.1l4.1-9.1l3.9-9.2l7.7-18.4l7.1-18.6l3.5-9.3l3.2-9.4l6.4-18.9
					c2.1-6.3,3.9-12.7,5.9-19c4-12.7,7.4-25.5,10.8-38.4l2.6-9.6l2.3-9.7l4.5-19.4c2.9-13,5.3-26.1,8-39.1l6.7-39.4l-5.7,39.5
					c-2.4,13.1-4.4,26.3-7.1,39.3l-4.2,19.5l-2.1,9.8l-2.4,9.7c-3.2,12.9-6.3,25.9-10.1,38.7c-1.9,6.4-3.6,12.8-5.5,19.2l-6.1,19
					l-3.1,9.5l-3.4,9.4l-6.7,18.8l-7.4,18.6l-3.7,9.3l-4,9.2c-2.7,6.1-5.3,12.3-8.1,18.3l-8.6,18.1c-2.8,6.1-6.1,11.9-9.1,17.9
					l-4.6,8.9l-4.9,8.8c-6.4,11.7-13.3,23.2-20.3,34.6l-10.9,16.8c-3.7,5.6-7.6,11-11.3,16.5c-7.7,10.9-15.7,21.7-24,32.1
					c-8.3,10.5-17,20.7-25.9,30.7c-9,9.9-18.2,19.6-27.9,28.9c-9.6,9.4-19.6,18.3-30,26.9c-10.4,8.6-20.9,16.7-32.7,24.1
					c-0.7,0.4-1.5,0.6-2.2,0.7l-0.1,0c-9.9,0.1-19.6-0.1-29.3-0.4c-9.7-0.3-19.5-0.8-29.2-1.3c-19.5-1.1-38.9-2.7-58.3-4.7
					c-9.7-1-19.4-2.2-29-3.4c-9.7-1.3-19.3-2.6-28.9-4.1c-9.6-1.5-19.3-3.1-28.8-4.9c-9.6-1.7-19.2-3.7-28.7-5.7
					c-9.5-2.1-19.1-4.2-28.5-6.6c-9.5-2.3-18.9-4.9-28.3-7.5c-9.4-2.8-18.8-5.5-28-8.6c-9.3-2.9-18.5-6.3-27.7-9.6
					c-9.1-3.6-18.3-7-27.2-11c-9.1-3.8-17.9-8.1-26.7-12.3c-8.7-4.6-17.5-8.9-25.9-14c-8.6-4.8-16.8-10.3-25-15.6
					c-2.6-1.7-3.3-5.1-1.7-7.7c1-1.5,2.6-2.4,4.3-2.5l0.2,0c22.5-1.5,44.9-5.7,66.8-12c21.9-6.3,43.3-14.4,64.1-23.8
					c41.7-18.8,81.1-42.6,118.2-69.6c37-27,71.7-57.3,103.6-90.3c16-16.5,31.2-33.7,45.8-51.4c14.6-17.8,28.3-36.1,41.3-55
					l19.4-28.7c6.5-9.6,12.9-19.2,19.7-28.6c6.8-9.4,13.2-19,20.3-28.2c7-9.2,13.9-18.5,21-27.7l21.8-27l22.7-26.3l23.7-25.4
					c8.3-8.1,16.5-16.3,24.8-24.3c8.7-7.6,17.2-15.5,26.1-23l13.5-10.9c4.5-3.6,9-7.3,13.7-10.6l14.1-10.1c2.4-1.7,4.7-3.4,7.1-5
					l7.3-4.7l14.6-9.3c4.9-3.1,10-5.7,15-8.6c5.1-2.8,10.1-5.7,15.2-8.4l15.6-7.6c10.3-5.3,21.1-9.5,31.7-14c2.7-1.1,5.3-2.3,8-3.2
					l8.2-2.9l16.4-5.7C845.1,883.8,856.2,880.9,867.3,877.6z"/>
			</g>
			<g>
				<path fill="#ED1C24" d="M1399.2,877.6c162.4,44.7,275.9,147.8,402,341.1c121.8,186.8,316.7,308.6,450.7,316.7
					C2085.3,1649,1805.2,1645,1805.2,1645s-235.5-138-292.3-548.1"/>
				<path fill="#ED1C24" d="M1399.2,877.6c11.1,3.3,22.2,6.3,33.2,9.8l16.4,5.7l8.2,2.9c2.7,1,5.4,2.2,8,3.2
					c10.6,4.5,21.5,8.6,31.7,14l15.6,7.6c5.1,2.7,10.1,5.6,15.2,8.4c5,2.9,10.2,5.5,15,8.6l14.6,9.3l7.3,4.7c2.4,1.6,4.7,3.3,7.1,5
					l14.1,10.1c4.8,3.3,9.2,7,13.7,10.6l13.5,10.9c8.9,7.5,17.4,15.3,26.1,23c8.3,8,16.6,16.2,24.8,24.3l23.7,25.4l22.7,26.3
					l21.8,27c7.1,9.1,14,18.4,21,27.7c7,9.2,13.5,18.8,20.3,28.2c6.8,9.4,13.2,19,19.7,28.6l19.4,28.7c13,18.9,26.8,37.2,41.3,55
					c14.6,17.7,29.8,34.9,45.8,51.4c31.9,33,66.5,63.3,103.6,90.3c37,27,76.5,50.8,118.2,69.6c20.8,9.4,42.2,17.5,64.1,23.8
					c21.9,6.2,44.3,10.5,66.8,12l0.2,0c3.1,0.2,5.4,2.8,5.2,5.9c-0.1,1.8-1.1,3.4-2.5,4.3c-8.3,5.3-16.5,10.8-25,15.6
					c-8.4,5.1-17.2,9.5-25.9,14c-8.9,4.2-17.7,8.6-26.7,12.3c-8.9,4-18.1,7.4-27.2,11c-9.2,3.3-18.4,6.7-27.7,9.6
					c-9.3,3.1-18.7,5.8-28,8.6c-9.4,2.5-18.8,5.2-28.3,7.5c-9.5,2.4-19,4.5-28.5,6.6c-9.6,2-19.1,4-28.7,5.7
					c-9.6,1.8-19.2,3.4-28.8,4.9c-9.6,1.5-19.3,2.9-28.9,4.1c-9.7,1.2-19.3,2.4-29,3.4c-19.4,2-38.8,3.6-58.3,4.7
					c-9.7,0.5-19.5,1-29.2,1.3c-9.8,0.3-19.5,0.5-29.3,0.4l-0.1,0c-0.8,0-1.6-0.3-2.2-0.7c-11.8-7.3-22.3-15.5-32.7-24.1
					c-10.4-8.6-20.4-17.5-30-26.9c-9.7-9.3-18.9-19-27.9-28.9c-8.9-10-17.6-20.2-25.9-30.7c-8.3-10.5-16.3-21.2-24-32.1
					c-3.8-5.5-7.7-11-11.3-16.5l-10.9-16.8c-6.9-11.4-13.9-22.8-20.3-34.6l-4.9-8.8l-4.6-8.9c-3-6-6.3-11.8-9.1-17.9l-8.6-18.1
					c-2.8-6-5.4-12.2-8.1-18.3l-4-9.2l-3.7-9.3l-7.4-18.6l-6.7-18.8l-3.4-9.4l-3.1-9.5l-6.1-19c-2-6.4-3.7-12.8-5.5-19.2
					c-3.8-12.8-6.9-25.7-10.1-38.7l-2.4-9.7l-2.1-9.8l-4.2-19.5c-2.7-13-4.7-26.2-7.1-39.3l-5.7-39.5l6.7,39.4
					c2.7,13,5.1,26.1,8,39.1l4.5,19.4l2.3,9.7l2.6,9.6c3.4,12.8,6.8,25.7,10.8,38.4c2,6.3,3.8,12.7,5.9,19l6.4,18.9l3.2,9.4l3.5,9.3
					l7.1,18.6l7.7,18.4l3.9,9.2l4.1,9.1c2.8,6,5.4,12.1,8.3,18.1l8.8,17.8c2.9,6,6.2,11.7,9.2,17.6l4.7,8.8l4.9,8.6
					c6.5,11.6,13.5,22.8,20.5,34.1l11,16.6c3.7,5.5,7.6,10.8,11.4,16.3c7.8,10.7,15.8,21.3,24.1,31.5c8.3,10.3,17,20.3,25.9,30
					c9,9.7,18.2,19.2,27.8,28.2c9.5,9.1,19.5,17.8,29.7,26.1c10.2,8.2,20.9,16.2,31.8,22.9l-2.3-0.7c9.5,0.1,19.3-0.2,28.9-0.5
					c9.7-0.3,19.3-0.8,29-1.4c19.3-1.2,38.6-2.8,57.8-4.9c9.6-1,19.2-2.2,28.8-3.5c9.6-1.3,19.1-2.7,28.7-4.2
					c9.5-1.6,19.1-3.1,28.6-4.9c9.5-1.7,18.9-3.7,28.4-5.7c9.4-2.1,18.8-4.2,28.2-6.6c9.4-2.3,18.6-4.9,28-7.5
					c9.2-2.8,18.5-5.5,27.6-8.6c9.2-2.9,18.2-6.3,27.2-9.6c8.9-3.6,17.9-7,26.7-10.9c8.9-3.7,17.5-8,26.1-12.2
					c8.5-4.5,17.1-8.8,25.2-13.8c8.4-4.7,16.3-10.1,24.3-15.3l2.8,10.2c-23.5-1.7-46.7-6.2-69.2-12.7c-22.5-6.6-44.3-14.9-65.5-24.5
					c-42.4-19.3-82.3-43.6-119.8-71.1c-37.4-27.5-72.4-58.3-104.5-91.8c-16.1-16.8-31.5-34.1-46.1-52.2
					c-14.5-18.1-28.3-36.9-41.2-56.1l-19.1-28.9c-6.3-9.6-12.6-19.3-19.3-28.7c-6.6-9.4-13-19-19.9-28.2
					c-6.9-9.2-13.6-18.6-20.6-27.7l-21.3-27.1l-22.3-26.4l-23.2-25.5l-24.3-24.5c-8.5-7.7-16.8-15.7-25.5-23.3l-13.2-11
					c-4.4-3.7-8.8-7.4-13.5-10.8l-13.8-10.3c-2.3-1.7-4.6-3.5-7-5.1l-7.2-4.8l-14.4-9.5c-4.8-3.2-9.9-5.9-14.8-8.9
					c-5-2.9-9.9-5.9-14.9-8.7l-15.4-7.8c-10.1-5.5-20.8-9.8-31.3-14.5c-2.6-1.1-5.2-2.4-7.9-3.4l-8.1-3l-16.2-6.1
					C1421.2,884.4,1410.1,881.1,1399.2,877.6z"/>
			</g>
		</g>
		<g>
			<g>
				<path fill="#C3922E" d="M1156.2,570.7c-21.1-95.6,34.2-201.3,57.9-296.9c23.7-95.6,7.9-256.7-79-256.7h-3.9
					c-86.9,0-102.7,161.1-79,256.7c23.7,95.6,79,201.3,57.9,296.9"/>
				<path fill="#C3922E" d="M1115.7,571.9l-10.9-2.4c14.9-67.4-9.4-140.9-32.9-212c-9-27.3-18.3-55.5-25-82.4
					c-18.5-74.5-13.4-182.3,26.9-233.9c15.5-19.8,34.8-29.8,57.5-29.8h3.9c22.7,0,42.1,10,57.5,29.8
					c40.3,51.6,45.4,159.4,26.9,233.9c-6.7,26.9-16,55.1-25,82.4c-23.5,71.1-47.8,144.6-32.9,212l-10.9,2.4
					c-15.5-70.4,9.3-145.4,33.2-217.9c9.4-28.3,18.2-55.1,24.8-81.6c17.4-70.3,12.9-176-24.9-224.3c-13.2-16.9-29.6-25.5-48.7-25.5
					h-3.9c-19.1,0-35.5,8.6-48.7,25.5c-37.7,48.2-42.3,154-24.9,224.3c6.6,26.5,15.4,53.2,24.8,81.6
					C1106.4,426.5,1131.2,501.5,1115.7,571.9z"/>
			</g>
			<g>
				<circle fill="#A06E21" cx="1133.2" cy="2254.2" r="166.5"/>
			</g>
			<g>
				<path fill="#FBC926" d="M1918.2,2224.4c-198-154.3-246.9-552.2-286.5-931.2c-39.6-379-284.2-506.2-498.5-506.2
					s-458.9,127.2-498.5,506.2s-88.5,776.9-286.5,931.2c0,0,269.8,58.3,748.9,58.3S1918.2,2224.4,1918.2,2224.4z"/>
				<path fill="#FBC926" d="M1097.1,2288.3c-474.2,0-747.4-57.8-750.1-58.4c-2.1-0.5-3.8-2.1-4.3-4.2c-0.5-2.1,0.3-4.3,2-5.7
					c188.7-147.1,240.5-507,284.4-927.3c18.3-175.3,80.8-309.5,185.7-398.9c85-72.4,198-112.3,318.4-112.3
					c120.3,0,233.4,39.9,318.4,112.3c104.9,89.4,167.3,223.6,185.7,398.9c43.9,420.3,95.6,780.2,284.4,927.3c1.8,1.4,2.5,3.6,2,5.8
					c-0.5,2.2-2.3,3.8-4.5,4.2C1915.7,2230.5,1571.2,2288.3,1097.1,2288.3z M361.1,2221.3c56.7,10.8,317.9,55.8,736.1,55.8
					c422.9,0,742.3-46,807.8-56.2c-85.2-71.6-149-194.9-194.8-376.4c-41.7-165.2-63.5-354.7-84-550.6
					c-48.6-465-389.6-501.2-492.9-501.2c-103.3,0-444.3,36.1-492.9,501.2c-20.5,195.9-42.3,385.4-84,550.6
					C510.4,2026.3,446.5,2149.7,361.1,2221.3z"/>
			</g>
			<g>
				<g>
					<path fill="#C3922E" d="M1097.1,2311.1c-476.7,0-743.8-56.5-754.9-58.9c-15.3-3.3-25.1-18.4-21.8-33.8
						c3.3-15.3,18.4-25.1,33.8-21.8c3.2,0.7,273.4,57.6,742.9,57.6c470.9,0,812.9-57.3,816.3-57.9c15.4-2.6,30.2,7.8,32.8,23.2
						c2.6,15.5-7.8,30.2-23.2,32.8C1919.5,2253,1573.2,2311.1,1097.1,2311.1z"/>
					<path fill="#C3922E" d="M1097.1,2316.7c-477.4,0-744.9-56.6-756.1-59c-8.9-1.9-16.5-7.2-21.4-14.8c-4.9-7.6-6.6-16.7-4.7-25.6
						c3.4-15.6,17.3-26.9,33.2-26.9c2.4,0,4.9,0.3,7.2,0.8c2.7,0.6,273.5,57.5,741.7,57.5c471.1,0,812-57.2,815.4-57.8
						c1.9-0.3,3.8-0.5,5.7-0.5c16.6,0,30.7,11.9,33.5,28.3c3.2,18.5-9.3,36.1-27.8,39.2C1920.5,2258.5,1573.9,2316.7,1097.1,2316.7z
						 M348.2,2201.6c-10.6,0-20,7.6-22.3,18c-1.3,6-0.2,12.1,3.1,17.2c3.3,5.1,8.4,8.7,14.4,9.9c11.1,2.4,277.5,58.8,753.7,58.8
						c475.8,0,821.5-58,824.9-58.6c12.4-2.1,20.8-13.9,18.7-26.3c-1.9-11-11.3-19-22.5-19c-1.3,0-2.6,0.1-3.9,0.3
						c-3.4,0.6-345.2,57.9-817.2,57.9c-469.4,0-741.4-57.2-744.1-57.8C351.5,2201.8,349.8,2201.6,348.2,2201.6z"/>
				</g>
			</g>
			<g>
				<g>
					<path fill="#C3922E" d="M1133.2,1978.2c-195,0-399-8.2-606.3-24.3c-15.7-1.2-27.4-14.9-26.1-30.5c1.2-15.6,14.9-27.3,30.5-26.1
						c205.8,16,408.4,24.1,601.9,24.1c194.4,0,397.4-8.2,603.3-24.2c15.7-1.3,29.3,10.5,30.5,26.1c1.2,15.7-10.5,29.3-26.1,30.5
						C1533.5,1970,1329,1978.2,1133.2,1978.2z"/>
					<path fill="#C3922E" d="M1133.2,1983.8c-195.2,0-399.3-8.2-606.8-24.3c-9.1-0.7-17.3-4.9-23.2-11.8c-5.9-6.9-8.8-15.7-8.1-24.8
						c1.4-18.5,17.8-32.8,36.6-31.3c205.7,16,408.1,24.1,601.5,24.1c194.2,0,397.1-8.1,602.8-24.2c0.9-0.1,1.8-0.1,2.8-0.1
						c17.6,0,32.4,13.8,33.8,31.4c1.5,18.7-12.6,35.1-31.3,36.6C1533.8,1975.6,1329.2,1983.8,1133.2,1983.8z M529,1902.7
						c-11.8,0-21.8,9.2-22.7,21c-0.5,6.1,1.4,12,5.4,16.6c4,4.6,9.5,7.4,15.6,7.9c207.2,16.1,411,24.3,605.9,24.3
						c195.7,0,400-8.2,607.3-24.4c12.5-1,21.9-12,21-24.5c-1-12.4-11.9-22-24.5-21c-206.1,16.1-409.2,24.2-603.7,24.2
						c-193.7,0-396.3-8.1-602.4-24.1C530.2,1902.8,529.6,1902.7,529,1902.7z"/>
				</g>
			</g>
		</g>
		<g>
			<g>
				<path fill="#ED1C24" d="M1103,603.2c-115.6-80.9-450.7-470-758.9-431.5C171,193.4,112.9,349,163,541.6s10.7,288.1-15.4,377.5
					c-53.9,184.9,263.5,218.1,416.1,154.1C802.5,973.1,952.8,807.4,1118,779.4"/>
				<path fill="#961A1E" d="M394.1,1108.9c-84.5,0-169.4-19.6-217.7-62.7c-37.2-33.2-48.9-77.6-34.1-128.6
					c2.3-7.9,4.7-15.8,7.2-23.9c25.1-82.7,53.5-176.5,8.2-350.7c-30-115.6-21.1-216.8,25.3-285.1c34.7-51.2,90.2-82.9,160.5-91.7
					c244.8-30.6,505.6,205,661.4,345.8c43,38.9,77,69.5,101.4,86.7l-6.4,9.2c-25-17.5-59.2-48.4-102.5-87.5
					c-154.4-139.5-412.8-372.9-652.5-343c-68,8.5-119.3,37.7-152.6,86.8c-44.5,65.6-52.9,163.6-23.7,276
					c46.1,177.2,17.2,272.6-8.3,356.7c-2.4,8-4.8,15.9-7.1,23.8c-13.8,47.2-3.4,86.5,30.8,117.1c79.7,71.1,271.8,74.7,377.7,30.3
					c108.4-45.5,199.8-105.3,280.4-158.1c98.8-64.7,184.1-120.6,275.2-136.1l1.9,11C1030.2,800,945.8,855.3,848,919.3
					c-81,53.1-172.8,113.2-282.2,159.1C518.6,1098.2,456.4,1108.9,394.1,1108.9z"/>
			</g>
			<g>
				<path fill="#C1272D" d="M999,550.4c13,25.9-24.4-63.9-134.8-70.4c-393-23.1-639.7-135.6-631.8-196.5
					c11.6-88.6,116.8-100.5,208-92.5C571.4,202.6,929.7,411.7,999,550.4z"/>
				<path fill="#C1272D" d="M999,550.4c0,0,0.8,1.6,2.4,4.5c0.2,0.4-0.1-0.1-0.2-0.2l-0.4-0.6c-0.3-0.4-0.5-0.8-0.8-1.2
					c-0.6-0.9-1.3-1.8-2-2.8c-1.5-2-3.2-4.3-5.3-6.8c-8.3-10-21.8-24-42.6-36.7c-20.7-12.7-49.1-23.7-83-25.9
					c-33.9-1.8-72.1-4.6-113.7-8.6c-41.6-4.1-86.5-9.7-133.8-17.6c-47.3-7.9-96.9-17.9-147.5-31.4c-50.5-13.5-102.4-30-152.4-53.6
					c-24.9-12-49.7-25.4-71.2-44.8c-5.3-4.9-10.3-10.3-14.5-16.6c-4.1-6.3-7.7-13.9-7.4-22.7c0.7-7.9,2.2-14.7,4.4-21.9
					c2.2-7,5.2-13.8,9.1-20.2c7.6-12.8,18.5-23.4,30.7-31.4c12.2-8,25.7-13.7,39.3-17.7c27.4-8.1,55.7-10.4,83.4-10.4
					c13.9,0,27.6,0.7,41.3,1.8c6.8,0.5,13.7,1.3,20.6,2.5c6.8,1.2,13.5,2.7,20.1,4.4c26.4,6.9,51.4,16.3,75.6,26.4
					c48.3,20.4,93.2,43.8,134.8,67.6c41.6,23.9,79.8,48.3,114,72.2c34.2,24,64.7,47.2,90.6,69.2c25.9,22,47.3,42.5,63.7,60.5
					c16.4,18,27.8,33.5,34.8,44.5c1.8,2.7,3.3,5.2,4.5,7.4c1.3,2.1,2.3,4,3.1,5.5C998.2,548.8,999,550.4,999,550.4z M999,550.4
					c0,0-0.8-1.5-2.4-4.5c-0.8-1.5-1.8-3.3-3.1-5.5c-1.2-2.2-2.7-4.6-4.5-7.4c-7-11-18.5-26.4-34.9-44.4
					c-16.5-17.9-37.9-38.4-64.1-60c-26.1-21.6-56.7-44.7-91.4-67.9c-34.7-23.2-73.2-46.9-115.1-69.9
					c-41.9-22.9-87.1-45.5-135.3-64.7c-24.1-9.5-49.1-18.4-74.9-24.6c-6.5-1.5-12.9-2.9-19.5-3.9c-6.4-1-13-1.8-19.8-2.2
					c-13.4-1-27-1.5-40.5-1.4c-13.5,0.1-27.1,0.9-40.6,2.5c-13.5,1.6-26.8,4.1-39.7,8c-12.9,3.9-25.3,9.2-36.3,16.5
					c-11,7.3-20.5,16.7-27.2,27.9c-3.4,5.6-6.1,11.6-8.1,17.8c-2,6.1-3.4,13-4,18.9c-0.3,5.3,2.1,11,5.5,16.3
					c3.5,5.3,7.9,10.2,12.8,14.7c9.7,9.1,21,16.8,32.5,24c11.5,7.1,23.5,13.6,35.7,19.6c24.4,12,49.5,22,74.6,31.1
					c25.1,9.1,50.4,17.1,75.4,24.3c50.1,14.3,99.3,25.3,146.3,34c47,8.7,91.8,15.2,133.2,20c41.5,5,79.6,7.9,113.5,10.1
					c34,2.6,62.4,13.6,83.1,26.4c20.8,12.9,34.3,26.9,42.5,36.9c2.1,2.5,3.8,4.8,5.3,6.8c0.7,1,1.4,2,2,2.8c0.3,0.4,0.6,0.9,0.8,1.3
					l0.4,0.6c0.1,0.1,0.3,0.6,0.1,0.3C999.7,551.9,999,550.4,999,550.4z"/>
			</g>
			<g>
				<path fill="#ED1C24" d="M1163.4,603.2c115.6-80.9,450.7-470,758.9-431.5c173.1,21.6,231.1,177.2,181.1,369.8
					s-10.7,288.1,15.4,377.5c53.9,184.9-263.5,218.1-416.1,154.1c-238.9-100.2-389.1-265.8-554.3-293.9"/>
				<path fill="#961A1E" d="M1872.4,1108.9c-62.4,0-124.6-10.7-171.8-30.5c-109.4-45.9-201.2-106-282.2-159.1
					c-97.8-64-182.2-119.4-270.9-134.4l1.9-11c91,15.5,176.4,71.4,275.2,136.1c80.6,52.8,171.9,112.7,280.4,158.1
					c105.9,44.4,298.1,40.8,377.7-30.3c34.2-30.5,44.5-69.9,30.8-117.1c-2.3-7.9-4.7-15.8-7.1-23.8c-25.5-84.2-54.4-179.6-8.3-356.7
					c29.2-112.4,20.8-210.4-23.7-276c-33.3-49.1-84.7-78.3-152.6-86.8c-239.7-29.9-498.1,203.5-652.5,343
					c-43.3,39.1-77.5,70-102.5,87.5l-6.4-9.2c24.5-17.1,58.4-47.8,101.4-86.7c155.8-140.8,416.6-376.4,661.4-345.8
					c70.3,8.8,125.8,40.5,160.5,91.7c46.3,68.3,55.3,169.6,25.3,285.1c-45.3,174.1-16.9,267.9,8.2,350.7c2.4,8.1,4.8,16,7.2,23.9
					c14.9,50.9,3.1,95.4-34.1,128.6C2041.8,1089.3,1956.9,1108.9,1872.4,1108.9z"/>
			</g>
			<g>
				<path fill="#C1272D" d="M1267.4,550.4c-13,25.9,24.4-63.9,134.8-70.4c393-23.1,639.7-135.6,631.8-196.5
					c-11.6-88.6-116.8-100.5-208-92.5C1695.1,202.6,1336.8,411.7,1267.4,550.4z"/>
				<path fill="#C1272D" d="M1267.4,550.4c0,0-0.7,1.6-2.4,4.5c-0.2,0.4,0.1-0.2,0.1-0.3l0.4-0.6c0.3-0.4,0.5-0.8,0.8-1.3
					c0.6-0.9,1.2-1.8,2-2.8c1.4-2,3.2-4.3,5.3-6.8c8.3-10,21.8-24.1,42.5-36.9c20.6-12.9,49.1-23.8,83.1-26.4
					c33.9-2.3,72-5.2,113.5-10.1c41.5-4.9,86.2-11.3,133.2-20c47-8.7,96.2-19.7,146.3-34c25-7.2,50.2-15.2,75.4-24.3
					c25.1-9.1,50.3-19.2,74.6-31.1c12.2-6,24.2-12.4,35.7-19.6c11.5-7.1,22.7-14.9,32.5-24c4.8-4.5,9.3-9.4,12.8-14.7
					c3.4-5.2,5.8-11,5.5-16.3c-0.6-5.9-2-12.8-4-18.9c-2-6.2-4.7-12.2-8.1-17.8c-6.7-11.2-16.1-20.6-27.2-27.9
					c-11-7.3-23.5-12.6-36.3-16.5c-12.9-3.9-26.3-6.4-39.7-8c-13.5-1.6-27-2.4-40.6-2.5c-13.5-0.1-27.1,0.4-40.5,1.4
					c-6.7,0.4-13.3,1.2-19.8,2.2c-6.5,1.1-13,2.5-19.5,3.9c-25.8,6.2-50.7,15-74.9,24.6c-48.3,19.3-93.5,41.8-135.3,64.7
					c-41.9,23-80.4,46.7-115.1,69.9c-34.7,23.2-65.3,46.2-91.4,67.9c-26.2,21.6-47.6,42.1-64.1,60c-16.5,17.9-28,33.3-34.9,44.4
					c-1.8,2.7-3.3,5.2-4.5,7.4c-1.3,2.1-2.3,4-3.1,5.5C1268.3,548.8,1267.4,550.4,1267.4,550.4z M1267.4,550.4c0,0,0.8-1.5,2.4-4.5
					c0.8-1.5,1.8-3.3,3.1-5.5c1.2-2.2,2.7-4.6,4.5-7.4c6.9-11,18.4-26.5,34.8-44.5c16.4-18,37.8-38.5,63.7-60.5
					c25.9-22,56.4-45.2,90.6-69.2c34.3-23.9,72.5-48.4,114-72.2c41.6-23.8,86.5-47.3,134.8-67.6c24.2-10.1,49.2-19.5,75.6-26.4
					c6.6-1.7,13.3-3.2,20.1-4.4c6.9-1.2,13.8-2,20.6-2.5c13.6-1.1,27.4-1.8,41.3-1.8c27.7,0,56,2.3,83.4,10.4
					c13.7,4.1,27.1,9.7,39.3,17.7c12.2,8,23,18.6,30.7,31.4c3.8,6.3,6.8,13.2,9.1,20.2c2.2,7.1,3.7,13.9,4.4,21.9
					c0.3,8.8-3.3,16.4-7.4,22.7c-4.2,6.3-9.2,11.7-14.5,16.6c-21.4,19.4-46.3,32.7-71.2,44.8c-50,23.7-101.9,40.1-152.4,53.6
					c-50.6,13.4-100.2,23.5-147.5,31.4c-47.3,7.9-92.2,13.5-133.8,17.6c-41.6,4-79.8,6.8-113.7,8.6c-33.9,2.2-62.3,13.1-83,25.9
					c-20.8,12.8-34.3,26.7-42.6,36.7c-2.1,2.5-3.8,4.8-5.3,6.8c-0.7,1-1.4,2-2,2.8c-0.3,0.4-0.6,0.9-0.8,1.2l-0.4,0.6
					c-0.1,0.1-0.4,0.6-0.2,0.2C1266.7,551.9,1267.4,550.4,1267.4,550.4z"/>
			</g>
		</g>
		<g>
			<g>
				<g>
					<path fill="#961A1E" d="M977.9,600.7c0,0-8.2-1.5-22.6-4c-14.4-2.7-34.8-6.7-59.3-11.8c-24.4-5.1-52.9-11.2-83.4-17.1
						c-30.5-5.8-63.2-11.6-96.1-14c-16.4-1.1-32.9-1.4-48.8,0.9c-7.9,1.1-15.6,3-22.7,6c-7,3.1-13.4,7.4-17.8,13.3
						c-2.2,2.9-4,6.1-5.2,9.5c-1.2,3.4-2,7-2.3,10.6c-0.6,7-0.8,15,2.8,20.1c3.5,5.6,9.9,8.6,16.1,10.6c6.3,1.9,12.7,2.6,18.9,3
						c12.4,0.7,23.8-0.2,33.8-1.3c10-1.2,18.8-2.6,25.9-3.9c14.3-2.7,22.3-4.8,22.3-4.8s-8,2.4-22.2,5.5c-7.1,1.5-15.8,3.2-25.9,4.7
						c-10.1,1.4-21.5,2.6-34.1,2.3c-6.3-0.2-12.9-0.8-19.6-2.6c-3.3-1-6.7-2.1-9.8-4c-3.2-1.7-6.1-4.3-8.4-7.5
						c-0.5-0.8-1.1-1.6-1.5-2.5l-1.1-2.9c-0.4-1-0.5-1.8-0.7-2.7c-0.2-1-0.4-1.6-0.5-2.9c-0.3-3.7-0.5-7.6-0.2-11.4
						c0.2-3.9,1-7.8,2.3-11.6c1.2-3.8,3.1-7.6,5.5-10.9c4.8-6.8,11.9-11.8,19.4-15.4c7.6-3.5,15.7-5.7,24-7.1
						c16.5-2.8,33.4-3,50.2-2.3c33.5,1.5,66.6,6.4,97.5,11.4c30.8,5.1,59.5,10.4,84,14.7c24.5,4.4,45,7.8,59.3,10.1
						c14.3,2.1,22.5,3.3,22.5,3.3L977.9,600.7z"/>
				</g>
				<g>
					<path fill="#961A1E" d="M996.8,663.3c0,0-0.9,1-2.6,2.8c-1.7,1.8-4.2,4.4-7.5,7.8c-6.5,6.7-16,16.2-27.8,27
						c-23.6,21.7-57,48.5-93.4,70.7c-18.2,11.1-37,21.1-55.4,28.9c-18.4,7.8-36.3,13.7-52.3,15.2c-7.9,0.7-15.7,0.4-21.6-3
						c-3-1.7-4.9-4.5-5.7-7.2c-0.8-2.8-0.6-5.5-0.2-7.8c0.9-4.6,2.5-7.9,3.5-10.2c1.1-2.2,1.8-3.4,1.8-3.4s-0.6,1.2-1.6,3.4
						c-0.9,2.3-2.4,5.7-3,10.2c-0.3,2.3-0.3,4.8,0.5,7.4c0.8,2.5,2.7,4.9,5.5,6.3c5.5,2.9,13,2.9,20.7,1.9
						c15.5-2.2,32.9-8.8,50.7-17.2c17.8-8.5,35.9-19.2,53.3-30.9c34.9-23.4,66.6-51.3,88.7-73.5c11.1-11.1,20-20.8,26-27.6
						c3-3.4,5.4-6.1,7-8c1.6-1.9,2.5-2.9,2.5-2.9L996.8,663.3z"/>
				</g>
			</g>
			<g>
				<g>
					<path fill="#961A1E" d="M1286.3,586c0,0,8.2-1.2,22.5-3.3c14.3-2.2,34.7-5.7,59.3-10.1c24.5-4.4,53.2-9.7,84-14.7
						c30.8-5,63.9-9.9,97.5-11.4c16.8-0.7,33.7-0.5,50.2,2.3c8.2,1.4,16.4,3.6,24,7.1c7.5,3.5,14.6,8.6,19.4,15.4
						c2.4,3.3,4.3,7.1,5.5,10.9c1.3,3.8,2,7.8,2.3,11.6c0.4,3.9,0.1,7.7-0.2,11.4c-0.1,1.3-0.3,1.9-0.5,2.9
						c-0.2,0.9-0.3,1.8-0.7,2.7l-1.1,2.9c-0.5,0.9-1,1.7-1.5,2.5c-2.2,3.2-5.1,5.7-8.4,7.5c-3.1,1.9-6.5,3-9.8,4
						c-6.7,1.8-13.3,2.4-19.6,2.6c-12.6,0.3-24-0.9-34.1-2.3c-10.1-1.5-18.7-3.1-25.9-4.7c-14.2-3.1-22.2-5.5-22.2-5.5
						s8,2.1,22.3,4.8c7.1,1.3,15.9,2.8,25.9,3.9c10,1.1,21.5,2,33.8,1.3c6.2-0.4,12.6-1.1,18.9-3c6.1-1.9,12.6-5,16.1-10.6
						c3.6-5.1,3.4-13.1,2.8-20.1c-0.3-3.6-1.1-7.2-2.3-10.6c-1.2-3.4-2.9-6.7-5.2-9.5c-4.4-5.9-10.8-10.2-17.8-13.3
						c-7.1-3-14.8-4.9-22.7-6c-15.9-2.3-32.4-2-48.8-0.9c-32.9,2.4-65.6,8.2-96.1,14c-30.5,5.9-59,12-83.4,17.1
						c-24.4,5.1-44.9,9.1-59.3,11.8c-14.4,2.6-22.6,4-22.6,4L1286.3,586z"/>
				</g>
				<g>
					<path fill="#961A1E" d="M1280.8,653.3c0,0,0.9,1,2.5,2.9c1.6,1.9,4,4.6,7,8c6.1,6.8,14.9,16.5,26,27.6
						c22.2,22.2,53.8,50.1,88.7,73.5c17.4,11.7,35.6,22.4,53.3,30.9c17.7,8.5,35.1,15,50.7,17.2c7.7,1,15.2,1,20.7-1.9
						c2.8-1.4,4.6-3.8,5.5-6.3c0.9-2.6,0.8-5.1,0.5-7.4c-0.7-4.5-2.1-7.9-3-10.2c-1-2.2-1.6-3.4-1.6-3.4s0.6,1.2,1.8,3.4
						c1,2.2,2.6,5.6,3.5,10.2c0.4,2.3,0.6,5-0.2,7.8c-0.8,2.8-2.7,5.6-5.7,7.2c-5.9,3.4-13.7,3.7-21.6,3c-16.1-1.6-34-7.4-52.3-15.2
						c-18.4-7.8-37.2-17.8-55.4-28.9c-36.4-22.2-69.8-49-93.4-70.7c-11.8-10.8-21.3-20.3-27.8-27c-3.3-3.4-5.8-6-7.5-7.8
						c-1.7-1.8-2.6-2.8-2.6-2.8L1280.8,653.3z"/>
				</g>
			</g>
		</g>
		<g>
			<path fill="#ED1C24" d="M1143.6,503.1c92.5-3.9,138.7-80.9,173.4,0c34.7,80.9-27,173.4,11.6,231.1s-9.8,142.2-69.3,119.4
				c-40.3-15.4-121.2-19.3-121.2-19.3c-34.7-7.7-73.2-7.7-131,19.3c-57.8,27-107.9-61.6-69.3-119.4c38.5-57.8-23.1-150.2,11.6-231.1
				s80.9-3.9,173.4,0H1143.6z"/>
			<path fill="#90181B" d="M1143.6,502.5c15.3-0.8,30.4-3.4,45-7.9c14.6-4.5,28.7-10.4,42.7-16.6c7-3.1,14-6.2,21.3-8.9
				c7.3-2.6,14.9-4.9,23-5.2c8-0.2,16.7,2.1,23.1,7.3c6.6,5,11.4,11.6,15.4,18.4c4.1,6.8,7.2,14.1,10,21.3c2.8,7.6,4.7,15.2,6.1,23
				c1.3,7.8,2,15.6,2.4,23.5c0.3,7.8,0,15.7-0.5,23.4c-1.1,15.5-3.3,30.9-5.7,46c-2.3,15.1-4.8,30.2-6,45.1
				c-1,14.9-0.8,29.9,3.5,43.9l1.8,5.1c0.7,1.7,1.5,3.3,2.2,4.9c0.7,1.7,1.8,3.2,2.6,4.8l2.9,5l1.5,2.5l1.4,2.7
				c0.9,1.8,1.8,3.7,2.5,5.5c1.5,3.7,2.7,7.5,3.7,11.4c3.9,15.5,3.3,31.8-1.2,46.9c-4.5,15-12.7,29.2-24.6,39.6
				c-5.9,5.2-12.8,9.4-20.2,12c-7.5,2.6-15.6,3.5-23.4,2.6c-2-0.2-3.9-0.5-5.8-1c-1.9-0.4-3.9-0.8-5.7-1.5l-5.5-1.7l-5.5-1.7
				c-3.7-1-7.3-2.4-11-3.2l-11.1-2.4c-14.8-3.1-30-5.1-45.2-6.8c-15.2-1.4-30.5-2.6-45.7-3.2c-0.1,0-0.3,0-0.4,0l-0.1,0
				c-15.5-3.2-31.3-4.4-46.9-3.2l-5.9,0.5l-2.9,0.2l-2.9,0.5l-11.6,2.1c-3.8,0.7-7.6,2-11.4,2.9c-3.8,1.1-7.6,1.9-11.3,3.4
				c-7.4,2.7-14.9,5-22.1,8.5l-10.9,4.8l-2.9,1.3l-2.8,1.2c-1,0.4-1.8,0.8-2.8,1.1l-3.3,1c-8.6,2.5-17.7,2.9-26.3,0.8
				c-8.6-2.1-16.6-6.3-23.3-11.8c-13.4-11.1-22.4-26.3-27.3-42.5c-4.9-16.2-5.7-33.8-1.6-50.5c2.1-8.3,5.4-16.4,9.9-23.7l3.1-5.1
				l1.5-2.6c0.5-0.8,0.8-1.6,1.2-2.4c1.6-3,2.9-6.6,4-10.1c4.4-14.2,4.6-29.9,3.3-45.4c-2.5-31.3-10.1-62.9-11.2-95.7
				c-0.5-16.3,0.5-33,4.6-49.1c2-8.1,4.9-15.8,8.3-23.5l2.6-5.4l3.1-5.5c2.2-3.6,4.5-7.1,7.3-10.4c1.2-1.7,2.9-3.1,4.4-4.7
				c1.6-1.5,3.3-2.8,5.1-4.1c3.7-2.4,7.7-4.4,12-5.4c8.7-2,17.4-0.6,25.2,1.6c15.8,4.8,30,12.2,44.8,18.3
				c14.7,6.4,29.8,11.5,45.4,14.8c7.8,1.6,15.7,2.8,23.7,3.2C1127.6,502.6,1135.6,502.4,1143.6,502.5z M1143.6,503.6
				c-8,0-16,0.3-24.1-0.1c-8-0.3-16-1.5-24-2.9c-15.9-2.9-31.3-7.9-46.3-13.5c-15.1-5.5-29.8-12.3-44.9-16.1
				c-7.5-1.8-15.3-2.5-22.3-0.5c-3.5,1-6.6,2.7-9.6,4.9c-1.4,1.2-2.8,2.3-4.1,3.7c-1.2,1.4-2.6,2.7-3.6,4.3c-2.3,3-4.3,6.3-6.1,9.6
				l-2.6,5.1l-2.4,5.5c-2.8,7.1-5.4,14.5-6.9,22c-3.2,15.1-3.9,30.8-3.1,46.4c0.9,15.7,3.1,31.4,5.6,47.1c2.5,15.8,5.3,31.7,6.7,48
				c1.3,16.3,1.3,33.4-3.9,49.9c-0.5,2.1-1.4,4.1-2.2,6.1c-0.7,2-1.7,4-2.7,6.1c-0.5,1-1,2.1-1.5,3l-1.6,2.6l-3.2,5.2
				c-3.9,6.3-6.9,13.2-8.8,20.4c-3.8,14.4-3.3,30,0.9,44.5c4.2,14.4,12.1,28,23.4,37.6c5.7,4.7,12.2,8.2,19.1,10
				c6.9,1.9,14.4,1.7,21.2-0.2c3.1-0.6,7.4-2.6,10.7-3.9l11.3-4.7c7.4-3.4,15.3-5.6,23-8.2c3.8-1.4,7.8-2.2,11.8-3.2
				c4-0.9,7.9-2,12-2.7l12.2-1.8l3-0.4l3.1-0.2l6.1-0.3c16.4-0.7,32.8,1,48.6,4.8l-0.5-0.1c15.4,1,30.6,2.7,45.9,4.5
				c15.2,2.1,30.4,4.1,45.5,7.5l11.3,2.6c3.8,0.8,7.3,2.2,11,3.3l10.9,3.5c1.7,0.7,3.5,1.1,5.4,1.5c1.8,0.5,3.6,0.7,5.5,0.9
				c7.4,0.8,14.9-0.1,21.9-2.6c7-2.5,13.4-6.5,18.9-11.6c11-10.1,18.6-23.6,22.3-38c3.7-14.4,3.7-29.8-0.4-43.9
				c-1-3.5-2.2-7-3.8-10.3c-0.7-1.7-1.5-3.3-2.4-4.9l-1.3-2.4l-1.5-2.4l-3-4.8c-1-1.7-2.2-3.4-3.1-5.2c-0.9-1.8-1.9-3.6-2.7-5.4
				l-2.2-5.6c-5.3-15.3-6.1-31.5-5.3-47.1c0.9-15.6,3.2-30.9,5.6-46c2.3-15.1,4.6-30.2,5.8-45.2c0.6-7.5,0.8-15,0.8-22.5
				c-0.1-7.5-0.6-14.9-1.6-22.3c-1.2-7.3-2.6-14.7-4.9-21.6c-2.4-7.2-5-14.1-8.6-20.7c-3.5-6.5-7.6-12.6-13.1-17.2
				c-5.3-4.7-12.3-6.9-19.5-7.1c-7.3,0-14.6,1.8-21.8,4c-7.2,2.3-14.3,5.1-21.5,7.9c-14.3,5.6-28.5,11.4-43.4,15.5
				C1174.3,500.3,1159,503,1143.6,503.6L1143.6,503.6C1143.6,503.6,1143.6,503.6,1143.6,503.6z"/>
		</g>
		<g>
			<polygon fill="#FCEE21" points="326.4,486.8 384.6,551.6 464.2,516.3 420.6,591.7 478.8,656.5 393.6,638.3 349.9,713.7 
				340.9,627 255.7,608.8 335.4,573.5 			"/>
			<path fill="#FCEE21" d="M326.8,486.5l59.9,63.3l-3.2-0.7l78.7-37.4c2.5-1.2,5.5-0.1,6.7,2.4c0.7,1.6,0.6,3.3-0.2,4.7l0,0.1
				l-45.1,74.5l-0.4-3.9l57,65.9c0.6,0.7,0.5,1.8-0.2,2.4c-0.4,0.4-0.9,0.5-1.4,0.4l-85.5-16.6l3.6-1.6l-42.2,76.2
				c-1.3,2.4-4.4,3.3-6.8,2c-1.5-0.8-2.4-2.3-2.6-3.8l0-0.1l-9.3-86.6l4.2,4.7l-85.2-17.9l-0.1,0c-3-0.6-4.9-3.6-4.3-6.6
				c0.4-1.9,1.7-3.3,3.3-4l80.6-33l-1.8,3.1l-6.5-86.9c0-0.3,0.2-0.6,0.5-0.6C326.5,486.3,326.7,486.3,326.8,486.5z M327.2,488.6
				l11.3,84.5c0.2,1.3-0.5,2.5-1.6,3.1l-0.2,0.1L258,613.9l-1.1-10.6l85.1,18.5l0,0c2.3,0.5,3.9,2.4,4.1,4.6l8.7,86.7l-9.4-2
				l45.1-74.5l0.1-0.1c0.8-1.2,2.2-1.8,3.5-1.5l84.8,19.9l-1.6,2.8l-59.5-63.7c-1-1.1-1.1-2.6-0.5-3.8l0.1-0.1l42.2-76.2l6.4,7.1
				l-80.5,33.3l-0.1,0.1c-1.1,0.5-2.3,0.1-3.1-0.7L327.2,488.6z"/>
		</g>
		<g>
			<polygon fill="#FBC926" points="628.2,807.2 633.6,871.4 696.3,886.1 637,911.1 642.4,975.3 600.3,926.6 540.9,951.6 
				574.2,896.5 532.1,847.7 594.8,862.4 			"/>
			<path fill="#FBC926" d="M628.7,807.2l7.7,64l-2.2-2.5l63.2,12.5c2.7,0.5,4.5,3.2,3.9,5.9c-0.3,1.7-1.5,3.1-3,3.7l-0.1,0l-60,23.5
				l2-3.4l3.8,64.3c0.1,0.9-0.7,1.7-1.6,1.8c-0.5,0-1-0.2-1.4-0.6l-43.4-47.6l3.8,0.9l-58.7,26.6c-2.5,1.1-5.5,0-6.6-2.5
				c-0.7-1.5-0.5-3.2,0.2-4.6l0.1-0.2l33.1-55.3l0.5,6.2l-42.4-48.5l-0.1-0.1c-2-2.3-1.8-5.8,0.5-7.8c1.4-1.3,3.4-1.6,5.1-1.2
				l62.2,17.1l-3.3,1.4l35.5-53.8c0.2-0.3,0.5-0.3,0.8-0.2C628.6,806.9,628.7,807,628.7,807.2z M627.7,809.2L597.5,864
				c-0.6,1.1-1.9,1.7-3.1,1.5l-0.2,0l-63.3-12.2l5.5-9.1l41.9,48.9l0,0c1.5,1.8,1.7,4.3,0.5,6.2l-33.6,55l-6.3-7.3l60-23.5l0.2-0.1
				c1.3-0.5,2.8-0.1,3.7,1l40.9,49.8l-2.9,1.2l-7.1-64.1c-0.2-1.4,0.6-2.7,1.9-3.3l0.2-0.1l58.7-26.6l0.8,9.6L633,874.2l-0.2-0.1
				c-1.1-0.3-1.9-1.3-2-2.4L627.7,809.2z"/>
		</g>
		<g>
			<polygon fill="#FFFF00" points="1906.3,572.6 1901,633.1 1956.9,656.8 1897.7,670.5 1892.4,731 1861.1,679 1801.9,692.6 
				1841.8,646.8 1810.5,594.7 1866.4,618.4 			"/>
			<path fill="#FFFF00" d="M1906.8,572.6l-3.1,60.7l-1.7-2.8l56.8,21.7c2.6,1,3.9,3.9,2.9,6.4c-0.6,1.6-2,2.8-3.6,3.1l-0.1,0
				l-59.6,12l2.6-3l-7,60.4c-0.1,0.9-0.9,1.6-1.9,1.5c-0.5-0.1-1-0.4-1.2-0.8l-32.7-51.2l3.6,1.5l-58.8,15.3
				c-2.7,0.7-5.4-0.9-6.1-3.6c-0.4-1.6,0-3.3,1-4.5l0.1-0.1l39.6-46l-0.5,6.2l-31.5-51.9l-0.1-0.2c-1.6-2.6-0.8-6,1.9-7.6
				c1.6-1,3.6-1,5.2-0.3l54.9,26l-3.5,0.8l41.7-44.2c0.2-0.2,0.6-0.2,0.8,0C1906.8,572.3,1906.8,572.5,1906.8,572.6z M1905.5,574.5
				l-36.7,46c-0.8,1-2.1,1.3-3.3,0.9l-0.2-0.1l-56.9-21.4l7-8l31,52.2l0,0c1.2,2,0.9,4.5-0.6,6.2l-40.1,45.7l-4.9-8.2l59.6-12l0.2,0
				c1.4-0.3,2.8,0.4,3.5,1.6l29.8,52.9l-3.1,0.7l3.6-60.7c0.1-1.4,1.1-2.6,2.4-2.9l0.2,0l58.8-15.3l-0.8,9.6l-55-25.8l-0.2-0.1
				c-1.1-0.5-1.6-1.6-1.5-2.7L1905.5,574.5z"/>
		</g>
		<g>
			<polygon fill="#FCEE21" points="1766.5,1412.7 1798,1455.5 1848.5,1438.7 1817.6,1482 1849.1,1524.8 1798.4,1508.7 1767.5,1552 
				1767.1,1498.8 1716.4,1482.7 1766.9,1465.9 			"/>
			<path fill="#FCEE21" d="M1766.9,1412.4l33.4,41.5l-3.1-1l49.7-18.9c2.6-1,5.4,0.3,6.4,2.9c0.6,1.7,0.3,3.5-0.7,4.8l0,0
				l-32.3,42.3l0-4l30.2,43.8c0.5,0.8,0.3,1.8-0.4,2.4c-0.4,0.3-1,0.4-1.4,0.2l-51.2-14.5l3.7-1.2l-29.6,44.2
				c-1.5,2.3-4.6,2.9-6.9,1.4c-1.4-0.9-2.2-2.5-2.2-4.1l0-0.2l-0.7-53.2l3.7,5l-50.8-15.8l-0.2-0.1c-2.9-0.9-4.5-4-3.6-6.9
				c0.6-1.8,2.1-3.2,3.8-3.7l51.3-14.4l-2.1,2.9l2.1-53.2c0-0.3,0.3-0.6,0.6-0.5C1766.7,1412.2,1766.8,1412.3,1766.9,1412.4z
				 M1767.1,1414.7l2.8,51.2c0.1,1.3-0.7,2.4-1.8,2.8l-0.3,0.1l-49.7,19.2l-0.1-10.7l50.6,16.3l0.1,0c2.2,0.7,3.7,2.8,3.7,5
				l0.1,53.2l-9.1-2.9l32.3-42.3l0.1-0.2c0.9-1.1,2.3-1.5,3.6-1.1l50.2,17.7l-1.9,2.6l-32.9-41.8c-0.9-1.1-0.9-2.6-0.2-3.8l0.1-0.2
				l29.6-44.2l5.7,7.7l-51.2,14.7l-0.2,0.1c-1.1,0.3-2.3-0.1-2.9-1.1L1767.1,1414.7z"/>
		</g>
		<g opacity="0.7">
			<path fill="#CDA349" d="M951,914.1c-102.7,30.8-174.6,125.9-207.1,284.2s28.4,515.7-48.7,596.9
				C881.9,1709.9,857.6,1019.7,951,914.1z"/>
			<path fill="#CDA349" d="M949.2,915.4c-9,3.1-17.7,6.6-26.3,10.5c-9.1,4.3-18,9.2-26.5,14.6c-17,10.9-32.5,23.9-46.4,38.4
				c-7,7.2-13.4,14.9-19.7,22.8c-6,8-11.9,16.2-17.2,24.7c-10.8,17-19.8,35-28,53.4c-8.1,18.4-14.9,37.4-20.8,56.7
				c-5.9,19.3-10.7,38.9-14.8,58.7c-4.1,19.7-6.6,39.5-8.2,59.7c-1.6,20.1-2.6,40.3-3.1,60.6c-1.3,40.5-1,81.1-0.8,121.7
				c0.3,40.6,0.7,81.3,0.7,121.9c-0.1,20.3-0.3,40.7-0.9,61c-0.6,20.3-1.7,40.7-3.7,61c-2.1,20.3-4.7,40.6-9.8,60.5
				c-2.5,9.9-5.6,19.8-9.8,29.3c-4.1,9.5-9.5,18.7-16.7,26.6l-3.8-5.3c17.1-8.1,31.5-21.2,43.4-36c12-14.9,21.8-31.6,30.3-48.8
				c8.5-17.3,15.6-35.3,22-53.6c6.4-18.3,12-36.8,17.1-55.6c10.1-37.5,18.2-75.6,25.3-113.8c3.5-19.1,6.9-38.3,10.1-57.5
				c3.2-19.2,6.1-38.5,9.1-57.7c5.9-38.5,11.2-77.2,16.8-115.8c5.6-38.6,11.1-77.3,17.2-115.9c3-19.3,6.4-38.6,9.9-57.8
				c3.6-19.2,7.5-38.4,11.9-57.5c4.4-19.1,9.6-38,16.1-56.5c3.3-9.2,6.9-18.4,11.3-27.2C938.5,930.2,943.2,922.3,949.2,915.4z
				 M951.4,914.5c-6.2,7.4-10.8,16.1-14.8,24.9c-4,8.8-7.2,18-10.1,27.3c-5.8,18.5-10.1,37.5-14.1,56.6
				c-7.8,38.1-13.4,76.7-18.8,115.3c-5.4,38.6-10.3,77.3-15.2,116.1c-4.8,38.7-10.1,77.4-15.7,116.1c-2.8,19.3-5.8,38.7-9,57.9
				c-3.2,19.3-6.5,38.6-10.3,57.8c-7.5,38.4-16,76.7-26.6,114.5c-10.7,37.7-23.3,75.2-41.2,110.4c-9.1,17.5-19.3,34.7-32.2,49.9
				c-12.8,15.2-28.4,28.7-46.9,36.9l0,0c-1.7,0.7-3.6,0-4.4-1.7c-0.6-1.3-0.3-2.7,0.6-3.6c6.6-7,12-15.4,16.1-24.5
				c4.2-9,7.4-18.5,10.1-28.2c5.3-19.4,8.6-39.4,10.7-59.6c4.2-40.3,5.3-81,5-121.5c-0.2-40.6-1.7-81.2-3.2-121.8
				c-1.4-40.6-2.7-81.3-2.5-122c0.3-20.4,0.8-40.8,2.4-61.2c1.6-20.3,4-40.9,8.5-61c4.3-20,9.5-39.8,15.6-59.3
				c6.2-19.5,13.2-38.8,21.7-57.5c8.4-18.7,18.2-36.8,29.7-53.9c5.6-8.6,11.8-16.8,18.2-24.8c6.6-7.9,13.4-15.6,20.7-22.8
				c14.6-14.5,30.9-27.1,48.6-37.5c8.9-5.1,18-9.7,27.4-13.7c9.4-3.9,19.2-7.2,28.9-9.9c0.3-0.1,0.6,0.1,0.7,0.4
				C951.6,914.2,951.5,914.3,951.4,914.5z"/>
		</g>
		<g opacity="0.7">
			<path fill="#CDA349" d="M1547.8,1511c-4.1,60.9,16.2,259.9,56.8,320.8C1466.6,1803.3,1470.7,1600.3,1547.8,1511z"/>
			<path fill="#CDA349" d="M1547.8,1511c-0.2,6.9,0,13.7,0.3,20.5c0.3,6.8,0.6,13.7,1.1,20.5c0.9,13.6,2.2,27.3,3.7,40.8
				c1.6,13.6,3.1,27.2,5,40.7c1.9,13.5,3.9,27,6.1,40.5c2.2,13.5,4.7,26.9,7.5,40.2c2.7,13.4,5.7,26.6,9.1,39.8
				c1.7,6.6,3.5,13.1,5.5,19.6c2,6.5,4.1,12.9,6.3,19.2c2.3,6.3,4.7,12.6,7.5,18.6c2.7,6.1,5.9,11.8,9.4,17.3l0.2,0.3
				c1.6,2.5,0.9,5.9-1.7,7.5c-1.3,0.8-2.8,1-4.2,0.7l-12.1-3c-4-1.2-7.9-2.7-11.8-4.1c-3.9-1.5-7.6-3.4-11.4-5.2
				c-3.7-1.9-7.3-4.2-10.9-6.3c-3.5-2.3-6.8-4.9-10.2-7.3c-3.2-2.7-6.3-5.5-9.4-8.3c-2.9-3-5.8-6-8.6-9.1c-2.5-3.3-5.3-6.5-7.7-9.9
				c-2.2-3.5-4.8-6.8-6.8-10.5c-1.9-3.7-4.2-7.2-5.8-11c-3.6-7.5-6.6-15.2-9.1-23c-2.5-7.8-4.5-15.8-5.9-23.9
				c-1.5-8-2.6-16.2-3.1-24.3c-0.6-8.1-0.8-16.3-0.6-24.4c0.2-4.1,0.2-8.1,0.6-12.2c0.4-4,0.6-8.1,1.1-12.1l1.7-12.1l2.2-12
				l2.7-11.8l3.2-11.7c1.2-3.9,2.5-7.7,3.8-11.5c1.3-3.8,2.9-7.5,4.4-11.3c3.1-7.5,6.5-14.8,10.3-21.9c1.8-3.6,4-7,6-10.5
				c2-3.5,4.4-6.8,6.6-10.1c2.3-3.3,4.8-6.4,7.2-9.6C1542.5,1517,1545.2,1514,1547.8,1511z M1547.8,1511c-2.4,3.2-4.8,6.4-7.1,9.7
				c-2.2,3.4-4.4,6.7-6.5,10.1c-2,3.5-4.1,6.8-5.9,10.4c-1.8,3.6-3.7,7-5.3,10.7c-3.3,7.2-6.3,14.6-8.9,22.1
				c-1.2,3.8-2.5,7.5-3.6,11.3l-3.2,11.5l-2.7,11.6l-2.2,11.7l-1.7,11.7l-1.2,11.8c-0.3,3.9-0.5,7.9-0.7,11.8
				c-0.2,3.9-0.1,7.9-0.2,11.8c0.1,7.9,0.5,15.7,1.3,23.6c1.6,15.6,4.6,31.1,9.6,45.8c2.5,7.4,5.4,14.6,8.9,21.5
				c3.5,6.9,7.5,13.5,11.9,19.8c2.2,3.1,4.8,6,7.1,9.1c2.5,2.9,5.3,5.6,7.9,8.3c2.9,2.5,5.7,5.1,8.7,7.5c3.1,2.2,6.2,4.5,9.4,6.6
				c3.3,1.9,6.5,3.9,10,5.7c3.5,1.5,6.9,3.3,10.5,4.7c3.6,1.2,7.2,2.7,10.9,3.8l11.2,2.9l-5.7,8.5c-3.9-6.1-7.3-12.4-10.1-18.9
				c-2.9-6.4-5.4-13-7.7-19.5l-3.3-9.9l-3-10c-1.9-6.7-3.6-13.4-5.2-20.1c-3.2-13.4-6-26.9-8.5-40.5c-2.4-13.5-4.5-27.1-6.4-40.8
				c-1.9-13.6-3.5-27.3-4.8-40.9c-1.3-13.7-2.5-27.3-3.2-41.1c-0.8-13.7-1.3-27.4-1.5-41.1C1546.3,1538.4,1546.5,1524.6,1547.8,1511
				z"/>
		</g>
	</g>
</g>
</svg>
