<?xml version="1.0" encoding="utf-8"?>
<!-- Generator: Adobe Illustrator 22.0.1, SVG Export Plug-In . SVG Version: 6.00 Build 0)  -->
<svg version="1.1" id="layer2" xmlns="http://www.w3.org/2000/svg" xmlns:xlink="http://www.w3.org/1999/xlink" x="0px" y="0px"
	 viewBox="0 0 606.5 523" style="enable-background:new 0 0 606.5 523;" xml:space="preserve">
<style type="text/css">
	.st0{fill-rule:evenodd;clip-rule:evenodd;fill:#6AB43E;}
	.st1{fill-rule:evenodd;clip-rule:evenodd;fill:#98D166;}
	.st2{fill-rule:evenodd;clip-rule:evenodd;fill:#3A6F33;}
	.st3{fill-rule:evenodd;clip-rule:evenodd;fill:#EBBB2B;}
	.st4{fill-rule:evenodd;clip-rule:evenodd;fill:#815311;}
	.st5{fill-rule:evenodd;clip-rule:evenodd;fill:#F7DC7D;}
	.st6{fill-rule:evenodd;clip-rule:evenodd;fill:#DAA01B;}
	.st7{fill-rule:evenodd;clip-rule:evenodd;fill:#C38619;}
	.st8{fill-rule:evenodd;clip-rule:evenodd;fill:#BD2E21;}
	.st9{fill-rule:evenodd;clip-rule:evenodd;fill:#9E2917;}
	.st10{fill-rule:evenodd;clip-rule:evenodd;fill:#752412;}
</style>
<g>
	<path class="st0" d="M258.4,239.9c-39.1,75.3-72.8,79.5-100.9,14.9c-9,22-13.3,39.6-23.2,39.9c-13.4,0.3-30.3-24.6-20.3-51.3
		c-24.6,19.7-34.7,34.4-44.3,27.9c-12.4-8.4-18.5-45,1.9-79.5c-21.9,13.5-40.6,19.6-46.5,7.9c-6-11.8,1-41.6,16.7-58.4
		c-23.9-2.6-40.9-1.1-39.8-16.4C3.3,102.2,38,62,93.3,74.7C61.7,63.2,40.9,57.6,41.8,48c1.6-17.8,55.2-32.3,93.9-5.4
		c-2.7-18.1-8.8-32.1,3.4-37.8c23.6-11,80.6,6,118.2,61.8c-1.4-29.5-0.1-49.2,9.9-46.8c10.6,2.6,30.1,29.1,25.6,64
		c40.7-64.4,88-92.5,101.8-78.2c7.4,7.6-6.3,33-10,58.7c21.1-28,55.9-50.3,62.8-40c3.3,4.9-6.9,27-14.6,41.2
		C483.7,12.9,570.6,16.3,582,40.9c3.8,8.2-12,13.6-25.3,26.9c29.1,0.6,51.7,32.8,47.6,45.9c-2.5,8.1-20.9,0.4-37.3-1.1
		c38.7,46,39.8,99.3,23.2,114.9c-10.6,10-25.8-2.9-51.9-18.6c21.6,13.5,11.9,61.6-3.3,67.8c-6.7,2.7-9-14.7-19.6-26.6
		c-1,26-26.7,58.2-44.4,63c-23.1,6.2-42.2-23.1-73.7-59.6c-26.4,55.1-47.1,53.6-61.9-4.6C285.3,324.5,259.7,321.4,258.4,239.9z"/>
	<path class="st1" d="M239.6,271.2c-25.2,35.1-47.8,38.1-68,9.6c29.9-11.2,28.5-38.7,37.8-42.9c0.1,0,6.1,2.9,6.7,3.6
		C222.6,249.2,231.4,259.6,239.6,271.2L239.6,271.2z M144.9,285.4c-1.2,0-2.5,0.1-3.8,0.1c-36.5,0,15.3-104.5-13.9-75.7
		c-37.9,37.4-56,22.4-39.2-25.3c20.2-57.4-6-6.6-35-14c-16.3-4.2-6.8-41.4,18.1-59.3c12.6-9.1,11.3-5.8,26.1-10.4
		c0-1.3-63.8-3.9,3.5-16.7c38.2-7.2,44.6,3.1,17.5-19.9C93.8,43.5,204.4,45.8,239,83.9c9.9,10.9-17.9-32.2,8.8-9.6
		c11.3,9.6,33.1,39.5,33,39.1c-2.7-7-26.2-64.1,0.6-37.1c7.7,7.7,16,16.5,26.3,46.1c0.4,0.1,12.5-36.9,14.4-41.1
		c14.3-32.5,40.1-61.2,39.3-27.5c-0.1,5.4-0.8,72.9,3,60c1.5-5,57.6-86.8,42-31.8c-10.4,36.4,33.3,1.2,62.7-19.1
		c30.3-20.9,74.5-10.6,69.7-1c-2.1,4.2-17.8,7.9-48.5,20c-25.5,10,11.8-5.1,47.8,20.8c22.6,16.3,51.8,54.9,34.4,54.2
		c-32.6-1.4-45.7-30.9-2.6,18.6c0.1,0.1,18.9,41.9-8,24.9c-8.2-5.2-44.3-25.4-43.7-24.2c11.1,22.2,29.1,95.6-4.2,48.6
		c-17.2-24.3-15.9,18-27.5,50.4c-3.6,10-10.6,23.8-16.5,38.1c0.4-0.1,0.7-0.2,1.1-0.3c17.7-4.7,43.4-37,44.4-63
		c10.6,11.8,12.9,29.3,19.6,26.6c15.2-6.2,24.9-54.3,3.3-67.8c26.1,15.7,41.3,28.6,51.9,18.6c16.6-15.6,15.5-68.9-23.2-114.9
		c16.3,1.6,34.7,9.3,37.3,1.1c4.1-13.1-18.5-45.3-47.6-45.9C570,54.6,585.8,49.1,582,40.9c-11.4-24.6-98.3-28-149.2,24.6
		c7.7-14.2,17.9-36.3,14.6-41.2c-6.9-10.3-41.6,12.1-62.8,40c3.7-25.7,17.4-51.1,10-58.7c-13.8-14.3-61.1,13.9-101.8,78.2
		c4.5-35-15-61.5-25.6-64c-10.1-2.4-11.3,17.3-9.9,46.8C219.7,10.9,162.7-6.1,139.1,4.9c-12.2,5.7-6.2,19.6-3.4,37.8
		C97,15.7,43.4,30.3,41.8,48c-0.9,9.6,19.9,15.2,51.5,26.7C38,62,3.3,102.2,1.8,124.9c-1,15.2,16,13.8,39.8,16.4
		c-15.7,16.8-22.7,46.6-16.7,58.4c5.9,11.7,24.6,5.6,46.5-7.9c-20.4,34.5-14.2,71.2-1.9,79.5c9.6,6.5,19.7-8.2,44.3-27.9
		c-10,26.7,6.9,51.6,20.3,51.3C138.6,294.6,141.9,291.1,144.9,285.4z"/>
	<path class="st2" d="M256.8,246.7c-11,20.2-21.6,34.9-31.8,43.9c-8.2,7.3-16.3,11.1-24.1,11.2c-7.9,0.2-15.4-3.3-22.6-10.3
		c-7.3-7.1-14.2-17.8-20.8-32.2c-1.1,2.9-2.3,5.8-3.3,8.6c-6.3,16.5-10.9,28.4-20,28.6c-1.8,0-3.6-0.3-5.3-1
		c-4.9-1.8-9.8-6.3-13.5-12.4c-3.6-6-6.1-13.7-6.3-22.2c-0.1-4,0.3-8.2,1.4-12.4c-4.8,4-9.1,7.8-12.8,11.1
		c-13.5,12-21,18.7-29.1,13.2c-7.3-4.9-12.6-18.8-12.1-36.2c0.3-12.2,3.3-26.1,10.4-40c-2.4,1.3-4.7,2.6-6.9,3.7
		c-8.1,4.1-15.4,6.7-21.5,7.3c-6.5,0.6-11.5-1.2-14.5-6l0,0l0,0c-0.2-0.3-0.4-0.7-0.6-1.1c-3.3-6.5-2.9-18,0.5-29.9
		c2.8-9.8,7.7-19.9,14.2-27.9c-2.5-0.2-4.9-0.4-7.3-0.6c-19.1-1.6-31.8-2.7-30.8-17.3c0.1-1.5,0.3-3.1,0.7-4.8
		c2.5-10.7,10.8-23.8,24.1-33.8c12.9-9.7,30.4-16.5,51.7-15.5C53.5,62.4,39.2,57,40.1,47.9c0.2-2.2,1-4.2,2.4-6.2
		c3.5-5,10.8-9.4,20.1-12.3c9.2-2.8,20.5-4.1,32.4-3c12.7,1.1,26.1,5,38.3,12.6c-0.4-2.1-0.8-4.2-1.2-6.2
		c-2.7-13.9-4.8-24.3,6.3-29.5c13.5-6.3,37.3-3.8,62.3,9.3c18.8,9.8,38.3,25.6,54.6,48.2c-0.4-12.2-0.3-22.5,0.9-29.7
		c1.6-9.5,5-14.4,11.4-12.9c6.6,1.6,16.1,11.3,22.1,26.2c3.7,9.2,6,20.3,5.5,32.7c12.7-19.2,25.9-34.9,38.4-47
		c12.7-12.3,24.7-20.8,35-25.5c10.6-4.9,19.4-5.6,25-2c0.9,0.5,1.6,1.2,2.3,1.9c5.2,5.4,1.7,17.2-2.6,31.7c-2,6.8-4.2,14.2-5.8,21.8
		c9.4-11.3,20.7-21.3,31-28.1c6-4,11.7-7,16.5-8.5c5.2-1.6,9.4-1.6,12.2,0.4c0.6,0.5,1.1,1,1.6,1.7c1.8,2.6,0.7,8.4-1.7,15.4
		c-2,5.6-4.9,12.2-7.9,18.3c10.1-8.8,21.2-15.8,32.7-21.1c21.6-10,44.5-14.2,63.9-14c19.6,0.2,35.8,4.9,43.7,12.6
		c1.8,1.7,3.2,3.6,4.1,5.6c3,6.5-3,11-11.6,17.3c-3.5,2.6-7.4,5.5-11.3,8.9c2.8,0.3,5.5,0.9,8.1,1.7c11,3.4,20.4,10.7,27.1,18.8
		c6.7,8.1,10.7,17.1,10.5,23.7c0,1.3-0.2,2.5-0.5,3.6c-2.2,7.1-12.2,5.1-23.9,2.7c-3.5-0.7-7.2-1.5-10.9-2
		c16,20.1,25.1,41.3,28.9,60.1c4.9,24.4,0.9,44.9-8.6,53.8c-9.8,9.2-22.3,1.4-41.8-10.8l-1.7-1.1c0.6,1,1.1,2.1,1.5,3.3
		c3.1,7.7,3.8,17.2,2.7,26.2c-1.1,9-3.9,17.7-7.7,23.8c-2.5,4-5.5,7-8.8,8.3c-5.3,2.2-8-3.3-11.7-10.9c-1.9-4-4.2-8.6-7.2-12.8
		c-1.6,11.5-7.3,23.8-14.7,34.3c-9.2,13-21,23.3-30.6,25.9c-20.4,5.5-37.3-14.7-61.2-43.2c-4-4.8-8.2-9.8-12.5-14.9
		c-13.1,26.6-25.1,39.6-35.8,38.8c-10.7-0.8-19.8-14.9-27.2-42.3c-24.3,36.1-43.1,53.4-56.2,51.8
		C265.3,303.5,258.1,284.1,256.8,246.7L256.8,246.7z M328.3,120.3c12.7-16.6,22.3-24.8,29-27.3c2.7-1,4.7-1,6.3-0.2
		c1.5,0.8,2.6,2.4,3.3,4.7c1.6,5.5,0.7,14.2-2.7,24.1c-0.3,1,0.2,2,1.1,2.3c0.8,0.3,1.6,0,2.1-0.6c18.3-21.9,39.5-34.9,53.6-38.8
		c3.9-1.1,7.1-1.4,9.5-1.1c2,0.3,3.4,1.1,3.9,2.4c0.6,1.5,0.3,3.8-1.1,6.8c-0.4,0.9,0,2,0.9,2.4c0.9,0.4,2,0,2.4-0.9
		c1.9-4.1,2.2-7.3,1.2-9.7c-1-2.6-3.4-4.1-6.8-4.6c-2.9-0.4-6.7,0-11,1.2c-13.3,3.7-32.5,15.1-50.1,33.9c1.7-7.3,1.8-13.8,0.5-18.4
		c-0.9-3.2-2.6-5.6-5.1-6.9c-2.4-1.3-5.5-1.4-9.2,0c-7.3,2.7-17.5,11.3-30.7,28.5c-0.6,0.8-0.5,2,0.3,2.6
		C326.5,121.3,327.7,121.1,328.3,120.3L328.3,120.3z M207,80.9c-26.3-12.1-47.1-13.4-58.4-10c-3.5,1.1-6.2,2.6-7.9,4.4
		c-1.9,2-2.7,4.4-2.1,7c0.4,2.2,1.9,4.5,4.4,6.7c-27.4-2-49.9,4.3-61.3,11c-3.8,2.2-6.4,4.5-7.7,6.7c-1.7,2.8-1.4,5.3,1.1,7.2
		l0.1,0.1c2.6,1.9,8,2.9,16.5,2.2c1-0.1,1.8-1,1.7-2c-0.1-1-1-1.8-2-1.7c-7.6,0.6-12.1-0.1-14-1.5l-0.1-0.1
		c-0.8-0.6-0.8-1.4-0.2-2.4c1-1.6,3.2-3.5,6.4-5.4c11.9-7,36.6-13.5,66.5-9.7c0.8,0.2,1.6-0.2,2-1c0.5-0.9,0.1-2-0.8-2.5
		c-5.6-2.8-8.5-5.7-9-8.3c-0.3-1.3,0.2-2.6,1.2-3.8c1.3-1.4,3.4-2.5,6.2-3.4c10.6-3.2,30.5-1.8,55.8,9.8c0.9,0.4,2,0,2.4-0.9
		C208.3,82.5,207.9,81.4,207,80.9L207,80.9z M530.8,133.1c12.3,12,22,25.1,25.3,34c1,2.8,1.4,5,1,6.6c-0.3,1.2-1.2,2.1-2.7,2.4
		c-2.9,0.6-7.8-0.4-15-3.4c-0.9-0.4-2,0-2.4,1c-0.4,0.9,0,2,1,2.4c7.9,3.3,13.5,4.4,17.1,3.7c3.1-0.6,4.9-2.4,5.6-5.1
		c0.6-2.3,0.1-5.3-1.1-8.7c-3.5-9.4-13.4-23-26.1-35.4c-0.7-0.7-1.9-0.7-2.6,0C530,131.3,530,132.4,530.8,133.1L530.8,133.1z
		 M222.7,287.9c10.8-9.6,22.2-25.9,34.1-48.8l0,0c0.3-0.6,0.9-0.9,1.5-0.9c1,0,1.8,0.8,1.8,1.7c0.6,39.7,6.8,60.3,18.6,61.7
		c12.1,1.4,30.4-16.4,55-53.4c0.2-0.4,0.6-0.7,1.1-0.8c0.9-0.2,1.9,0.3,2.1,1.3c7.2,28.3,15.6,42.7,25,43.4
		c9.5,0.7,20.7-12.3,33.6-39.1c0.1-0.2,0.3-0.5,0.5-0.6c0.7-0.6,1.8-0.6,2.5,0.2c5.2,6,9.9,11.6,14.3,16.9
		c23,27.5,39.3,47,57.6,42.1c8.9-2.4,19.9-12.1,28.7-24.5c8-11.3,14-24.8,14.5-36.9c0-0.5,0.2-0.9,0.6-1.2c0.7-0.6,1.8-0.6,2.5,0.1
		c4.8,5.4,7.9,11.7,10.4,16.9c2.8,5.8,4.9,10.1,7.2,9.2c2.5-1,5-3.5,7.1-6.9c3.6-5.7,6.2-13.8,7.2-22.3c1-8.5,0.4-17.3-2.5-24.5
		c-1.9-4.6-4.8-8.5-8.8-11.1c-0.8-0.5-1.1-1.6-0.6-2.4c0.5-0.8,1.6-1.1,2.4-0.6l0,0c4.4,2.7,8.5,5.2,12.3,7.6
		c18.1,11.4,29.6,18.6,37.5,11.2c8.7-8.2,12.2-27.4,7.6-50.6c-3.9-19.4-13.6-41.3-30.9-61.9c-0.3-0.4-0.5-0.8-0.5-1.4
		c0.1-1,0.9-1.7,1.9-1.6c5.2,0.5,10.6,1.6,15.6,2.6c10.1,2.1,18.6,3.8,19.9-0.3c0.2-0.8,0.4-1.7,0.4-2.7c0.1-5.7-3.5-13.9-9.7-21.4
		c-6.3-7.6-15.2-14.5-25.4-17.7c-3.6-1.1-7.3-1.8-11.1-1.8c-0.5,0-0.9-0.2-1.3-0.5c-0.7-0.7-0.7-1.8,0-2.5c4.9-4.9,10.1-8.7,14.5-12
		c7.2-5.3,12.3-9,10.4-13c-0.8-1.6-1.9-3.2-3.4-4.6c-7.3-7.1-22.6-11.4-41.3-11.6c-18.9-0.2-41.2,3.9-62.4,13.7
		c-14.1,6.5-27.6,15.6-39.3,27.6c-0.5,0.6-1.4,0.7-2.1,0.3c-0.9-0.5-1.2-1.5-0.7-2.4c4.4-8,9.5-18.6,12.5-27.1
		c2.1-6,3.2-10.7,2.1-12.3c-0.2-0.3-0.5-0.6-0.8-0.8c-1.8-1.3-4.9-1.2-9,0.1c-4.5,1.4-9.8,4.2-15.6,8.1
		c-11.6,7.8-24.6,19.6-34.5,32.8c-0.4,0.5-1,0.8-1.7,0.7c-1-0.1-1.6-1-1.5-2c1.5-10.1,4.4-20.1,7.1-29c4-13.4,7.2-24.3,3.4-28.2
		c-0.5-0.5-1.1-1-1.7-1.4C387,2.6,379.4,3.4,370,7.8c-9.9,4.5-21.6,12.9-34,24.9c-13.6,13.1-28,30.6-41.7,52.2
		c-0.4,0.6-1,0.9-1.7,0.8c-1-0.1-1.6-1-1.5-2c1.9-14.6-0.5-27.7-4.7-38c-5.5-13.8-14-22.7-19.6-24.1c-3.7-0.9-5.9,2.9-7.1,10
		c-1.4,8.2-1.3,20.3-0.7,34.9c0.1,0.6-0.2,1.3-0.8,1.6c-0.8,0.5-1.9,0.3-2.4-0.5C239.2,43,218.7,26,199,15.7
		c-24-12.6-46.6-15.1-59.2-9.2c-8.5,4-6.7,13.3-4.3,25.6c0.6,3.2,1.3,6.7,1.9,10.3c0.1,0.4,0,0.9-0.3,1.3c-0.6,0.8-1.7,1-2.4,0.4
		c-12.5-8.7-26.6-13-40-14.2c-11.4-1-22.3,0.2-31.1,2.9c-8.6,2.6-15.2,6.5-18.3,10.9c-1,1.5-1.6,3-1.8,4.5
		c-0.6,6.7,13.7,11.8,36.6,20c4.3,1.5,8.9,3.2,13.7,4.9c0.8,0.3,1.3,1.2,1.1,2c-0.2,0.9-1.2,1.5-2.1,1.3c-5.1-1.2-10-1.9-14.7-2.2
		C57,72.8,39.7,79.4,27,89c-12.6,9.5-20.5,21.8-22.8,31.8c-0.3,1.5-0.6,2.9-0.6,4.2c-0.8,11.1,10.5,12.1,27.5,13.5
		c3.3,0.3,6.8,0.6,10.7,1c0.4,0,0.7,0.2,1,0.5c0.7,0.7,0.8,1.8,0.1,2.5c-7.4,7.9-12.7,18.7-15.7,29.1c-3.2,11.1-3.6,21.6-0.7,27.3
		c0.1,0.3,0.3,0.5,0.4,0.8l0,0c2.2,3.5,6.1,4.8,11.2,4.3c5.6-0.5,12.5-3,20.2-6.9c3.9-2,7.9-4.3,12.1-6.8c0.5-0.4,1.3-0.4,1.9-0.1
		c0.8,0.5,1.1,1.6,0.6,2.4c-9,15.1-12.7,30.7-13,44c-0.4,16.2,4.2,28.8,10.6,33.2c5.8,3.9,12.6-2.1,24.8-12.9
		c4.9-4.3,10.5-9.3,17.4-14.8c0.5-0.4,1.1-0.6,1.8-0.3c0.9,0.3,1.4,1.3,1,2.3c-2.2,5.8-3,11.4-2.9,16.8c0.2,7.8,2.5,15,5.8,20.5
		c3.3,5.5,7.5,9.4,11.7,10.9c1.4,0.5,2.7,0.8,4,0.7c6.8-0.1,10.9-11.1,16.8-26.3c1.5-3.8,3-7.9,4.9-12.4c0.2-0.4,0.5-0.8,0.9-1
		c0.9-0.4,1.9,0,2.3,0.9c6.9,15.9,14.2,27.6,21.7,34.9c6.5,6.3,13.2,9.4,20.1,9.3C207.9,298.1,215.1,294.7,222.7,287.9z"/>
	<g>
		<g>
			<path class="st3" d="M221.9,272.7c-3,15.6,10.6,19.6,32,19.6C291.1,238.2,235.1,223.2,221.9,272.7z"/>
			<path class="st4" d="M220.1,272.4c-1.7,8.7,1.3,14.2,7.8,17.5c6,3.1,15,4.2,25.9,4.2c0.6,0,1.1-0.3,1.4-0.8
				c12.6-18.2,14.8-32.3,11.6-41.2c-1.7-4.8-4.9-8.1-8.9-9.8c-3.9-1.7-8.7-1.9-13.5-0.4c-9.6,3-19.7,12.8-24.4,30.5L220.1,272.4
				L220.1,272.4z M229.5,286.8c-4.9-2.6-7.2-6.8-5.9-13.7c4.4-16.3,13.4-25.2,22-27.9c4-1.2,7.8-1.1,11,0.3c3.1,1.4,5.6,4,7,7.8
				c2.8,7.9,0.7,20.5-10.7,37.3C242.9,290.5,234.8,289.5,229.5,286.8z"/>
			<path class="st5" d="M248.6,251c3.5-1.2,8.8-1.1,9.9,3.3c1,4-4.4,5.6-7.2,6c-2.8,0.5-7.2,3.3-9.7,0.3
				C238.2,257,246.2,251.9,248.6,251z"/>
		</g>
		<g>
			<path class="st3" d="M385.3,275c3,15.6-10.6,19.6-32,19.6C316,240.4,372.1,225.5,385.3,275z"/>
			<path class="st4" d="M387,274.7c1.7,8.7-1.3,14.2-7.8,17.5c-6,3.1-15,4.2-25.9,4.2c-0.6,0-1.1-0.3-1.4-0.8
				c-12.6-18.2-14.8-32.3-11.6-41.2c1.7-4.8,4.9-8.1,8.9-9.8c3.9-1.7,8.7-1.9,13.5-0.4c9.6,3,19.7,12.8,24.4,30.5L387,274.7
				L387,274.7z M377.6,289.1c4.9-2.6,7.2-6.8,5.9-13.7c-4.4-16.3-13.4-25.2-22-27.9c-4-1.2-7.8-1.1-11,0.3c-3.1,1.4-5.6,4-7,7.8
				c-2.8,7.9-0.7,20.5,10.7,37.3C364.2,292.8,372.4,291.8,377.6,289.1z"/>
			<path class="st5" d="M358.6,253.3c-3.5-1.2-8.8-1.1-9.9,3.3c-1,4,4.4,5.6,7.2,6c2.8,0.5,7.2,3.3,9.7,0.3
				C369,259.3,360.9,254.2,358.6,253.3z"/>
		</g>
		<path class="st3" d="M507.8,401.1c-92.7,67.5-149.9,93.8-187.7,90.1c8.7-16,0.7-38.3-14.8-70.8c-29-60.9-21.4-109,30-132.3
			c48.5-22,93.8-6.5,115.1,49.8C463.8,373.4,478.1,397.7,507.8,401.1z"/>
		<path class="st6" d="M493.9,411.1c-84.6,60-137.9,83.5-173.7,80c8.7-16,0.7-38.3-14.8-70.8c-13.2-27.6-18.8-52.6-16.2-73.9
			c4,3.8,8.1,9.8,12.9,17.4c42,66.6,72,42.6,126.2,19.6c9.6-4.1,25.8-7.8,40.3-7.9c7.9,11.7,17.4,20,30.1,23.7
			C497.9,402.8,496.3,406.7,493.9,411.1z"/>
		<path class="st4" d="M508.7,402.6c-46.4,33.8-83.9,57.2-114.6,71.8c-30.9,14.7-55,20.4-74.1,18.5c-1-0.1-1.7-0.9-1.6-1.9
			c0-0.2,0.1-0.5,0.2-0.7c4.1-7.6,4.2-16.8,1.5-28c-2.8-11.5-8.6-25.1-16.3-41.2c-0.6-1.3-1.2-2.6-1.9-4
			c-13.4-29.4-18.1-55.9-13.3-77.9c4.8-22.2,19.2-40,44-51.8c0.6-0.3,1.2-0.6,2-0.9c2.5-1.1,5-2.2,7.5-3.1c22-8.3,43.2-8.9,61.6-1.4
			c18.4,7.5,34,23,44.8,46.9c1.2,2.7,2.4,5.5,3.5,8.4c6.6,17.6,13.5,32.3,22.3,43.1c8.7,10.6,19.3,17.3,33.7,18.9
			c1,0.1,1.7,1,1.6,1.9C509.5,401.9,509.2,402.3,508.7,402.6L508.7,402.6z M392.6,471.2c29.8-14.1,66-36.7,110.7-69
			c-13.2-2.5-23.3-9.3-31.7-19.6c-9.1-11.1-16.1-26.2-22.8-44.1c-1.1-2.8-2.2-5.6-3.4-8.2c-10.4-23-25.4-37.9-43-45.1
			c-17.6-7.2-37.9-6.6-59.1,1.4c-2.4,0.9-4.8,1.9-7.3,3c-0.6,0.3-1.2,0.6-1.9,0.9c-23.7,11.3-37.5,28.2-42.1,49.3
			c-4.6,21.3,0,47,13,75.8c0.6,1.3,1.2,2.6,1.8,4c7.8,16.3,13.7,30.1,16.5,41.9c2.7,10.9,2.7,20.2-0.7,28.1
			C341,490.7,363.7,485,392.6,471.2z"/>
		<path class="st7" d="M436.2,487.4c58.6-28.5,89.3-64.6,70.3-82.4c-13.5-12.6-50.4-5.2-109.3,25.6c-57.7,30.2-82.9,47.6-70.8,68.9
			C337.5,518.8,379.4,515.1,436.2,487.4z"/>
		<path class="st3" d="M432.7,413.7c-10.8,4.5-22.6,10.1-35.4,16.9c-8.2,4.3-15.8,8.4-22.7,12.2c0.4,2.7,1.2,5.4,2.3,8
			c7.3,17.1,27.2,25.1,44.6,17.7c17.4-7.4,25.6-27.2,18.3-44.4C438,420.2,435.6,416.7,432.7,413.7z"/>
		<path class="st4" d="M432.2,415.8c-5,2.1-10.3,4.5-15.8,7.2c-6,2.8-12.1,5.9-18.4,9.2c-4.1,2.1-8.1,4.2-11.9,6.3
			c-3.3,1.8-6.6,3.6-9.7,5.3c0.2,0.9,0.4,1.8,0.6,2.7c0.3,1.2,0.8,2.4,1.3,3.6c0,0.1,0.1,0.2,0.1,0.3c3.5,8.1,9.9,14,17.5,17
			c7.6,3,16.4,3.2,24.6-0.2c0.1,0,0.2-0.1,0.3-0.1c8.2-3.5,14.2-9.9,17.3-17.5c3.1-7.6,3.4-16.4-0.1-24.5c-0.8-1.9-1.7-3.6-2.8-5.3
			C434.3,418.3,433.3,417,432.2,415.8L432.2,415.8z M414.9,419.8c5.9-2.8,11.5-5.3,17-7.6c0.7-0.3,1.5-0.2,2,0.3
			c1.5,1.6,3,3.3,4.2,5.1c1.2,1.8,2.3,3.8,3.2,5.9c3.8,9,3.6,18.8,0.1,27.2c-3.5,8.4-10.2,15.6-19.3,19.4l0,0
			c-9.1,3.9-18.9,3.7-27.4,0.3c-8.5-3.4-15.6-10-19.5-19l0,0c-0.6-1.4-1.1-2.8-1.5-4.1c-0.4-1.4-0.7-2.9-0.9-4.3l0,0
			c-0.1-0.7,0.2-1.4,0.9-1.8c3.4-1.9,7-3.9,10.9-5.9c3.8-2,7.7-4.1,11.9-6.3C402.9,425.7,409.1,422.6,414.9,419.8z"/>
		<path class="st5" d="M440.4,496.1c28.2-13.7,50.3-29.3,64.1-44c7.1-7.6,12.2-15.2,14.9-22.3c3.2-8.5,3.2-16.5-0.3-23.6
			c-1.4-2.9-3.4-5.6-6-8.1c-9.4-8.8-25.3-10.8-47.4-5.6c-18.9,4.4-43.3,14.2-72.9,29.7c-29.5,15.4-50.9,27.7-63.6,39.2
			c-15.9,14.3-19.9,27.7-11.1,43.1c7.6,13.4,24.4,18.9,47.8,16.3C385.8,518.4,411.3,510.2,440.4,496.1L440.4,496.1z M490.6,438.9
			c-12.2,13.1-32.4,27.1-58.5,39.9c-27.1,13.2-50.5,20.7-68.3,22.7c-15.2,1.7-25.4-0.6-28.9-6.7c-3.4-5.9-0.8-11.9,7.3-19.2
			c11.3-10.1,31.4-21.7,59.6-36.4c28.2-14.7,51-23.9,68.4-28c15.5-3.6,25.5-3.2,29.8,0.9c0.8,0.8,1.5,1.6,1.9,2.5
			c1.1,2.2,0.9,5-0.4,8.5C499.6,427.8,495.9,433.1,490.6,438.9z"/>
		<path class="st4" d="M439.7,494.5c13.8-6.7,26.1-13.9,36.7-21.1c10.9-7.5,20-15.1,26.9-22.5c3.5-3.7,6.5-7.5,8.9-11.1
			c2.4-3.6,4.3-7.1,5.5-10.5c1.5-4.1,2.3-8,2.2-11.8c0-3.7-0.9-7.2-2.5-10.5c-0.7-1.4-1.5-2.7-2.4-3.9c-0.9-1.3-2-2.5-3.2-3.6
			c-4.4-4.1-10.4-6.7-18.1-7.6c-7.7-0.9-17-0.1-27.8,2.4c-9.5,2.2-20.4,5.8-32.6,10.8c-12,4.9-25.3,11.1-39.9,18.7
			c-14.7,7.7-27.4,14.6-38,21c-10.5,6.4-18.9,12.2-25.2,17.9c-7.7,6.9-12.5,13.6-14.3,20.3c-1.8,6.6-0.6,13.4,3.5,20.6
			c3.6,6.3,9.3,10.7,16.9,13.3c7.8,2.7,17.7,3.4,29.2,2.1c10-1.1,21.4-3.7,34-7.9C412,506.9,425.4,501.4,439.7,494.5L439.7,494.5z
			 M478.3,476.2c-10.7,7.4-23.2,14.6-37.1,21.4c-14.4,7-28,12.6-40.4,16.7c-12.8,4.2-24.5,6.9-34.7,8c-12,1.3-22.3,0.5-30.7-2.3
			c-8.4-2.9-14.8-7.8-18.8-14.9c-4.6-8.1-5.9-15.8-3.9-23.3c2-7.4,7.1-14.6,15.3-22c6.4-5.8,15-11.8,25.8-18.3
			c10.7-6.5,23.4-13.4,38.2-21.1c14.7-7.7,28.1-14,40.2-18.9c12.4-5,23.5-8.7,33.1-10.9c11.2-2.6,20.9-3.4,29-2.5
			c8.4,1,15,3.9,20,8.5c1.4,1.3,2.6,2.7,3.7,4.1c1.1,1.5,2,3,2.8,4.5c1.8,3.8,2.8,7.8,2.8,12c0,4.2-0.8,8.6-2.5,13.1
			c-1.4,3.7-3.4,7.4-5.9,11.3c-2.5,3.8-5.6,7.7-9.3,11.6C498.7,460.8,489.5,468.6,478.3,476.2L478.3,476.2z M491.8,440.1
			c-6.3,6.7-14.7,13.7-24.9,20.7c-9.8,6.7-21.3,13.3-34.2,19.6c-13.4,6.5-25.9,11.7-37.3,15.5c-11.8,3.9-22.4,6.4-31.6,7.4
			c-7.8,0.9-14.4,0.7-19.5-0.5c-5.3-1.2-9.1-3.6-11.1-7.1c-2-3.4-2.2-6.9-0.8-10.6c1.3-3.4,4.1-7,8.4-10.8
			c5.7-5.1,13.7-10.6,23.7-16.7c10-6,22.1-12.6,36.2-20c14-7.3,26.6-13.3,38-17.9c11.7-4.8,22-8.2,30.8-10.3
			c7.8-1.8,14.3-2.7,19.4-2.5c5.5,0.2,9.5,1.4,12,3.8c0.5,0.5,0.9,0.9,1.3,1.4c0.4,0.5,0.7,1,1,1.6c0.7,1.3,0.9,2.9,0.8,4.6
			c-0.1,1.6-0.5,3.4-1.2,5.3c-1,2.5-2.4,5.2-4.3,8C496.9,434.3,494.6,437.1,491.8,440.1L491.8,440.1z M465,457.8
			c-9.6,6.6-21,13.1-33.7,19.3c-13.3,6.5-25.7,11.6-36.9,15.3c-11.5,3.8-21.9,6.2-30.9,7.2c-7.5,0.8-13.6,0.7-18.3-0.4
			c-4.3-1-7.4-2.8-8.8-5.4c-1.4-2.5-1.6-4.9-0.6-7.6c1.1-2.9,3.6-6,7.5-9.4c5.6-5,13.3-10.4,23.2-16.3c10-6,22-12.5,36-19.9
			c13.9-7.3,26.5-13.2,37.7-17.8c11.5-4.7,21.6-8,30.3-10.1c7.6-1.8,13.7-2.6,18.5-2.4c4.6,0.1,7.8,1.1,9.7,2.9
			c0.3,0.3,0.6,0.6,0.9,1c0.2,0.3,0.4,0.6,0.6,1c0.4,0.8,0.6,1.8,0.5,2.9c-0.1,1.2-0.4,2.7-1,4.2c-0.8,2.3-2.1,4.7-3.9,7.2
			c-1.8,2.6-4,5.3-6.6,8.1C483.2,444.2,475,451,465,457.8z"/>
		<path class="st5" d="M355.7,300.5c-33.4,11.3,14.6,28.7,38.6,48.6c7.2,5.9,32.4,31.6,33.9,10.5
			C429.8,336.1,392.3,288.1,355.7,300.5z"/>
		<path class="st5" d="M427,456.3c6.2-6.1,8.6-11.8,6.5-13.3c-1.4-1-5.7,1.1-15,5c-10.2,4.3-20.3,8.7-19.9,11.8
			c0.2,1.7,5.6,3.5,13.5,2.6C415.4,462.1,423.9,459.3,427,456.3z"/>
		<path class="st3" d="M250.2,283.4c-3,15.6,10.6,19.6,32,19.6C319.5,248.9,263.4,233.9,250.2,283.4z"/>
		<path class="st3" d="M99,396.9c92.7,67.5,149.9,93.8,187.7,90.1c-8.7-16-0.7-38.3,14.8-70.8c29-60.9,21.4-109-30-132.3
			c-48.5-22-93.8-6.5-115.1,49.8C143,369.2,128.8,393.5,99,396.9z"/>
		<path class="st6" d="M112.9,406.9c84.6,60,137.9,83.5,173.7,80c-8.7-16-0.7-38.3,14.8-70.8c13.2-27.6,18.8-52.6,16.2-73.9
			c-4,3.8-8.1,9.8-12.9,17.4c-42,66.6-72,42.6-126.2,19.6c-9.6-4.1-25.8-7.8-40.3-7.9c-7.9,11.7-17.4,20-30.1,23.7
			C109,398.6,110.5,402.5,112.9,406.9z"/>
		<path class="st4" d="M103.5,398c44.7,32.3,80.9,54.9,110.7,69c29,13.8,51.6,19.5,69.8,18.4c-3.4-7.9-3.3-17.1-0.7-28.1
			c2.9-11.8,8.8-25.6,16.5-41.9c0.7-1.4,1.3-2.7,1.8-4c13.1-28.8,17.7-54.5,13-75.8c-4.6-21.1-18.4-38-42.1-49.3
			c-0.7-0.3-1.3-0.6-1.9-0.9c-2.5-1.1-4.9-2.1-7.3-3c-21.2-8-41.5-8.6-59.1-1.4c-17.6,7.2-32.5,22.1-43,45.1
			c-1.2,2.6-2.3,5.4-3.4,8.2c-6.8,17.9-13.7,33-22.8,44.1C126.8,388.7,116.8,395.5,103.5,398L103.5,398z M212.7,470.2
			c-30.7-14.6-68.2-38-114.6-71.8c-0.4-0.3-0.8-0.7-0.8-1.3c-0.1-1,0.6-1.8,1.6-1.9c14.4-1.6,25-8.3,33.7-18.9
			c8.8-10.8,15.6-25.6,22.3-43.1c1.1-2.9,2.3-5.7,3.5-8.4c10.8-23.9,26.4-39.4,44.8-46.9c18.4-7.5,39.6-6.9,61.6,1.4
			c2.5,0.9,5,2,7.5,3.1c0.7,0.3,1.4,0.6,2,0.9c24.8,11.8,39.2,29.5,44,51.8c4.8,22.1,0.1,48.5-13.3,77.9c-0.6,1.4-1.3,2.8-1.9,4
			c-7.7,16.1-13.5,29.7-16.3,41.2c-2.7,11.2-2.6,20.4,1.5,28c0.1,0.2,0.2,0.4,0.2,0.7c0.1,1-0.6,1.8-1.6,1.9
			C267.7,490.6,243.6,484.9,212.7,470.2z"/>
		<path class="st7" d="M170.6,483.2c-58.6-28.5-89.3-64.6-70.3-82.4c13.5-12.6,50.4-5.2,109.3,25.6c57.7,30.2,82.9,47.6,70.8,68.9
			C269.4,514.6,227.4,510.9,170.6,483.2z"/>
		<path class="st3" d="M174.2,409.5c10.8,4.5,22.6,10.1,35.4,16.9c8.2,4.3,15.8,8.4,22.7,12.2c-0.4,2.7-1.2,5.4-2.3,8
			c-7.3,17.1-27.2,25.1-44.6,17.7c-17.4-7.4-25.6-27.2-18.3-44.4C168.9,416,171.3,412.5,174.2,409.5z"/>
		<path class="st4" d="M174.9,408c5.5,2.3,11.2,4.9,17,7.7c5.8,2.8,11.9,5.8,18.5,9.2c4.1,2.2,8.1,4.3,11.9,6.3
			c3.8,2.1,7.5,4,10.9,5.9c0.7,0.4,1,1.1,0.9,1.8l0,0c-0.2,1.4-0.5,2.9-0.9,4.3c-0.4,1.4-0.9,2.8-1.5,4.1l0,0
			c-3.8,9-11,15.6-19.5,19c-8.4,3.4-18.2,3.5-27.3-0.3c-0.1,0-0.2-0.1-0.3-0.1c-9-3.9-15.7-11-19.2-19.4c-3.5-8.4-3.7-18.1,0-27
			c0-0.1,0.1-0.2,0.1-0.3c0.9-2,1.9-3.9,3.1-5.7c1.2-1.9,2.7-3.6,4.2-5.1C173.5,407.8,174.3,407.7,174.9,408L174.9,408z
			 M190.4,418.8c-5.6-2.7-10.9-5-15.8-7.2c-1.1,1.2-2.1,2.4-3,3.8c-1.1,1.6-2.1,3.4-2.8,5.3l0,0c-3.4,8.1-3.2,16.9-0.1,24.5
			c3.1,7.6,9.1,14,17.3,17.5c0.1,0,0.2,0.1,0.3,0.1c8.2,3.4,17,3.3,24.6,0.2c7.6-3,14-8.9,17.5-17c0-0.1,0.1-0.2,0.1-0.3
			c0.5-1.2,0.9-2.4,1.3-3.6c0.2-0.9,0.5-1.8,0.6-2.7c-3.2-1.7-6.4-3.5-9.7-5.3c-3.8-2-7.8-4.1-11.9-6.3
			C202.5,424.7,196.4,421.6,190.4,418.8z"/>
		<path class="st5" d="M166.4,491.9c-28.2-13.7-50.3-29.3-64.1-44c-7.1-7.6-12.2-15.2-14.9-22.3c-3.2-8.5-3.2-16.5,0.3-23.6
			c1.4-2.9,3.4-5.6,6-8.1c9.4-8.8,25.3-10.8,47.4-5.6c18.9,4.4,43.3,14.2,72.9,29.7c29.5,15.4,50.9,27.7,63.6,39.2
			c15.9,14.3,19.9,27.7,11.1,43.1c-7.6,13.4-24.4,18.9-47.8,16.3C221.1,514.2,195.5,506.1,166.4,491.9L166.4,491.9z M116.3,434.7
			c12.2,13.1,32.4,27.1,58.5,39.9c27.1,13.2,50.5,20.7,68.3,22.7c15.2,1.7,25.4-0.6,28.9-6.7c3.4-5.9,0.8-11.9-7.3-19.2
			c-11.3-10.1-31.4-21.7-59.6-36.4c-28.2-14.7-51-23.9-68.4-28c-15.5-3.6-25.5-3.2-29.8,0.9c-0.8,0.8-1.5,1.6-1.9,2.5
			c-1.1,2.2-0.9,5,0.4,8.5C107.2,423.6,110.9,429,116.3,434.7z"/>
		<path class="st4" d="M165.6,493.4c-13.9-6.8-26.4-14-37.1-21.4c-11.1-7.6-20.4-15.4-27.5-23c-3.7-3.9-6.8-7.8-9.3-11.6
			c-2.6-3.8-4.5-7.6-5.9-11.3c-1.7-4.5-2.5-8.8-2.5-13.1c0-4.2,1-8.2,2.8-12c0.8-1.5,1.7-3.1,2.8-4.5c1.1-1.4,2.3-2.8,3.7-4.1
			l0.1-0.1c5-4.6,11.6-7.4,19.9-8.4c8.1-1,17.8-0.2,29,2.5c9.7,2.3,20.7,5.9,33.1,10.9c12.1,4.9,25.5,11.2,40.2,18.9
			c14.8,7.7,27.5,14.7,38.2,21.1c10.7,6.5,19.3,12.5,25.8,18.3c8.2,7.4,13.4,14.6,15.4,22c2,7.5,0.8,15.1-3.9,23.3
			c-4,7-10.4,12-18.8,14.9c-8.3,2.8-18.7,3.6-30.7,2.3c-10.2-1.1-21.9-3.8-34.7-8C193.6,506,180,500.5,165.6,493.4L165.6,493.4z
			 M130.5,469.1c10.6,7.3,22.9,14.4,36.7,21.1c14.3,7,27.7,12.5,40,16.5c12.6,4.1,24.1,6.8,34,7.9c11.5,1.3,21.3,0.5,29.2-2.1
			c7.6-2.6,13.3-7,16.9-13.3c4.2-7.3,5.3-14,3.5-20.6c-1.8-6.7-6.6-13.4-14.3-20.3c-6.3-5.7-14.7-11.5-25.2-17.9
			c-10.6-6.4-23.3-13.3-38-21c-14.5-7.6-27.8-13.8-39.9-18.7c-12.2-5-23.1-8.6-32.6-10.8c-10.8-2.5-20.1-3.3-27.8-2.4
			c-7.6,0.9-13.6,3.4-18,7.5l-0.1,0.1c-1.2,1.2-2.3,2.4-3.3,3.6c-0.9,1.2-1.7,2.6-2.4,3.9c-1.6,3.3-2.4,6.8-2.5,10.5
			c0,3.8,0.7,7.7,2.2,11.8c1.3,3.4,3.1,6.9,5.5,10.5c2.4,3.7,5.4,7.4,8.9,11.1C110.5,454,119.5,461.6,130.5,469.1L130.5,469.1z
			 M117.6,433.5c6.1,6.5,14.3,13.4,24.3,20.2c9.6,6.6,21,13.1,33.7,19.3c13.3,6.5,25.7,11.6,36.9,15.3c11.5,3.8,21.9,6.2,30.9,7.2
			c7.5,0.8,13.6,0.7,18.3-0.4c4.3-1,7.4-2.8,8.8-5.4c1.4-2.5,1.6-4.9,0.6-7.6c-1.1-2.9-3.6-6-7.5-9.4c-5.6-5-13.3-10.4-23.2-16.3
			c-10-6-22-12.5-36-19.9c-13.9-7.3-26.5-13.2-37.7-17.8c-11.5-4.7-21.6-8-30.3-10.1c-7.6-1.8-13.7-2.6-18.5-2.4
			c-4.6,0.1-7.8,1.1-9.7,2.9l0,0c-0.4,0.3-0.7,0.7-0.9,1c-0.2,0.3-0.4,0.6-0.6,1c-0.4,0.8-0.6,1.8-0.5,2.9c0.1,1.2,0.4,2.7,1,4.2
			c0.8,2.3,2.1,4.7,3.9,7.2C112.7,428,114.9,430.7,117.6,433.5L117.6,433.5z M139.8,456.5c9.8,6.7,21.3,13.3,34.2,19.6
			c13.4,6.5,25.9,11.7,37.3,15.5c11.8,3.9,22.4,6.4,31.6,7.4c7.8,0.9,14.4,0.7,19.5-0.5c5.3-1.2,9.1-3.6,11.1-7.1
			c2-3.4,2.2-6.9,0.8-10.6c-1.3-3.4-4.1-7-8.4-10.8c-5.7-5.1-13.7-10.6-23.7-16.7c-10-6-22.1-12.6-36.2-20
			c-14-7.3-26.6-13.3-38-17.9c-11.7-4.8-22-8.2-30.8-10.3c-7.8-1.8-14.3-2.7-19.4-2.5c-5.5,0.2-9.5,1.4-12,3.8l0,0l0,0
			c-0.5,0.4-0.9,0.9-1.3,1.4c-0.4,0.5-0.7,1-1,1.6c-0.7,1.3-0.9,2.9-0.8,4.6c0.1,1.6,0.5,3.4,1.2,5.3c1,2.5,2.4,5.2,4.3,8
			c1.9,2.7,4.2,5.6,6.9,8.5C121.3,442.6,129.7,449.6,139.8,456.5z"/>
		<path class="st5" d="M251.1,296.3c33.4,11.3-14.6,28.7-38.6,48.6c-7.2,5.9-32.4,31.6-33.9,10.5C177,331.9,214.6,283.9,251.1,296.3
			z"/>
		<path class="st5" d="M179.9,452.1c-6.2-6.1-8.6-11.8-6.5-13.3c1.4-1,5.7,1.1,15,5c10.2,4.3,20.3,8.7,19.9,11.8
			c-0.2,1.7-5.6,3.5-13.5,2.6C191.4,457.9,182.9,455.1,179.9,452.1z"/>
		<path class="st5" d="M276.9,261.8c3.5-1.2,8.8-1.1,9.9,3.3c1,4-4.4,5.6-7.2,6c-2.8,0.5-7.2,3.3-9.7,0.3
			C266.5,267.7,274.6,262.6,276.9,261.8z"/>
		<path class="st8" d="M369.1,233.8c-7.9-58.4-34.3-68.9-79-31.5c-5.2,57,7.9,105.4,43.4,141.3c16.1,16.3,29.7,31.2,37.1,49
			c15.6-14.7,36.2-28.6,47.6-37.8C384.3,318.3,360.5,279.4,369.1,233.8z"/>
		<path class="st9" d="M369.1,233.8c-2.1-15.8-5.6-28.1-10.5-36.9c-8.5-2.4-16.7-2.3-23.8,1.7c-3.6,2-6.4,7-6.2,6.9
			c-15.5,8.8,11.5,72.8,21,85.8c10.1,13.7,32.4,53.3,54.9,73.9c5.2-3.9,9.9-7.4,13.7-10.4C384.3,318.3,360.5,279.4,369.1,233.8z"/>
		<path class="st10" d="M367.3,233.7c-3.9-28.4-12.1-45-24.6-50c-12.4-4.9-29.4,1.5-51,19.5c-2.5,28.5-0.4,54.8,6.8,78.5
			c7,22.9,18.9,43.3,36.1,60.7c8.1,8.2,15.5,16,21.9,24.1c5.9,7.4,10.9,15,14.5,23.2c10.5-9.6,22.7-18.7,33-26.4
			c4.3-3.2,8.2-6.1,11.4-8.6c-16.4-17.9-30.4-36.5-39.4-56.1C366.9,278.2,363,256.8,367.3,233.7L367.3,233.7z M344,180.5
			c13.8,5.5,22.7,23.2,26.8,53c0,0.2,0,0.4,0,0.6c-4.2,22.4-0.4,43.2,8.5,62.9c9,19.8,23.2,38.4,39.9,56.5c0.1,0.1,0.1,0.1,0.2,0.2
			c0.6,0.8,0.5,1.9-0.3,2.5c-3.7,2.9-8.1,6.2-13,9.9c-10.8,8-23.8,17.8-34.4,27.7c-0.2,0.2-0.4,0.3-0.6,0.4
			c-0.9,0.4-1.9-0.1-2.3-0.9c-3.6-8.7-8.8-16.8-15-24.6c-6.3-7.9-13.7-15.7-21.7-23.8c-17.6-17.8-29.8-38.7-37-62.1
			c-7.4-24.2-9.6-51.2-6.9-80.4c0-0.5,0.2-1,0.6-1.3C311.8,181.8,330.2,175,344,180.5z"/>
		<path class="st8" d="M317.7,195.7c-9.1,62.8-1.4,60.1,17,109.9c11.9,32.2,12.8,51-3.3,82.4c-5.3,10.4-13.2,37.7-22.4,55.7
			c-17.3-8.5-39.6-19.6-67.7-27.7c32.4-35.3,44.3-72,25.9-113.7c-5-11.3-48.9-77.3,0.5-111.5C272.9,186.9,318.2,191.8,317.7,195.7z"
			/>
		<path class="st9" d="M317.7,195.7c-9.1,62.8-1.4,60.1,17,109.9c11.9,32.2,12.8,51-3.3,82.4c-5.3,10.4-13.2,37.7-22.4,55.7
			c-7.3-3.6-15.5-7.7-24.6-11.8c-1.2-43.8,61.1-69.7,14.8-153.2c-35.6-64.4-72.2-50.1-21.9-89.3
			C292.1,189.2,318.1,192.7,317.7,195.7z"/>
		<path class="st10" d="M319.4,195.9c-7.2,49.7-3.8,58,7.1,84.4c2.8,6.7,6.1,14.7,9.7,24.6c6,16.3,9.3,29.2,9,42.1
			c-0.3,12.9-4.2,25.7-12.4,41.7c-2.3,4.4-5,12.1-8.2,20.8c-4.2,11.5-9,24.7-14.2,34.9c-0.4,0.9-1.5,1.2-2.4,0.8l-0.1,0l-0.8-0.4
			c-17.1-8.4-39-19.3-66.5-27.2c-0.9-0.3-1.5-1.2-1.2-2.2c0.1-0.3,0.2-0.5,0.4-0.7l0,0c16-17.5,27-35.2,31.6-53.7
			c4.6-18.4,3-37.6-6-58.1c-0.6-1.3-1.6-3.2-2.9-5.6c-10.9-20.3-41.1-76.8,4-108.1c3.6-2.5,22.3-1.7,36.1,0.3
			c4,0.6,7.6,1.2,10.3,1.9l0.2,0c3,0.8,5.1,1.7,5.8,2.7l0,0C319.3,194.7,319.5,195.3,319.4,195.9L319.4,195.9z M323.3,281.7
			c-11.2-27-14.7-35.5-7.5-85.6c-0.5-0.3-1.8-0.7-3.5-1.2l-0.1,0c-2.6-0.7-6.1-1.3-9.9-1.9c-13.2-1.9-30.8-2.9-33.7-0.9
			c-42.5,29.5-13.3,84-2.9,103.6c1.4,2.6,2.4,4.6,3,5.8c9.4,21.2,11,41.2,6.2,60.4c-4.6,18.4-15.1,35.9-30.5,53.1
			c26.2,7.8,47.2,18.1,63.7,26.3c4.8-9.9,9.3-22.2,13.2-33c3.2-8.8,6-16.6,8.4-21.2c7.9-15.5,11.7-27.8,12-40.1
			c0.3-12.4-2.9-24.9-8.7-40.8C329.3,296.1,326,288.3,323.3,281.7z"/>
		<path class="st8" d="M309.8,182.3c-77.5,24.8-95.2,180.7-179.5,115.3c-29.2-22.6,35.8-53.4-2-107.8
			c-87.2-125.3,113.3-79.6,162-27.2C291.6,163.9,328.8,176.2,309.8,182.3z"/>
		<path class="st9" d="M253.1,230.1c-37.2,50.3-63.6,113.3-122.7,67.4c-29.1-22.6,35.8-53.4-2-107.8c-48.1-69.2-8.6-86.2,44.7-78.8
			c-16.5,6.9-35,12.6-37,19c-17.5,56.9,88.2,28.5,45.6,51.8c-67.2,36.7,57.3,3.9-0.5,62.9c-45,45.9-19.3,51.5,11.8,18.4
			C222,232.2,242,225.9,253.1,230.1z"/>
		<path class="st10" d="M310.4,183.9c-31,9.9-52.4,41.5-72.5,71c-6.5,9.6-12.9,18.9-19.3,27.2c-23.6,30.4-49.1,48-89.2,16.8
			c-14-10.9-8.2-23-1-38.2c8.5-17.9,19.2-40.4-1.4-69.9c-18.5-26.7-24.3-45.9-21.2-59.1c2.2-9.6,8.9-16.1,18.7-19.8
			c9.4-3.7,21.7-4.8,35.5-4c45.6,2.7,107.4,27.3,131.8,53.5l3.6,1.5c7,2.9,19.8,8.4,21.6,13.7C317.7,179.5,316.1,182.1,310.4,183.9
			L310.4,183.9z M234.9,253c20.4-30,42.2-62.1,74.4-72.4c3.3-1.1,4.4-2.1,4.1-3c-1.2-3.8-13.1-8.8-19.6-11.5
			c-2.5-1.1-4.3-1.8-4.8-2.4c-23.8-25.7-84.6-49.7-129.4-52.4c-13.3-0.8-25.1,0.3-34,3.8c-8.6,3.4-14.6,9-16.5,17.4
			c-2.8,12.3,2.8,30.5,20.7,56.3c21.7,31.2,10.5,54.7,1.7,73.5c-6.6,13.8-11.8,24.8,0,34c37.8,29.4,61.9,12.7,84.3-16.2
			C222.2,271.6,228.5,262.4,234.9,253z"/>
		<path class="st8" d="M313.8,186.8c23,13.6,143.3,254.7,164.2,126.1c9.2-56.6-31.1-89.8,13.7-141.7
			C550.3,103.4,474.2,42,313.8,186.8z"/>
		<path class="st9" d="M371.2,267.8C413.7,330,465,392.7,478,312.8c9.2-56.6-31.1-89.8,13.7-141.7c30.6-35.4,24.5-69-11.1-72.5
			c-2.5,17.3,2.1,44.4-26.2,58.7c-56.4,28.6,49.2,34.8-30.7,61.4c-37,12.3,19.8,53.2,16.4,71.8C433.4,327.7,405.3,285.9,371.2,267.8
			z"/>
		<path class="st10" d="M316.6,186.7c7,6,19.2,24.6,34.1,47.3c30.6,46.4,72.5,110.1,100,114.5c11.7,1.9,21-7.8,25.5-35.9
			c3.4-21.1-0.2-39.1-3.5-55.9c-5.7-28.3-10.8-53.7,17.6-86.6c15-17.4,21-34.2,18.8-47c-1.2-7-4.9-12.8-10.9-16.8
			c-6.2-4.1-14.7-6.3-25.6-6.1C439.6,100.9,386.2,124.2,316.6,186.7L316.6,186.7z M347.8,235.9c-16.1-24.5-29.1-44.1-34.9-47.6
			c-0.2-0.1-0.3-0.2-0.4-0.3c-0.6-0.7-0.6-1.8,0.1-2.5c71.2-64.2,126-88.1,159.9-88.8c11.6-0.3,20.9,2.2,27.6,6.6
			c6.9,4.5,11.1,11.2,12.4,19.1c2.4,13.8-3.9,31.7-19.6,49.9c-27.3,31.6-22.3,56.2-16.8,83.6c3.4,17.2,7.1,35.4,3.6,57.2
			c-5,30.6-15.7,41.1-29.6,38.8C421.1,347.2,378.7,282.8,347.8,235.9z"/>
		<path class="st8" d="M269.8,204.7c-11-13.8-9.7-37.8,6.8-47.4c11.5-6.7,54-10,63.9,9.5c2.2,4.4,16.6,41-17.4,47.7
			C313.6,216.3,284.9,223.6,269.8,204.7z"/>
		<path class="st9" d="M269.8,204.7c-6.4-8.1-8.7-19.6-6.1-29.7c14.9,9.6,30.5,32.9,49.1,17.6c13.2-10.9,23.4-15.6,31-16.5
			c3.2,12.6,4.1,33.4-20.7,38.3C313.6,216.3,284.9,223.6,269.8,204.7z"/>
		<path class="st10" d="M268.5,205.8c-1-1.2-1.9-2.5-2.6-3.9c-4-6.8-5.6-15.2-4.6-23.1c1-8,4.6-15.5,11.1-20.7
			c1.1-0.8,2.2-1.6,3.4-2.4c0.3-0.2,0.6-0.3,1-0.5c6.4-3.2,19.8-5.6,32.8-4.8c13.3,0.8,26.3,4.9,31.9,14.5c0.2,0.3,0.4,0.7,0.6,1.1
			c0.8,1.5,2.8,6.5,4.1,12.8c1.1,5.5,1.5,12.1-0.1,18.3c-1.7,6.3-5.5,12.1-13,15.9c-2.7,1.4-5.9,2.5-9.7,3.2c-1,0.2-1.4,0.3-1.9,0.4
			C310.2,218.9,283.3,224.4,268.5,205.8L268.5,205.8z M268.8,200.1c0.7,1.2,1.5,2.4,2.4,3.5c13.5,17,38.9,11.7,49.6,9.5l1.9-0.4
			c3.4-0.7,6.3-1.7,8.8-2.9c6.4-3.2,9.7-8.2,11.1-13.6c1.5-5.5,1-11.6,0-16.7c-1.2-5.9-3.1-10.6-3.8-11.9c-0.1-0.3-0.3-0.6-0.5-0.9
			c-4.9-8.4-16.9-12-29.1-12.7c-12.5-0.8-25.1,1.4-31.1,4.4c-0.3,0.1-0.5,0.3-0.8,0.4c-1.1,0.6-2.1,1.3-3,2.1
			c-5.7,4.6-8.9,11.3-9.8,18.4C263.8,186.4,265.3,193.9,268.8,200.1z"/>
	</g>
	<path class="st10" d="M345.1,176.6c-0.7,0.3-1.6,0-1.9-0.7c-0.3-0.7,0-1.6,0.7-1.9c23.5-10.6,41.3-16.4,53.3-17.5
		c0.8-0.1,1.5,0.5,1.5,1.3c0.1,0.8-0.5,1.5-1.3,1.5C385.9,160.4,368.4,166.1,345.1,176.6L345.1,176.6z M346.4,189.6
		c-0.8,0-1.4-0.6-1.5-1.4c0-0.8,0.6-1.4,1.4-1.5c13.9-0.6,25.5-0.7,35.1-0.2c10.1,0.5,18,1.5,23.8,3c0.8,0.2,1.2,1,1,1.7
		c-0.2,0.8-1,1.2-1.7,1c-5.7-1.4-13.4-2.4-23.3-2.9C371.7,189,360.2,189,346.4,189.6L346.4,189.6z M342.7,203.3
		c-0.7-0.4-1-1.2-0.6-1.9c0.4-0.7,1.2-1,1.9-0.6c9.8,5,18.3,9.3,25.7,12.8c7.4,3.5,13.7,6.2,19.2,8.1c0.7,0.3,1.1,1.1,0.9,1.8
		c-0.3,0.7-1.1,1.1-1.8,0.9c-5.5-2-11.9-4.7-19.4-8.3C361,212.6,352.5,208.3,342.7,203.3z"/>
	<path class="st10" d="M263.3,174.8c0.7,0.3,1.6,0,1.9-0.7c0.3-0.7,0-1.6-0.7-1.9c-23.5-10.6-41.3-16.4-53.3-17.5
		c-0.8-0.1-1.5,0.5-1.5,1.3c-0.1,0.8,0.5,1.5,1.3,1.5C222.6,158.6,240,164.3,263.3,174.8L263.3,174.8z M262,187.8
		c0.8,0,1.4-0.6,1.5-1.4c0-0.8-0.6-1.4-1.4-1.5c-13.9-0.6-25.5-0.7-35.1-0.2c-10.1,0.5-18,1.5-23.8,3c-0.8,0.2-1.2,1-1,1.7
		c0.2,0.8,1,1.2,1.7,1c5.7-1.4,13.4-2.4,23.3-2.9C236.7,187.2,248.2,187.2,262,187.8L262,187.8z M265.7,201.5c0.7-0.4,1-1.2,0.6-1.9
		c-0.4-0.7-1.2-1-1.9-0.6c-9.8,5-18.3,9.3-25.7,12.8c-7.4,3.5-13.7,6.2-19.2,8.1c-0.7,0.3-1.1,1.1-0.9,1.8c0.3,0.7,1.1,1.1,1.8,0.9
		c5.5-2,11.9-4.7,19.4-8.3C247.4,210.8,255.9,206.5,265.7,201.5z"/>
</g>
</svg>
