<?xml version="1.0" encoding="utf-8"?>
<!-- Generator: Adobe Illustrator 22.0.1, SVG Export Plug-In . SVG Version: 6.00 Build 0)  -->
<svg version="1.1" id="L1" xmlns="http://www.w3.org/2000/svg" xmlns:xlink="http://www.w3.org/1999/xlink" x="0px" y="0px"
	 viewBox="0 0 286.3 371.7" style="enable-background:new 0 0 286.3 371.7;" xml:space="preserve">
<style type="text/css">
	.st0{fill:#FF2929;}
	.st1{fill:#FF3636;}
	.st2{fill:#FDCB49;}
	.st3{fill:#94C021;}
	.st4{fill:#CE3030;}
	.st5{fill:#FF2929;stroke:#CE3030;stroke-width:2;stroke-miterlimit:10;}
	.st6{fill:#FFFFFF;}
</style>
<g>
	<g>
		<path class="st0" d="M225.7,65.4c-1.3,0-2.5-0.7-3.1-1.9c-1.7-3.4-17.1-33.5-17.1-43.3c0-11.1,9.1-20.2,20.2-20.2
			c11.1,0,20.2,9.1,20.2,20.2c0,9.8-15.3,39.9-17.1,43.3C228.2,64.7,227,65.4,225.7,65.4z M225.7,7c-7.3,0-13.2,5.9-13.2,13.2
			c0,5.2,7.2,21.5,13.2,33.9c6-12.3,13.2-28.7,13.2-33.9C238.9,12.9,233,7,225.7,7z"/>
		<path class="st1" d="M228.8,114.8h-92.4c-12.3,0-22.3-10-22.3-22.3V65.8c0-12.3,10-22.3,22.3-22.3h92.4c12.3,0,22.3,10,22.3,22.3
			v26.7C251.2,104.8,241.2,114.8,228.8,114.8z"/>
		<path class="st2" d="M114.1,61.8v125.3c0,11.5-6.6,21.9-17,26.8c-22.1,10.4-57.8,27.2-57.8,27.2c-34.2,16.2-48.9,57-32.7,91.2l0,0
			c16.2,34.2,57,48.9,91.2,32.7l34-16c10.5-5,22.4-6.4,33.7-3.7c5.1,1.2,10.4,1.9,15.9,1.9c38.1,0,69-30.9,69-69h0.7V61.8H114.1z"/>
		<path class="st1" d="M35.7,243C4.1,260.2-9,299.4,6.6,332.4l0,0c13.6,28.9,44.8,43.8,74.7,38.1c4.9-11.9,7.6-24.9,7.6-38.5
			C88.9,293.5,67.4,260.1,35.7,243z"/>
		<path class="st3" d="M202.6,98.5c-20.6,8.1-38,23-49.7,42c-7.6,12.2-12.8,27.1-14.1,41.5c-1,11.1-0.3,22,2.3,32.9
			c0.3,1.4,4.3,15.8,9.6,22.9c2.4,4,7.5,7.5,10.4,8.7c4.4,1.8,9.5,0.7,11.2-2c1.7-2.7-0.4-10.3-10.8-22.4
			c-3.3-3.9-6.5-15.8-6.3-17.6c3,6,7.6,12.5,14.4,15.3c4.4,1.8,9.5,0.7,11.2-2c1.7-2.7-3.2-11.3-10.8-22.4
			c-4.7-6.8-9.7-24.5-7.6-25.2c0.2,1.3,0.5,2.7,0.8,4.1c1,4.1,6.3,22.2,18.8,27.3c4.4,1.8,9.5,0.7,11.2-2
			c1.7-2.7-3.2-11.3-10.8-22.4c-7.2-10.5-12.6-23.9-9.7-30.3c0.3,1.8,0.7,3.6,1.1,5.6c1.1,4.6,7,24.8,21.4,30.5
			c5,2,10.9,0.8,12.9-2.3c2-3.1-3.6-12.7-12.3-25c-6.6-9.5-8.7-29.5-6.9-31.6c0.1,4.1,0.6,8.8,1.9,14.3c1.1,4.6,7,24.8,21.4,30.5
			c5,2,10.9,0.8,12.9-2.3c2-3.1-3.6-12.7-12.3-25c-7.8-11.2-0.6-39.7,6.1-44.7c0.5-0.3,3.7-2.2,2.3-3c-0.5-0.3-1.5,0.1-2,0.1
			c-0.9,0.1-1.8,0.3-2.7,0.5C211.8,95.3,207.1,96.7,202.6,98.5z"/>
		<path class="st1" d="M158.1,344.2c2.5,0.2,4.9,0.6,7.3,1.1c5.1,1.2,10.4,1.9,15.9,1.9c36.6,0,66.6-28.5,68.9-64.5
			C208.9,283,173.4,308.3,158.1,344.2z"/>
		<rect x="114.1" y="76.4" class="st0" width="137.1" height="35.9"/>
		<rect x="140.9" y="76.4" class="st4" width="110.2" height="35.9"/>
		<g>
			<polygon class="st0" points="195.2,163.5 188.4,145.6 171.2,153.8 194,97.2 218,106.9 			"/>
			<polygon class="st0" points="259.3,157.2 242.8,147.4 234.4,164.5 217.3,105.9 242.2,98.6 			"/>
			<path class="st5" d="M145.6,99.2c7.1-9.1,17.4-13.5,26.5-14.9c10.7-1.7,21.9,0.3,31.8,6.9c1.9,1.3,3.8,2.8,5.6,4.4
				c1.1,1.1,4.1,3.1,3.9,5.6c-0.2,2.2-2.7,3.9-3.8,5c-1.9,1.8-3.9,3.3-6,4.7c-9.8,6.4-20.8,8.4-31.5,6.7c-5.7-0.9-11.4-3-16.8-6.4
				C153.8,110.1,142.8,103,145.6,99.2z"/>
			<path class="st4" d="M202.5,102.3c2.1-0.5,4.1-1.1,6.1-1.8c0.3-0.1,0.7-0.2,1.1-0.4c-0.8-1-1.8-1.7-2.4-2.3
				c-1.7-1.5-3.4-2.9-5.2-4.1c-9.1-6.1-19.3-7.9-29.2-6.3c-5.3,0.8-11,2.8-16.1,6.2c-0.8,0.5-0.7,1.6,0.1,2.1c0,0,0,0,0,0
				c4.7,2.7,9.9,4.7,15.2,6C182,104.2,192.6,104.6,202.5,102.3z"/>
			<path class="st5" d="M284.8,99.2c-7.1-9.1-17.4-13.5-26.5-14.9c-10.7-1.7-21.9,0.3-31.8,6.9c-1.9,1.3-3.8,2.8-5.6,4.4
				c-1.1,1.1-4.1,3.1-3.8,5.6c0.2,2.2,2.7,3.9,3.8,5c1.9,1.8,3.9,3.3,6,4.7c9.8,6.4,20.8,8.4,31.4,6.7c5.7-0.9,11.4-3,16.8-6.4
				C276.7,110.1,287.7,103,284.8,99.2z"/>
			<path class="st4" d="M228,102.3c-2.1-0.5-4.1-1.1-6.1-1.8c-0.3-0.1-0.7-0.2-1.1-0.4c0.8-1,1.8-1.7,2.4-2.3
				c1.7-1.5,3.4-2.9,5.2-4.1c9.1-6.1,19.3-7.9,29.2-6.3c5.3,0.8,11,2.8,16.1,6.2c0.8,0.5,0.7,1.6-0.1,2.1c0,0,0,0,0,0
				c-4.7,2.7-9.9,4.7-15.2,6C248.5,104.2,237.9,104.6,228,102.3z"/>
			<path class="st4" d="M156.2,102.3c8.3,3.5,17.1,5.8,26.3,5.8c6.5,0,12.9-1.1,19-3.1c2.3-0.8,4.6-1.7,6.8-2.7
				c0.5-0.2,3.9-2.3,4.3-2c0.5,0.4-3.2,2.7-3.7,3c-2.1,1.3-4.3,2.5-6.6,3.5c-6.1,2.7-12.8,4-19.5,4.1c-5.1,0.1-10.3-0.8-15.1-2.3
				c-2.6-0.8-5.1-1.9-7.5-3.2c-1.1-0.6-2.2-1.2-3.2-1.9c-0.3-0.2-0.9-0.4-1-0.7C156,102.6,155.7,102.1,156.2,102.3z"/>
			<path class="st4" d="M274.3,103.1c-12.7,9-29.9,10.4-44.4,4.9c-2.4-0.9-4.8-2.1-7-3.4c-0.9-0.6-1.9-1.1-2.8-1.8
				c-0.6-0.4-1.9-1.1-2.3-1.7c-0.2-0.4-0.3-0.5,0.2-0.5c0.6,0,1.9,1,2.5,1.3c2.1,1,4.2,1.9,6.4,2.7c6.5,2.4,13.3,3.6,20.2,3.8
				c4.8,0.1,9.6-0.5,14.3-1.6c2.7-0.6,5.4-1.4,8-2.4c1.2-0.4,2.3-0.9,3.5-1.4c0.3-0.1,0.8-0.5,1.1-0.5
				C274.1,102.8,274.7,102.9,274.3,103.1z"/>
			<path class="st5" d="M217.5,109.8H213c-3.8,0-6.9-3.1-6.9-6.9v-2.8c0-3.8,3.1-6.9,6.9-6.9h4.5c3.8,0,6.9,3.1,6.9,6.9v2.8
				C224.3,106.7,221.3,109.8,217.5,109.8z"/>
		</g>
		<path class="st6" d="M99,249.8c-8.2,0-14.8-6.6-14.8-14.8c0,8.2-6.6,14.8-14.8,14.8c8.2,0,14.8,6.6,14.8,14.8
			C84.2,256.4,90.8,249.8,99,249.8z"/>
		<path class="st6" d="M143.7,264.6c-8.2,0-14.8-6.6-14.8-14.8c0,8.2-6.6,14.8-14.8,14.8c8.2,0,14.8,6.6,14.8,14.8
			C128.9,271.2,135.5,264.6,143.7,264.6z"/>
		<path class="st6" d="M113.8,292.5c-8.2,0-14.8-6.6-14.8-14.8c0,8.2-6.6,14.8-14.8,14.8c8.2,0,14.8,6.6,14.8,14.8
			C99,299.2,105.6,292.5,113.8,292.5z"/>
		<path class="st6" d="M165.1,290.2c-8.2,0-14.8-6.6-14.8-14.8c0,8.2-6.6,14.8-14.8,14.8c8.2,0,14.8,6.6,14.8,14.8
			C150.3,296.8,156.9,290.2,165.1,290.2z"/>
		<path class="st6" d="M133.3,332.4c-8.2,0-14.8-6.6-14.8-14.8c0,8.2-6.6,14.8-14.8,14.8c8.2,0,14.8,6.6,14.8,14.8
			C118.5,339,125.2,332.4,133.3,332.4z"/>
		<path class="st6" d="M204.1,277.7c-8.2,0-14.8-6.6-14.8-14.8c0,8.2-6.6,14.8-14.8,14.8c8.2,0,14.8,6.6,14.8,14.8
			C189.2,284.4,195.9,277.7,204.1,277.7z"/>
		<path class="st6" d="M211.6,220.2c-8.2,0-14.8-6.6-14.8-14.8c0,8.2-6.6,14.8-14.8,14.8c8.2,0,14.8,6.6,14.8,14.8
			C196.8,226.8,203.4,220.2,211.6,220.2z"/>
		<path class="st6" d="M244.9,255.5c-8.2,0-14.8-6.6-14.8-14.8c0,8.2-6.6,14.8-14.8,14.8c8.2,0,14.8,6.6,14.8,14.8
			C230,262.1,236.7,255.5,244.9,255.5z"/>
		<path class="st6" d="M248.1,194.2c-8.2,0-14.8-6.6-14.8-14.8c0,8.2-6.6,14.8-14.8,14.8c8.2,0,14.8,6.6,14.8,14.8
			C233.3,200.8,239.9,194.2,248.1,194.2z"/>
		<path class="st6" d="M148.1,135.8c-8.2,0-14.8-6.6-14.8-14.8c0,8.2-6.6,14.8-14.8,14.8c8.2,0,14.8,6.6,14.8,14.8
			C133.3,142.4,140,135.8,148.1,135.8z"/>
		<path class="st6" d="M133.3,220.2c-8.2,0-14.8-6.6-14.8-14.8c0,8.2-6.6,14.8-14.8,14.8c8.2,0,14.8,6.6,14.8,14.8
			C118.5,226.8,125.2,220.2,133.3,220.2z"/>
	</g>
</g>
</svg>
